<?xml version="1.0" standalone="no"?>
<!DOCTYPE svg PUBLIC "-//W3C//DTD SVG 1.1//EN" "http://www.w3.org/Graphics/SVG/1.1/DTD/svg11.dtd" >
<svg xmlns="http://www.w3.org/2000/svg">
<metadata></metadata>
<defs>
<font id="bodoni72oscitalic" horiz-adv-x="1058" >
<font-face units-per-em="2048" ascent="1460" descent="-588" />
<missing-glyph horiz-adv-x="477" />
<glyph horiz-adv-x="2048" />
<glyph horiz-adv-x="2048" />
<glyph unicode="&#xd;" horiz-adv-x="2048" />
<glyph unicode=" "  horiz-adv-x="477" />
<glyph unicode="&#x09;" horiz-adv-x="477" />
<glyph unicode="&#xa0;" horiz-adv-x="477" />
<glyph unicode="!" horiz-adv-x="538" d="M41 76q0 52 39 90.5t92 38.5q38 0 64 -24.5t26 -65.5q0 -53 -36.5 -92t-88.5 -39q-41 0 -68.5 26t-27.5 66zM215 307q0 8 10 41l244 891q3 12 9.5 35.5t9.5 33t8 26.5t8.5 25t9 19.5t11 18.5t12.5 14q27 25 71 25q56 0 79.5 -24t23.5 -58q0 -42 -27 -103l-424 -936 q-12 -30 -29 -30q-6 0 -11 6.5t-5 15.5z" />
<glyph unicode="&#x22;" horiz-adv-x="702" d="M389 934q0 4 6 41l62 368q10 56 24 74q24 33 62 33q25 0 43 -13t18 -44q0 -23 -26 -86l-144 -334q-1 -2 -5.5 -13t-8.5 -19t-9.5 -15.5t-11.5 -7.5q-10 0 -10 16zM688 934q0 4 6 41l62 368q10 56 24 74q24 33 62 33q25 0 43 -13t18 -44q0 -23 -26 -86l-144 -334 q-1 -2 -5.5 -13t-8.5 -19t-9.5 -15.5t-11.5 -7.5q-10 0 -10 16z" />
<glyph unicode="#" horiz-adv-x="1062" d="M111 496q0 10 4 18l26 61q5 14 9 21t9.5 10.5t8 4t13.5 0t16 -0.5h186l106 281h-202q-15 0 -22.5 1.5t-13 9t2.5 22.5l22 55q1 2 3 11t4.5 13t13 8.5t27.5 4.5h219l129 348q10 25 12 27q4 2 8 2h27q11 0 14 -5t-4 -30l-127 -342h289l119 346q0 1 4 13.5t8 19t8 6.5h17 q14 0 18 -8q2 -4 2 -13q0 -12 -4 -20l-111 -344h199q10 0 14.5 -6t3.5 -25l-4 -49q0 -12 -2 -18q-3 -10 -8 -15.5t-16 -7.5t-14.5 -2h-16.5h-199l-104 -283h207h6.5h7h6t5.5 -0.5t5 -1t4.5 -2l3 -3t2 -3.5t0.5 -5t-1 -7l-27 -92q-3 -10 -11 -13.5t-34 -3.5h-231l-136 -395 q-2 -6 -5 -15.5t-4 -12.5t-3.5 -8t-5 -6.5t-6.5 -3t-10 -1.5q-11 0 -17 2q-20 5 -20 20q0 7 6 25l137 395h-285l-151 -411q-2 -5 -4 -12t-3.5 -11t-4.5 -6q-2 -2 -7 -2q-2 0 -5 1t-5 1h-4l-16 2q-7 0 -11 2q-10 3 -10 12q0 3 6 21q0 1 1 3t1 3l148 397h-176q-47 0 -47 17z M451 610h288l103 281h-287z" />
<glyph unicode="$" d="M76 299q0 81 36.5 123.5t90.5 42.5q36 0 64 -22t28 -70q0 -86 -84 -101q-39 -8 -45 -28q-2 -4 -2 -15q0 -73 58 -131.5t145 -68.5l231 626q-66 55 -100 86q-19 16 -35 35q-58 67 -84 162q-12 49 -12 98q0 104 52.5 195.5t153.5 148.5q110 60 240 60q22 0 68 -4l61 174 q6 19 10.5 24.5t16.5 5.5q32 0 32 -26q0 -11 -2 -17l-63 -172q92 -18 147 -84q29 -33 48.5 -89.5t19.5 -102.5q0 -54 -29.5 -84.5t-70.5 -30.5q-38 0 -62 25.5t-24 66.5q0 17 5 31t9 21t17 14.5t15 8.5t17 7q21 10 25 15t6 16q0 2 1 7t1 7q0 58 -64 107q-35 25 -73 35 l-205 -570q58 -49 114 -113.5t82 -117.5q37 -75 37 -178q0 -183 -139 -303q-40 -35 -94 -64q-119 -65 -256 -65q-33 0 -49 2l-90 -244q-1 -2 -4 -11t-5.5 -13t-9.5 -8.5t-18 -4.5q-25 0 -25 25q0 8 0.5 13t1.5 6.5l2 3t2 3.5l88 234q-25 4 -71 20q-209 77 -209 289zM428 16 h14q143 0 232 70q106 87 106 240q0 164 -135 295zM524 1120q0 -78 33.5 -130t116.5 -122l198 537q-28 4 -49 4q-82 0 -143 -31q-68 -35 -112 -102t-44 -156z" />
<glyph unicode="%" horiz-adv-x="1546" d="M223 12q0 4 23 33l1194 1337q-146 -45 -283 -45q-120 0 -225 25q-51 13 -123 37q61 -55 80 -135q12 -49 12 -103q0 -134 -57.5 -248t-149.5 -174q-82 -53 -172 -53q-102 0 -170.5 78.5t-68.5 216.5q0 161 96 297q43 59 90 98q60 51 135 68q33 8 76 8q24 0 78 -12 q245 -64 403 -64q176 0 320 54q53 18 61 18q10 0 18.5 -6.5t8.5 -14.5q0 -7 -31 -45q-28 -34 -47.5 -55.5t-36 -37.5t-22.5 -23l-1121 -1260l-5 -6q-4 -6 -6 -8t-6 -5.5t-7.5 -5t-7.5 -1.5q-5 0 -17 4q-39 20 -39 28zM420 872q0 -157 92 -157q103 0 184 207q66 172 66 356 q0 48 -7.5 79t-21.5 44.5t-26.5 17.5t-30.5 4q-96 0 -172 -172q-34 -75 -59 -177.5t-25 -201.5zM862 254q0 111 45 217q25 59 62 107q57 76 132 114.5t146 38.5q74 0 124.5 -37t78.5 -90q33 -59 33 -149q0 -88 -32.5 -187t-84.5 -166q-67 -85 -178 -120q-51 -15 -84 -15 q-107 0 -170 74q-72 81 -72 213zM997 156q0 -114 47 -148q17 -14 48 -14q65 0 125 90q58 86 91 220.5t33 256.5q0 119 -57 139q-10 5 -29 5q-56 0 -97 -45t-83 -148q-78 -192 -78 -356z" />
<glyph unicode="&#x26;" horiz-adv-x="1501" d="M80 315q0 71 22.5 132t60.5 105.5t75.5 74t80.5 53.5q9 4 40 21t36 20q48 23 191 86q-49 181 -49 266t32 156.5t85 118t121.5 72.5t142.5 26q52 0 109.5 -16.5t98.5 -45.5q93 -65 93 -180q0 -119 -125 -207q-20 -14 -41.5 -26.5t-53.5 -28.5t-52.5 -25.5t-70 -32.5 t-73.5 -34l-35 -16q48 -172 106 -328l27 -72l27 -72q25 44 56 92t82.5 112t92.5 93q64 46 131 46q56 0 92.5 -28t36.5 -75q0 -37 -23.5 -60.5t-60.5 -23.5q-28 0 -44 13t-18.5 24.5t-4.5 28.5q0 21 -6 39q-9 22 -33 22q-20 0 -37 -10q-40 -23 -111 -115q-41 -53 -53 -71 q-21 -29 -78 -132q11 -34 47 -104q47 -93 97 -131q53 -39 110 -39q48 0 91 27t71 69q19 29 31 29q10 0 10 -14q0 -12 -23.5 -39.5t-44.5 -46.5q-99 -95 -229 -95q-95 0 -156 39q-68 42 -125 146q-68 -90 -164 -138.5t-212 -48.5q-168 0 -270.5 92.5t-102.5 251.5zM256 352 q0 -140 72.5 -230.5t197.5 -90.5q85 0 159.5 44t119.5 124q-38 78 -62 143q-70 175 -149 436l-35 -18q-18 -9 -50.5 -26t-45 -24t-33.5 -20.5t-36.5 -28.5t-33.5 -36q-104 -124 -104 -273zM702 1147q0 -133 54 -275q109 51 159 82t86 76q68 81 68 189q0 93 -43 143.5 t-119 50.5q-96 0 -150.5 -74t-54.5 -192z" />
<glyph unicode="'" horiz-adv-x="403" d="M389 934q0 4 6 41l62 368q10 56 24 74q24 33 62 33q25 0 43 -13t18 -44q0 -23 -26 -86l-144 -334q-1 -2 -5.5 -13t-8.5 -19t-9.5 -15.5t-11.5 -7.5q-10 0 -10 16z" />
<glyph unicode="(" horiz-adv-x="669" d="M170 352q0 185 50 332.5t116 249.5q150 233 485 467q2 1 23.5 15.5t39.5 26t38.5 22t29.5 10.5q8 0 12.5 -6t4.5 -11q0 -3 -2.5 -7t-8.5 -9.5t-11 -9.5t-15.5 -12t-16.5 -13q-54 -44 -81.5 -67.5t-84 -78t-96.5 -103.5t-93 -126t-99 -164q-76 -142 -112 -282t-36 -334 q0 -244 76 -471q31 -85 31 -92q0 -9 -5 -14t-12 -5q-20 0 -90 144q-80 161 -111.5 286.5t-31.5 251.5z" />
<glyph unicode=")" horiz-adv-x="698" d="M-133 -309q0 5 37 34q42 34 78 64q173 141 269 275.5t167 302.5q37 88 65 182q43 151 43 330q0 209 -53 411q-13 49 -27 88t-20 55.5t-6 24.5t5.5 13.5t10.5 5.5q10 0 25 -25t53 -98q109 -212 139 -398q15 -89 15 -178q0 -252 -105.5 -462.5t-333.5 -403.5 q-77 -65 -197.5 -153.5t-146.5 -88.5q-8 0 -13 7t-5 14z" />
<glyph unicode="*" horiz-adv-x="780" d="M369 1036q0 11 12 23q9 12 15.5 23.5t8.5 17.5t4.5 17.5t2.5 12.5q5 33 53 33q8 0 24.5 -1t24.5 -1q21 0 94 15l35 8l-29 20q-36 26 -49 31q-14 6 -59 18q-4 1 -13.5 3.5t-12.5 3t-10 2.5t-9 3l-7 3.5t-6.5 4.5t-4.5 5t-4 6.5t-2 8t-1 10.5q-1 11 -0.5 28t-1.5 21 q-1 5 -7.5 19.5t-6.5 21.5q0 20 20 20q1 0 25 -6q35 -10 55 -10h35q27 0 27 -31q3 -26 23 -70.5t40 -74.5l14 -23l9 37q10 48 10 86q0 10 -1 30.5t-1 30.5q0 21 6 30t27 18l30 12q14 5 25 16q12 12 24 12q3 0 9.5 -3.5t7.5 -6.5q3 -4 3 -25.5t5 -41.5q1 -5 6.5 -20.5 t5.5 -22.5q0 -28 -34 -45l-17.5 -10.5t-15.5 -9.5t-11 -7.5t-11.5 -9.5t-9 -10.5t-11.5 -14.5l-37 -51h20q44 0 105 18q19 6 36 13t26 10.5t18 3.5q18 0 30 -20q16 -25 41 -41q31 -16 31 -27q0 -10 -18 -19q-46 -15 -70 -36q-2 -2 -5 -4.5t-5 -4t-5 -4t-5.5 -3.5t-6 -2 t-6.5 -1q-13 0 -27 9.5t-31.5 25.5t-29.5 23q-22 12 -65 26l-31 10l10 -28q1 -5 4.5 -16t5 -14.5t5.5 -12.5t9 -15.5t13.5 -17.5t20.5 -25q32 -36 32 -55q0 -18 -14 -37t-16 -24q-2 -3 -7 -25q0 -8 -4 -16q-7 -15 -18 -15q-13 0 -27 21q-2 3 -5 7l-4.5 6t-4.5 5.5t-6.5 6.5 t-9 7t-13.5 9q-30 20 -30 41q0 7 2.5 15.5t7.5 21t8 22.5q14 54 14 111v26l-16 -10q-10 -6 -26.5 -19t-20.5 -20l-51 -76q-13 -18 -19 -22q-20 -16 -39 -16q-14 0 -26 8t-25 8q-11 0 -27 -4q-6 -2 -16 -2q-9 0 -13.5 7.5t-4.5 14.5z" />
<glyph unicode="+" horiz-adv-x="1073" d="M213 649v74h387v379h74v-379h387v-74h-387v-379h-74v379h-387z" />
<glyph unicode="," horiz-adv-x="485" d="M-141 -242q0 12 45 17q86 14 155 53q121 66 121 176q0 27 -14 27q-7 0 -12 -10.5t-7 -12.5q-12 -12 -41 -12q-20 0 -28 4q-17 6 -31 20q-24 24 -24 62q0 42 29.5 71t86.5 29t88 -39q31 -38 31 -102q0 -56 -20 -100q-36 -80 -138 -134q-51 -26 -113 -43.5t-106 -17.5 q-10 0 -15.5 3t-6 4.5t-0.5 4.5z" />
<glyph unicode="-" horiz-adv-x="538" d="M82 432l16 113h418l-20 -113h-414z" />
<glyph unicode="." horiz-adv-x="456" d="M12 80q0 54 33 87.5t86 33.5q45 0 70.5 -28t25.5 -73q0 -52 -31.5 -83t-84.5 -31q-46 0 -72.5 25t-26.5 69z" />
<glyph unicode="/" horiz-adv-x="1173" d="M338 10q0 7 16 39l621 1352q8 21 12 26t14 5q25 0 48 -19q11 -7 16 -18q2 -2 2 -9q0 -6 -12 -30l-621 -1348q-1 -2 -4.5 -11.5t-5 -12.5t-5.5 -9t-8 -8t-10 -2q-24 0 -45 17q-18 14 -18 28z" />
<glyph unicode="0" horiz-adv-x="987" d="M35 301q0 130 70 260t184 215q147 109 338 109q150 0 234.5 -88.5t84.5 -245.5q0 -151 -76 -284t-204.5 -212.5t-274.5 -79.5q-169 0 -250 78q-47 44 -76.5 113t-29.5 135zM188 225q0 -205 197 -205q103 0 201.5 90t159.5 235.5t61 297.5q0 97 -48.5 148t-140.5 51 q-69 0 -124 -26t-109 -85q-92 -100 -144.5 -234.5t-52.5 -271.5z" />
<glyph unicode="1" horiz-adv-x="532" d="M68 6q0 2 4 14l231 621q14 40 57 139q-26 -18 -55 -43q-4 -2 -65 -61q-38 -35 -71.5 -61.5t-39.5 -26.5t-12 7t-6 13q0 7 41 37q57 44 71 60l160 143l16 16q16 -2 54 -2q36 0 59 2h8q10 0 10 -10q0 -13 -77 -213q-26 -72 -91 -238l-79 -221q-5 -15 -22 -59t-25 -66 q-18 -47 -21 -53q-2 -5 -25 -8l-53 -2q-14 -2 -45 -2q-24 0 -24 14z" />
<glyph unicode="2" horiz-adv-x="823" d="M-78 18q0 9 2 15l4 24q2 23 19 37q17 13 88 49q109 58 251 148t185 129q141 129 141 272q0 76 -39 118t-108 42q-83 0 -156 -59t-73 -125q0 -29 49 -37q37 -6 37 -58q0 -44 -26.5 -70t-70.5 -26q-40 0 -67 27t-27 67q0 55 31 118t78 106q103 92 260 92q121 0 191.5 -60 t70.5 -163q0 -59 -29.5 -116.5t-81.5 -101.5q-50 -42 -93.5 -67.5t-238.5 -126.5q-90 -47 -204 -119h80q25 -2 51 -2h55q153 0 202.5 8t86.5 39q23 17 46.5 48.5t35.5 62.5q8 18 18 18q8 0 14.5 -5t6.5 -11q0 -8 -6 -17q-77 -183 -99 -268q-125 -8 -278 -8q-93 0 -150 2 q-41 2 -88 2q-42 0 -65 -2l-68 -2q-35 0 -35 20z" />
<glyph unicode="3" horiz-adv-x="821" d="M-176 -178q0 71 42.5 122.5t102.5 51.5q37 0 62.5 -19.5t25.5 -48.5q0 -40 -19.5 -65t-51.5 -25q-21 0 -35 2h-12q-20 0 -34 -15t-14 -38q0 -25 15 -57t39 -56q45 -51 131 -51q89 0 172.5 64t134.5 168.5t51 216.5q0 87 -74 141q-51 33 -94 33q-3 0 -11 -0.5l-24 -1.5 t-30 -2h-21q-51 0 -51 20q0 39 39 39q2 0 7 -0.5t14.5 -1.5t19.5 -2h20q157 0 271 109t114 258q0 85 -43.5 135.5t-115.5 50.5q-77 0 -146 -55.5t-69 -116.5q0 -17 7.5 -21t39.5 -4q63 0 63 -63q0 -37 -28.5 -62.5t-69.5 -25.5q-44 0 -71 30.5t-27 81.5q0 112 96.5 190.5 t234.5 78.5q137 0 213 -63t76 -175q0 -263 -416 -362l-14 -7l6 -12q120 -12 185 -73.5t65 -161.5q0 -111 -71.5 -214t-189.5 -166t-245 -63q-118 0 -194 66.5t-76 169.5z" />
<glyph unicode="4" horiz-adv-x="876" d="M-102 43q0 18 36 51q8 8 64 63t171 167.5t243 238.5q25 25 151 152l142 141q8 7 21.5 21.5t16.5 17.5q14 16 37 16q48 0 72 -39l-117 -329q-112 -307 -119 -326q-6 -19 -41 -117h146q16 2 33 2q16 0 16 -12q0 -9 -6 -18q-14 -21 -19 -39q-8 -19 -17 -25t-32 -6l-80 2 q-28 0 -69 -2q-90 -278 -107 -326q-9 -26 -31 -32t-110 -6q-25 0 -25 16q0 9 70 199q40 110 53 151q-70 -4 -379 -4q-71 0 -110 6l-4 12q-6 16 -6 25zM31 111q0 -11 51 -11l47 -2h68q192 0 229 2q131 358 135 369l49 129q29 76 66 162q-57 -53 -131 -127l-121 -127l-94 -94 q-91 -95 -140 -140q-13 -12 -18.5 -17.5t-17.5 -16.5q-44 -41 -68 -68q-16 -24 -29 -35q-6 -7 -16 -14t-10 -10z" />
<glyph unicode="5" horiz-adv-x="790" d="M-154 -180q0 58 30.5 96.5t76.5 38.5q36 0 62 -23.5t26 -56.5q0 -28 -13.5 -42.5t-62.5 -37.5q-10 -4 -17 -15t-7 -20q0 -45 43 -73.5t112 -28.5q166 0 279 186q88 146 88 303q0 222 -148 222q-64 0 -113.5 -36t-95.5 -116q-7 -12 -18 -12q-10 0 -17.5 5t-7.5 13 q0 9 7 23q71 156 113 257.5t139 354.5q3 10 7 13t15 3l356 -36q58 -4 64 -4q34 0 55 36q16 27 29 27q12 0 12 -14q0 -18 -34.5 -73.5t-63.5 -82.5q-20 -20 -43 -27.5t-66 -7.5q-58 0 -194 19q-129 19 -137 20q-42 -101 -80 -193.5t-56.5 -136.5t-21.5 -51q109 76 221 76 q109 0 175.5 -79.5t66.5 -209.5q0 -137 -71.5 -256t-193.5 -189.5t-262 -70.5q-107 0 -180.5 57t-73.5 142z" />
<glyph unicode="6" horiz-adv-x="868" d="M61 297q0 195 112 419.5t298 403.5q82 77 178.5 123.5t175.5 46.5q80 0 127 -33t47 -88q0 -43 -24.5 -71.5t-61.5 -28.5q-31 0 -56.5 21t-25.5 47q0 12 3 17t20 22q16 19 16 38t-18.5 32.5t-44.5 13.5q-57 0 -109.5 -35t-124.5 -121q-60 -72 -97.5 -136t-110.5 -220 q51 38 100 54.5t115 16.5q113 0 175 -70.5t62 -197.5q0 -150 -69 -283.5t-184.5 -213t-244.5 -79.5q-118 0 -188 87t-70 235zM186 156q0 -61 39.5 -103.5t96.5 -42.5q136 0 243 221q97 202 97 332q0 84 -31 148q-29 59 -105 59q-67 0 -126 -41t-97 -115q-43 -87 -80 -231 t-37 -227z" />
<glyph unicode="7" horiz-adv-x="747" d="M72 -225q0 117 113.5 292t445.5 572q2 4 41 53q-92 -18 -223 -18q-45 0 -144 6l-65 6l-43 4q-4 2 -13 2q-8 0 -11 -4.5t-15 -32.5q-14 -31 -33 -69q-11 -27 -27 -27q-24 0 -24 14q0 10 22 62q20 47 62 145q5 10 28 72q5 13 14 35t13 31q6 20 18 20q9 0 16 -7t7 -16 q0 -5 -12 -30q-9 -18 -9 -25q0 -20 52 -20l65 -2q82 -7 152 -7q132 0 215 9q45 5 65.5 15t51.5 44q20 23 36 23q6 0 12.5 -4.5t6.5 -8.5q0 -22 -219 -288q-308 -371 -430 -549q-121 -180 -121 -281q0 -20 11 -36.5t24 -16.5q7 0 11 4t25 31q20 28 54 28q32 0 50.5 -20 t18.5 -55q0 -44 -31.5 -72.5t-82.5 -28.5q-55 0 -91 42.5t-36 107.5z" />
<glyph unicode="8" horiz-adv-x="827" d="M18 229q0 120 97 228t284 194q-77 100 -108 168t-31 137q0 136 112.5 236t266.5 100q122 0 195 -62.5t73 -166.5q0 -123 -86 -209q-35 -35 -70 -57t-137 -74q-21 -12 -47 -25q164 -202 164 -348q0 -155 -124 -264t-302 -109q-131 0 -209 68.5t-78 183.5zM129 199 q0 -82 49.5 -132.5t130.5 -50.5q110 0 182 75t72 192q0 89 -27 154t-112 179q-151 -94 -223 -195.5t-72 -221.5zM408 1026q0 -135 133 -295q135 75 197.5 157.5t62.5 184.5q0 82 -45 128t-123 46q-104 0 -164.5 -59.5t-60.5 -161.5z" />
<glyph unicode="9" horiz-adv-x="868" d="M-104 -311q0 43 23 68.5t61 25.5q35 0 58 -19.5t23 -50.5q0 -17 -18 -35t-18 -36q0 -19 19.5 -32t47.5 -13q100 0 215 136t213 371q-66 -40 -114.5 -55.5t-106.5 -15.5q-113 0 -176.5 77.5t-63.5 213.5q0 144 67.5 273t180 206.5t238.5 77.5q117 0 191.5 -94.5 t74.5 -243.5q0 -203 -111.5 -431.5t-289.5 -387.5q-178 -160 -340 -160q-78 0 -126 34t-48 91zM219 281q0 -91 35.5 -144t95.5 -53q64 0 123 34.5t88 88.5q45 85 82 232.5t37 242.5q0 77 -36.5 119.5t-102.5 42.5q-128 0 -228 -199q-42 -84 -68 -184.5t-26 -179.5z" />
<glyph unicode=":" horiz-adv-x="485" d="M12 78q0 54 33 87.5t86 33.5q45 0 70.5 -28t25.5 -73q0 -52 -31.5 -83t-84.5 -31q-46 0 -72.5 25t-26.5 69zM268 731q0 54 33 87.5t86 33.5q45 0 70.5 -27.5t25.5 -72.5q0 -52 -31.5 -83.5t-84.5 -31.5q-46 0 -72.5 25t-26.5 69z" />
<glyph unicode=";" horiz-adv-x="487" d="M-141 -242q0 2 4 6q5 5 41 11q86 14 155 53q121 66 121 176q0 27 -14 27q-7 0 -12 -10.5t-7 -12.5q-12 -12 -41 -12q-35 0 -59 24t-24 62q0 28 12 49q28 51 104 51q57 0 88 -39q31 -38 31 -102q0 -56 -20 -100q-36 -80 -138 -134q-35 -18 -65 -28q-86 -33 -154 -33 q-10 0 -14 2q-8 3 -8 10zM223 729q0 54 33 87.5t86 33.5q45 0 70.5 -27.5t25.5 -72.5q0 -52 -31.5 -83.5t-84.5 -31.5q-46 0 -72.5 25t-26.5 69z" />
<glyph unicode="&#x3c;" d="M115 723v12l876 563v-94l-747 -477l747 -498v-94z" />
<glyph unicode="=" horiz-adv-x="1073" d="M213 549v74h848v-74h-848zM213 750v73h848v-73h-848z" />
<glyph unicode="&#x3e;" d="M190 135v94l748 498l-748 477v94l877 -563v-12z" />
<glyph unicode="?" horiz-adv-x="802" d="M98 76q0 48 32.5 82.5t84.5 34.5q42 0 67 -27.5t25 -69.5q0 -49 -31 -80.5t-79 -31.5q-43 0 -71 25.5t-28 66.5zM244 348q0 76 39 184t96 183q24 32 59.5 65.5t60.5 53.5t79 61q13 10 41.5 31.5t39 30t32.5 26t31.5 25.5t25 22.5t23.5 24.5t17.5 22.5t16.5 24.5 q26 44 26 115q0 55 -12 90q-11 34 -26 51q-47 55 -136 55q-94 0 -141 -51q-17 -17 -32 -41.5t-15 -40.5q0 -3 0.5 -6t1.5 -5.5t2 -4.5t4 -4t4 -3t5 -3.5t6 -3.5l7 -3.5l7 -3.5q11 -6 15.5 -9t10 -14t5.5 -26q0 -38 -27.5 -62t-63.5 -24q-37 0 -63.5 26.5t-26.5 67.5 q0 45 30 92t73 80q93 70 223 70q135 0 223 -72q94 -81 94 -219q0 -94 -49 -164q-44 -59 -141 -117q-40 -23 -110 -52t-126 -56q-73 -36 -119 -74t-88.5 -109t-74.5 -180q-3 -10 -6.5 -33t-8.5 -31.5t-16 -8.5q-16 0 -16 20z" />
<glyph unicode="@" horiz-adv-x="1968" d="M160 475q0 209 92.5 396.5t265.5 332.5q282 234 637 234q178 0 339.5 -56.5t264.5 -162.5q156 -160 156 -404q0 -151 -61.5 -282t-178.5 -222q-86 -67 -188.5 -101t-188.5 -34q-81 0 -119 34t-38 83q0 21 12 69q-46 -72 -111 -122q-87 -66 -186 -66q-113 0 -175.5 73.5 t-62.5 178.5q0 99 54.5 208.5t136.5 201.5q91 103 204 172t216 69q71 0 116.5 -39.5t49.5 -109.5l51 110q1 2 3.5 7.5t3.5 7.5t4 5.5t7 5t9 1.5t24 -3t41 -3q27 0 46 9t30 9q8 0 8 -14q0 -10 -29 -72l-237 -532q-60 -136 -60 -185q0 -24 14.5 -37.5t55.5 -13.5q68 0 157 43 t150 107q74 77 115 190.5t41 233.5t-46.5 238t-133.5 200q-80 74 -206 121t-274 47q-331 0 -557 -209q-286 -264 -286 -702q0 -337 186 -549q71 -81 166 -131.5t176 -67t166 -16.5q154 0 312.5 58.5t287.5 164.5q47 40 76 69q45 46 75 88t45.5 69.5t22.5 35.5q8 8 12 8 q27 0 27 -20q0 -14 -55 -92q-48 -66 -125 -136.5t-146 -117.5q-261 -174 -567 -174q-245 0 -444 114q-102 61 -164 125q-104 105 -160.5 251t-56.5 304zM807 360q0 -84 47 -118q28 -19 61 -19q154 0 293 297l111 238q11 25 24 51t17.5 35.5t8.5 20t5 18.5q2 6 2 20 q0 27 -14.5 55.5t-32.5 42.5q-37 33 -92 33q-36 0 -76 -16q-35 -15 -71 -49.5t-55 -60t-48 -68.5q-126 -191 -164 -348q-16 -69 -16 -132z" />
<glyph unicode="A" horiz-adv-x="1284" d="M-172 23q0 18 25 18q19 0 43 -4t43 -4q58 0 108 26q7 4 14 9t15.5 14t15 16t18.5 22.5t19.5 24.5t24 31t26.5 35l934 1219q20 26 33 26q18 0 18 -29q0 -7 -2 -19.5t-6.5 -38t-7.5 -54.5l-143 -1100q-11 -76 -11 -98q0 -72 72 -76l125 -6q22 0 22 -17q0 -10 -9 -17t-23 -7 q-3 0 -20 3t-36 3h-8q-17 0 -106 1t-103 1l-260 -2h-12q-4 0 -13.5 -1t-13.5 -1q-39 0 -39 27q0 16 23 16q6 0 17.5 -1t17.5 -1h10h27q64 0 94 18q7 5 13 11t10 14.5t6.5 15t5 18.5t3.5 18t2.5 20t2.5 18l41 277q6 15 1.5 22.5t-32.5 7.5h-364l-242 -325q-37 -52 -37 -74 q0 -8 2 -12q2 -7 10 -15q21 -18 67 -18q15 0 34 2l32 2q8 0 18 2t17 2q16 0 25.5 -6.5t9.5 -13.5q0 -23 -47 -23q-80 2 -127 2q-52 0 -62 -2q-11 -3 -78 -3q-45 0 -114 1q-23 0 -35.5 -2t-32.5 -2t-40.5 7t-20.5 22zM502 537q0 -15 26 -15h263q34 0 65 15l86 561 q1 7 -2 12.5t-6 5.5q-1 0 -14 -18l-396 -533q-5 -7 -18 -20q-4 -4 -4 -8z" />
<glyph unicode="B" horiz-adv-x="1204" d="M-141 12q0 8 6 14.5t18 6.5q4 0 11.5 -1t11.5 -1q50 -4 71 -4q75 0 99 12q10 6 18 20t23 54l467 1167q16 43 16 61q0 23 -24 31t-93 8h-34q-15 0 -23 5.5t-8 11.5q0 11 14 14q21 6 143 6h349q54 0 91.5 -2.5t92 -16.5t92.5 -40q64 -45 90 -123q15 -44 15 -86 q0 -134 -93 -234q-51 -56 -145 -108q-121 -66 -227 -82q113 -23 184 -82q43 -39 61 -82q19 -46 19 -104q0 -113 -68.5 -219.5t-177.5 -165.5q-48 -25 -98 -39q-73 -20 -137 -25q-105 -12 -250 -12q-23 0 -68 1t-67 1h-19h-235h-41q-10 0 -31 -1t-31 -1q-22 0 -22 16zM301 53 q0 -8 2 -12q5 -12 23 -12h32q101 0 171.5 13.5t140.5 53.5q105 61 165 162t60 225q0 48 -10 82q-9 39 -35 72q-25 31 -64 49q-38 20 -82 24q-36 4 -67 3h-13q-36 -1 -73 -6l-225 -576q-25 -62 -25 -78zM573 758q47 -5 89 -5q150 0 251 60q58 36 97 84q43 55 70.5 134 t27.5 165q0 91 -55 137q-53 45 -179 45q-28 0 -59 -2z" />
<glyph unicode="C" horiz-adv-x="1173" d="M135 410q0 252 137.5 505t358.5 400q193 127 387 127q67 0 110 -15.5t99 -56.5q31 -23 49 -41q33 -31 57 -31t39 25q17 23 25 23q12 0 12 -15q0 -20 -31 -86q-18 -41 -26 -55l-31 -62q-53 -131 -55 -139q-13 -33 -25 -33q-5 0 -10.5 6t-5.5 17q0 5 1.5 10t5.5 15.5 t7 23.5q12 42 12 96q0 130 -65 204.5t-180 74.5q-119 0 -228 -66q-127 -84 -219 -223q-60 -91 -109 -217t-71 -246q-21 -120 -21 -243q0 -121 45 -209q34 -65 88 -100.5t144 -35.5q25 0 65 7q59 11 117 43q20 11 82 57q36 30 81 77t64 81q26 45 43 45q13 0 13 -17 q0 -45 -115 -170q-103 -109 -223.5 -161t-239.5 -52q-237 0 -336 193q-51 97 -51 244z" />
<glyph unicode="D" horiz-adv-x="1464" d="M-127 14q0 6 2.5 10t7.5 6.5t10 4t13 2t12 0.5h12h9h57q66 0 86 18q6 6 18 26t15 28l460 1136q31 79 33 88q2 6 2 17q0 6 -1.5 11t-5.5 8t-7.5 5t-11 3t-11.5 1.5t-13 1t-13 0.5l-111 11q-3 1 -9.5 1t-10 1t-8.5 6t-5 8q0 16 31 16q3 0 45 -1.5t103.5 -3t113.5 -1.5 q51 0 155.5 1t156.5 1q94 0 162.5 -11t138.5 -48q217 -115 217 -402q0 -131 -39 -258t-115.5 -244t-200 -216t-280.5 -162q-28 -11 -56 -20.5t-49.5 -16.5t-52 -12.5t-46.5 -9t-51 -6.5t-47.5 -4.5t-54 -3t-52 -1.5t-61 -1t-61.5 -1q-102 -2 -309 -2h-53q-22 -1 -50.5 -2.5 t-41.5 -1.5t-21 4t-10 7.5t-2 6.5zM311 76q0 -9 3.5 -15.5t11.5 -10.5t15.5 -6t20.5 -2q12 -2 20 -2h10h12q14 0 18 1q70 0 157 12.5t148 34.5q174 61 313 219q184 207 254 488q29 122 29 233q0 107 -30.5 178t-75.5 107q-39 32 -106.5 50.5t-135.5 18.5q-112 0 -133 -12 q-27 -14 -64 -113l-450 -1134q-6 -12 -15 -39q0 -1 -1 -4t-1 -4z" />
<glyph unicode="E" horiz-adv-x="1173" d="M-113 16q0 10 13 13.5t53 3.5h72h9h9t7 0.5t7 1t6 2.5t6.5 4t6 5.5t6.5 8.5q22 32 39 76l473 1139q21 53 27 71q4 16 4 23q0 17 -19 20q-30 5 -59 5l-76 2q-25 0 -25 14q0 18 43 18q31 0 90.5 -1t88.5 -1h12l610 -4q10 0 25 1t22 1q45 0 45 -20q0 -3 -1.5 -6.5t-5 -9.5 t-5.5 -11q-7 -16 -14 -41l-56 -209q-20 -82 -38 -82q-2 0 -4.5 1t-5.5 6t-3 12q0 8 6.5 25.5t10.5 37.5q12 62 12 107q0 57 -15.5 84.5t-48.5 40.5q-58 19 -118 24q-66 4 -101 4l-129 2q-31 0 -41 -10q-5 -5 -18 -31l-223 -577q69 -6 94 -6q116 0 191.5 58t101.5 140 q10 31 26 31q15 0 15 -16q0 -6 -23 -62l-121 -282q-38 -91 -61 -178q-10 -39 -25 -39q-23 0 -10 37q31 94 31 155q0 59 -35 88q-42 33 -170 33q-12 0 -17.5 -1t-11.5 -6t-12 -16q-4 -6 -8 -18l-221 -545q-25 -61 -25 -69q0 -23 37 -23l106 -4q34 -3 74 -3q28 0 59 2 q75 4 144 12.5t135 38.5t107 77q47 54 106 215q12 41 35 41q4 0 9 -3t5 -11q0 -9 -2 -13q-2 -8 -8 -23.5t-10 -25.5q-18 -45 -63 -168t-52 -149q-5 -16 -8.5 -22t-16.5 -9.5t-40 -3.5h-889q-48 0 -76 1t-43.5 3t-20 5t-4.5 9z" />
<glyph unicode="F" horiz-adv-x="1038" d="M-133 12q0 7 4 11q7 10 31 10q35 0 53 -2q3 0 9 -1t9 -1q8 0 26 1t26 1q43 3 49 6q24 17 49 88l475 1196q1 3 4 10t4 10q6 12 6 27q0 18 -22 18q-21 0 -57.5 -1t-55.5 -1q-43 0 -43 23q0 18 31 18q15 0 45.5 -2t113 -4t224.5 -2h217h117q152 4 178 4q12 0 12 -10 q0 -23 -45 -170q-4 -13 -11 -37t-11 -37q-3 -11 -10.5 -33.5t-10.5 -33.5q-2 -7 -4 -17t-3.5 -15.5t-4 -11.5t-6.5 -9t-11 -3q-12 0 -12 25q0 21 6 39q17 66 17 109q0 35 -9 69q-11 34 -26 51q-15 15 -35 25q-29 13 -73.5 15.5t-166.5 2.5h-116q-7 0 -11 -1.5t-13.5 -16 t-22.5 -43.5l-236 -571q23 -5 59 -5q117 0 158 11q74 20 123 108q36 64 53 111q13 39 35 39q12 0 12 -13q0 -12 -8.5 -37t-28 -74t-30.5 -81l-64 -176q-20 -56 -33 -110.5t-26 -76.5q-7 -14 -16 -14q-15 0 -15 21q0 5 12 59q11 46 11 78q0 59 -33 90q-16 14 -39.5 21 t-35 7.5t-38.5 0.5q-60 0 -108 -7l-232 -591q-20 -55 -20 -62q0 -9 8 -14q6 -4 21 -4q37 0 85.5 3t75.5 3q12 0 18.5 -3.5t7.5 -6.5t1 -9q0 -20 -39 -20q-65 0 -114 2t-162 2q-31 0 -151 -2t-150 -2q-27 0 -27 16z" />
<glyph unicode="G" horiz-adv-x="1382" d="M119 371q0 114 37 239q86 291 338 537q309 299 643 299q76 0 123.5 -18.5t97.5 -57.5q4 -3 11 -9t11 -9q36 -27 60 -27q14 0 26 6t23 21q2 3 8 11t9 10.5t7 2.5q13 0 13 -12q0 -7 -3.5 -14t-14 -25.5t-21.5 -42.5q-9 -23 -27.5 -67t-29.5 -72q-39 -98 -58 -133 q-1 -1 -2.5 -3.5t-2 -3.5t-2.5 -3t-4 -2.5t-5 -0.5q-6 0 -11.5 5.5t-5.5 13.5q0 4 3.5 15.5t5.5 21.5q24 94 24 145q0 55 -26 100q-28 45 -81.5 76t-129.5 31q-141 0 -290.5 -103.5t-258.5 -265.5q-121 -176 -195 -405q-51 -155 -51 -295q0 -22 1 -42.5t7.5 -56t17.5 -64.5 t32.5 -62t51 -55t76 -37t103.5 -15q100 0 177 45.5t118 130.5q15 33 36 102t21 93q0 18 -12 28q-11 11 -62 11q-11 0 -34.5 -1t-36.5 -1q-31 0 -31 18q0 21 29 21q24 0 77 -3.5t187 -3.5q20 0 123 2.5t127 2.5q38 0 38 -23q0 -7 -4 -11.5t-12 -6t-14.5 -1.5t-18.5 0.5 t-16 0.5h-68q-46 0 -61 -11q-19 -19 -31 -65l-33 -113q-6 -21 -12.5 -32t-34 -36t-82.5 -61q-65 -46 -133 -72q-111 -45 -270 -45q-229 0 -346 99q-36 29 -64 71q-67 100 -67 228z" />
<glyph unicode="H" horiz-adv-x="1423" d="M-117 16q0 9 6.5 16t20.5 7q4 0 11 -1t11 -1h5h43q82 0 102 20q9 9 18 31l60 129l415 1036q2 6 7.5 18.5t7.5 18.5q18 45 18 62q0 25 -33 30q-49 7 -67 7h-47q-45 0 -45 18q0 16 22 16l475 -4q10 0 25 1t45 1q29 0 29 -18q0 -6 -4 -14q-9 -11 -37 -11q-7 0 -22.5 1 t-22.5 1q-20 2 -62 2q-31 0 -47 -16q-11 -11 -57 -129l-156 -399q-26 -67 -26 -72q0 -21 54 -21h5h6h449q17 0 25 12.5t36 82.5l162 395q7 14 22 57.5t15 59.5q0 20 -21 24q-27 6 -69 6h-54q-30 0 -43 13q-4 4 -4 10q0 14 25 14l411 -2h45q11 0 32.5 1t33.5 1h25q14 0 20 -2 q14 -3 14 -14q0 -7 -7 -13t-21 -6q-4 0 -13.5 1t-13.5 1h-6h-45q-60 0 -86 -16q-7 -5 -13 -11t-12.5 -16.5t-10.5 -18t-11 -24.5t-11 -26.5t-13.5 -34t-14.5 -37.5l-391 -1016q-41 -104 -41 -116q0 -28 49 -35q38 -6 125 -6q33 0 33 -15q0 -18 -47 -18q-60 0 -236.5 2 t-208.5 2q-47 0 -70 -2q-5 0 -14 -1t-14 -1q-27 0 -27 18q0 21 37 21q9 0 26.5 -1t26.5 -1q90 0 103 10q12 9 22 39l207 539q18 45 18 51q0 28 -57 28h-455q-16 0 -22 -5.5t-16 -32.5l-195 -496q-33 -79 -33 -98q0 -21 23.5 -30t54.5 -7l111 4q8 0 11 -3.5t3 -15.5 q0 -8 -4 -12q-6 -6 -31 -6q-144 0 -241 3t-109 3q-39 0 -117 -4q-58 -4 -88 -4q-39 0 -39 20z" />
<glyph unicode="I" horiz-adv-x="669" d="M-106 12q0 5 1 7.5t7 5t18 2.5h29h17.5h18t15.5 0.5t17 1.5t15 2.5t16 4t14 6.5t16 9q6 4 11 8t7.5 6.5t5.5 7.5t4 6.5t3.5 8t3.5 8.5l473 1188q22 55 22 72q0 13 -14 24t-49 11h-82q-8 0 -12 2q-11 5 -11 14q0 14 27 14q12 0 35.5 -1t36.5 -1h10h352q23 0 40 1t28 1 q30 0 30 -16q0 -6 -6.5 -12.5t-19.5 -6.5q-4 0 -11.5 1.5t-11.5 1.5h-6h-53q-30 0 -48.5 -8t-35.5 -35q-27 -47 -55 -115l-441 -1125q-10 -20 -10 -34q0 -10 9.5 -21t31.5 -16q28 -7 60 -7t57 -5q4 0 9 -4t5 -9q0 -14 -29 -14l-493 2q-38 0 -47.5 2t-9.5 12z" />
<glyph unicode="J" horiz-adv-x="790" d="M-129 -33q0 39 21.5 66.5t70.5 27.5q80 0 80 -75q0 -27 -11.5 -45t-43.5 -29q-15 -5 -15 -18q0 -11 18 -22t50 -11q55 0 102 47q34 34 63.5 90.5t72.5 165.5l442 1110q2 4 5 13t5 13q14 37 14 41q0 14 -6 23q-15 22 -80 22q-13 0 -38.5 -1t-40.5 -1q-11 0 -15 2 q-8 4 -8 13q0 8 2 10q6 10 31 10q9 0 27.5 -1t27.5 -1q6 0 19.5 1t19.5 1q27 2 80 2q26 0 80 -1t80 -1q14 0 40.5 1t39.5 1q9 0 26.5 1t26.5 1t28 1t29 1q15 0 21 -2q14 -5 14 -18q0 -19 -39 -19q-8 0 -25.5 -1t-25.5 -1q-72 -5 -96 -22q-25 -18 -101 -201l-254 -651 q-107 -273 -194 -404q-41 -62 -98 -122.5t-109 -94.5q-92 -61 -182 -61q-71 0 -112.5 42t-41.5 97z" />
<glyph unicode="K" horiz-adv-x="1271" d="M-111 14q0 21 31 21q26 0 39.5 -2t32.5 -2q68 0 90 22q20 20 55 109l447 1122q3 7 8 21.5t8 21.5q6 18 6 21q0 28 -31 34q-19 6 -56 6.5t-56 2.5q-35 3 -35 16q0 4 2 6q8 10 39 9q42 0 116.5 -0.5t110.5 -0.5q40 0 123 1t125 0q41 0 41 -13q0 -8 -3 -12.5t-10.5 -6 t-13 -2t-17.5 0t-17 0.5q-17 0 -35 -3q-30 -5 -55 -10q-30 -7 -41 -41l-175 -467q-4 -12 -8.5 -21.5t-6 -14t-1.5 -7.5q0 -14 10 -14q6 0 47 31q16 12 69 48t85 62l250 201q108 87 172 152q25 25 25 47q0 34 -70 34q-12 0 -37 -1t-37 -1q-17 0 -22 7q-2 2 -2 8q0 24 45 23 q59 0 149 -3h74h176q41 0 41 -18q0 -7 -5 -11.5t-16.5 -6t-17.5 -1.5h-22q-52 0 -93 -18q-50 -21 -172 -119q-64 -52 -126 -106t-164 -135q-28 -22 -57 -43t-42 -31q-77 -55 -84 -66q-4 -5 -4 -10q0 -6 4 -14q0 -7 2 -11l236 -729q13 -42 34.5 -53.5t71.5 -11.5q14 0 39 1 t39 1q19 0 25 -8q2 -2 2 -9q0 -10 -13 -16q-16 -8 -53 -8q-19 0 -54 1t-54 1t-58 1t-59 1q-36 0 -106.5 -1t-106.5 -1q-57 0 -57 18q0 8 4 13t13 6.5t16.5 1.5t19.5 -1t18 -1h31q23 0 36 11.5t13 27.5q0 12 -16 61l-168 555q-1 3 -4 12.5t-5 15.5t-5 15.5t-6 15.5t-7 12.5 t-8 9.5t-8 3q-7 0 -13 -9.5t-12.5 -28t-7.5 -21.5l-213 -543q-33 -85 -33 -94q0 -45 76 -45q14 0 41 1t43 1q35 0 35 -17q0 -6 -4 -10q-8 -8 -35 -8q-23 0 -68 1t-67 1q-27 0 -191 -3t-213 -3q-39 0 -39 18z" />
<glyph unicode="L" horiz-adv-x="1177" d="M-123 12q0 19 41 19q94 0 135 6q21 4 29 10q11 11 22 41l496 1204q21 56 21 70q0 13 -15 22t-37 9q-16 2 -47 2q-19 0 -38.5 -2t-22.5 -2q-11 0 -16 6t-5 12q0 4 2 6q7 12 54 12q28 0 84 -1t84 -1q168 -4 254 -4q38 0 53.5 2t25.5 2q23 0 23 -20q0 -19 -25 -19 q-3 0 -10 1.5t-10 1.5q-12 2 -39 2q-78 0 -98 -13q-19 -11 -47 -86l-455 -1145q-31 -76 -31 -77q0 -33 115 -33q10 -1 58 -1h40h24q16 0 56 2t64 5t57 9t63 14q78 23 137.5 70t118.5 159q38 73 54 115q3 12 16 12q18 0 18 -19q0 -49 -75 -223q-6 -15 -19.5 -45.5 t-19.5 -46.5q-4 -10 -12.5 -30.5t-12.5 -30.5q-5 -11 -8.5 -15.5t-13 -8t-27.5 -3.5q-205 0 -307 2q-19 0 -59.5 1t-61.5 1t-63 -1t-62 -1h-35h-164q-32 0 -72 2q-24 1 -46 0h-27q-67 -2 -89.5 -5t-47.5 -3q-27 0 -27 16z" />
<glyph unicode="M" horiz-adv-x="1589" d="M-106 12q0 9 9.5 16t22.5 7q3 0 10.5 -1t10.5 -1q23 -2 67 -2h17h17.5t14.5 1t15 3.5t12 7t13.5 11.5t11.5 16q10 16 47 118l411 1106q2 6 6.5 18.5t6.5 18.5q4 12 4 19q0 15 -11.5 23t-23.5 9.5t-31 1.5q-18 0 -54 -2t-56 -2q-11 0 -15 2q-8 4 -8 17q0 24 29 24 q8 0 23 -1.5t58 -3.5t120 -1h102q4 0 35 1t63 1q8 0 11.5 -1t5.5 -5t2 -14q0 -12 -1 -31t-1 -29v-14l-50 -975l715 1067l389 2q25 0 25 -16q0 -23 -31 -23q-22 0 -24.5 2t-22.5 2h-72q-13 0 -18 -0.5t-13 -5.5t-16 -16q-14 -21 -30 -64l-453 -1183q-20 -53 -20 -56 q0 -26 51 -26l78 -2q5 0 15.5 1t14.5 1q17 0 17 -10q0 -9 -8.5 -17t-26.5 -8q-5 0 -24 2t-29 2l-439 -4q-20 0 -20 16q0 9 8 13.5t35 5.5q102 3 119 18q10 10 43 94l442 1112l39 105l-53 -76l-795 -1175q-66 -99 -80 -99q-7 0 -14 7.5t-6 25.5l61 1167q3 41 3 62v10 q-1 21 -9 35l-418 -1129l-39 -114q-2 -4 -2 -15q0 -13 6.5 -19t30.5 -9q14 -2 45 -2q12 0 37 1t39 1t14 -13q0 -22 -26 -22q-7 0 -20 1t-19 1h-19q-41 0 -65 1t-45 1h-138q-48 0 -73 -2q-5 0 -15.5 -1t-15.5 -1q-22 0 -22 14z" />
<glyph unicode="N" horiz-adv-x="1404" d="M-96 14q0 21 61 23q12 1 29 1.5t25.5 1t21 1t19 1t15 1t13 1.5t10 2t9 2t6.5 3q26 13 53 88l436 1207q8 16 8 18q0 18 -67 18q-22 0 -66.5 -1t-68.5 -1q-46 0 -46 23q0 24 44 24q8 0 35 -1.5t61 -2.5q63 -2 190 -2q94 0 137 4l283 -1095l358 975q3 7 9 29t6 30 q0 18 -37 18q-72 0 -94 -2t-41 -2q-37 0 -37 19q0 8 2 10q8 14 43 14q17 0 47 -1t45 -1q43 -2 131 -2q28 0 86 1t86 1q21 0 29 -3.5t8 -14.5q0 -23 -41 -23q-19 0 -53 1t-51 1q-44 0 -60 -18q-9 -11 -26 -59l-455 -1229q-21 -63 -45 -82q-8 -4 -10 -4q-15 0 -27 39 q-1 2 -2 7t-2 7l-324 1305l-432 -1199q-24 -66 -24 -86q0 -8 2 -12q8 -14 55 -14q16 0 47 1t47 1h7q19 0 28 -0.5t17 -5.5t8 -15q0 -20 -37 -20q-9 0 -26.5 1t-26.5 1q-98 4 -146 4q-18 0 -52 -1t-52 -1q-20 0 -62 -1t-63 -1q-43 0 -43 16z" />
<glyph unicode="O" horiz-adv-x="1454" d="M137 403q0 214 109 430t284 373q268 238 553 238q68 0 136 -19q108 -33 186 -131q108 -141 108 -333q0 -129 -38 -256q-33 -108 -94.5 -212t-129.5 -180q-63 -69 -153.5 -139t-169.5 -111q-171 -90 -357 -90q-204 0 -319 114.5t-115 315.5zM336 289q0 -184 110 -252 q56 -35 148 -35q105 0 197 53q46 25 104 76q102 89 177 203.5t138 277.5q109 286 109 478q0 78 -23 153q-7 22 -22 55q-62 117 -201 117q-63 0 -131.5 -26.5t-120.5 -65.5q-112 -81 -239 -279q-107 -169 -176.5 -380.5t-69.5 -374.5z" />
<glyph unicode="P" horiz-adv-x="1161" d="M-111 14q0 8 8 14.5t19 6.5q4 0 11.5 -1t11.5 -1l106 -2q25 0 33 6q10 5 18 24l58 134l464 1189q-14 2 -33 2t-42 -2q-59 -6 -68 -6q-35 0 -45 13q-4 4 -4 10q0 9 14 14q8 4 27 4q13 0 37 -1t37 -1q8 0 24.5 1t24.5 1q35 2 104 2q263 0 383 -24q83 -17 140.5 -49.5 t85 -74.5t38.5 -79.5t11 -77.5q0 -48 -14 -97t-45.5 -103t-91 -104.5t-140.5 -86.5q-150 -68 -328 -68q-65 0 -198 17l-240 -623q-4 -10 3 -16t19 -6l158 2q7 0 14 -5.5t7 -11.5q0 -18 -41 -18q-84 0 -93 2t-98 2h-121q-19 0 -56 1t-56 1q-46 0 -69 -3t-44 -3q-29 0 -29 18z M553 715q77 -21 156 -21q159 0 286 119q61 57 106.5 142.5t45.5 195.5q0 80 -31 131q-25 45 -72 68q-59 30 -165 30q-25 0 -37 -2q-11 0 -27 -4z" />
<glyph unicode="Q" horiz-adv-x="1456" d="M135 391q0 136 37 260q71 247 252 449q142 159 312.5 250.5t336.5 91.5q144 0 248 -68q20 -14 39.5 -30.5t49 -53.5t50.5 -81t37 -113t16 -148q0 -193 -100 -395q-87 -172 -235 -311q-231 -219 -533 -273q-29 -68 -29 -141q0 -72 33 -125q64 -104 207 -104q43 0 76 8 q22 4 29 8q23 10 32 10q8 0 12.5 -5t4.5 -11q0 -8 -24 -21t-78.5 -25t-119.5 -12q-163 0 -276 76q-121 83 -121 234q0 40 10 92q3 20 9 37q-275 110 -275 401zM332 270q0 -22 2 -42.5t9 -55t24 -63t43 -55.5t70.5 -42.5t101.5 -15.5q36 0 72.5 6.5t92 29.5t108 61.5 t115.5 109.5t120 166q99 166 164 365.5t65 355.5q0 166 -72 243.5t-182 77.5q-127 0 -260.5 -106t-253.5 -314q-95 -166 -157 -366t-62 -355z" />
<glyph unicode="R" horiz-adv-x="1214" d="M-90 12q0 16 28.5 17.5t71.5 2.5t66 15q4 2 10 7.5t17.5 21.5t19.5 37l471 1202q8 18 8 31q0 24 -28 32t-58 4.5t-49 3.5q-10 3 -10 13q0 18 53 18q30 0 156 -3t221 -3h26h29.5t27.5 -0.5t31 -1.5t29 -3t32.5 -5t30 -7t32.5 -9.5t30 -12.5q80 -38 116 -102t36 -131 q0 -100 -73 -193.5t-214 -144.5q-52 -18 -86 -25q-110 -22 -229 -22q12 -3 33.5 -9.5t33.5 -9.5q38 -11 62 -19.5t57.5 -29t52.5 -45.5q41 -57 41 -197q0 -41 -2 -61l-14 -180q-1 -8 -2 -25.5t-2 -25.5q-2 -18 -2 -56q0 -88 49 -88q7 0 18 5t14 10q6 8 4 19.5t5 29.5 q14 34 49 34q28 0 28 -30q0 -26 -16 -45q-41 -56 -137 -56q-68 0 -115 27q-90 52 -90 186q0 24 4 74q1 7 2 22.5t2 22.5l19 158q8 108 8 110q0 110 -88 140q-46 14 -160 18l-256 -647q-6 -15 -6 -18q0 -34 86 -41q12 -2 37 -2q4 0 12 1t12 1q21 0 21 -11q0 -2 -1 -5.5 t-13 -9t-35 -5.5q-151 0 -199.5 3t-120.5 3q-53 0 -94.5 -3t-60.5 -3q-31 0 -31 16zM575 772q29 -2 57 -2q109 0 202 31q47 16 100 45q176 103 176 307q0 76 -30.5 133t-75.5 78q-36 16 -146 16q-26 0 -34 -6q-10 -9 -27 -41q-10 -18 -21 -43z" />
<glyph unicode="S" horiz-adv-x="960" d="M-63 -8q0 6 2.5 13t12 28t19.5 47l105 285q2 4 4.5 12.5t4.5 13.5t6 11t10 9t14 3q7 0 11.5 -5.5t4.5 -11.5q0 -4 -5.5 -15.5t-8.5 -23.5q-8 -27 -8 -79q0 -142 86 -207q75 -58 194 -58q152 0 244 84q32 28 55 72q35 63 35 149q0 60 -31.5 136t-109.5 149l-115 107 q-123 114 -160 225q-14 43 -14 94q0 78 37.5 158t111.5 141q133 109 308 109q36 0 73 -6q66 -10 131 -37q6 -3 19.5 -8.5t19.5 -8.5q23 -10 43 -10q40 0 74 53q10 21 23 21q12 0 12 -17q0 -11 -4.5 -22t-15 -30t-17.5 -34q-49 -110 -70 -225q-4 -26 -18 -31q-1 0 -4 -1 t-4 -1q-15 0 -15 15q0 18 2 28q5 40 5 52q0 71 -33 129q-27 43 -82.5 70.5t-130.5 27.5q-54 0 -109 -19q-56 -19 -96 -51q-44 -37 -67 -86.5t-23 -99.5q0 -115 145 -260l123 -123q79 -79 121.5 -156t42.5 -170q0 -83 -32.5 -166.5t-100.5 -150.5q-60 -57 -139 -96 q-113 -52 -230 -52q-126 0 -200 45q-7 4 -80 56q-31 26 -58 26q-46 0 -78 -98q-1 -2 -2 -6t-2 -6q-6 -19 -18 -19q-6 0 -8 2q-10 7 -10 19z" />
<glyph unicode="T" horiz-adv-x="1167" d="M119 10q0 7 13.5 15t25.5 8q3 0 10 -1t10 -1h4h33q53 0 76 16q30 20 53 76l498 1255h-82q-112 0 -183 -20t-131 -76q-41 -38 -79 -100q-5 -8 -14.5 -24.5t-14.5 -24.5q-20 -36 -31 -58q-1 -1 -3 -5t-3.5 -6t-4 -6t-5 -6.5l-5 -5t-6 -3.5t-6.5 -1q-18 0 -4 33l154 344 q246 -4 487 -4q295 0 582 6q-61 -179 -61 -180q-18 -56 -31 -101.5t-23 -78.5q-3 -9 -5 -13.5t-7.5 -9t-13.5 -4.5q-17 0 -17 23q0 4 4 16q8 25 15 55q16 70 16 109q0 70 -37 102q-18 18 -51 29q-41 13 -126 13q-53 0 -122 -5l-506 -1261q-12 -30 -12 -37q0 -45 131 -45 q13 0 17 -6q2 -2 2 -9q0 -20 -41 -20t-123 4q-45 2 -135 2q-72 0 -114 -4t-106 -4q-28 0 -28 14z" />
<glyph unicode="U" horiz-adv-x="1325" d="M174 223q0 115 100 363l265 649q10 24 19.5 46t14 31t7 17t2.5 14q0 14 -16.5 26.5t-41.5 12.5h-55q-20 0 -20 13q0 6 2 8q6 10 36 10q28 0 84 -1t82 -1q43 0 134 1t145 1q22 0 22 -16q0 -7 -4 -10.5t-12 -5t-18.5 -1.5t-23.5 0.5t-28 -0.5q-48 0 -65 -10 q-8 -4 -18 -17.5t-13 -23.5l-303 -764q-34 -85 -68 -199t-34 -176q0 -79 55 -127q54 -49 149 -49q72 0 144 25t127 65q100 72 176 215q27 51 73 151t66 151l242 620q31 78 31 98q0 45 -76 45q-15 0 -28.5 -1t-18.5 -1q-21 0 -21 15q0 16 37 16q36 0 108.5 -1t108.5 -1 q20 0 60 1t61 1q31 0 31 -12q0 -19 -41 -19q-10 0 -30 1t-30 1q-55 0 -73 -16q-6 -6 -12 -16t-9.5 -18.5t-9 -25t-8.5 -22.5l-236 -594q-129 -323 -221 -463q-87 -134 -203 -194q-119 -64 -287 -64q-147 0 -245 58q-113 68 -113 194z" />
<glyph unicode="V" horiz-adv-x="1183" d="M285 1399q0 18 51 18q35 0 105.5 -3t148.5 -3q38 0 133 2t170 2q27 0 27 -12q0 -10 -11 -14q-10 -5 -22 -7.5t-23 -3t-35 -1t-43 -1.5h-32.5t-39.5 -0.5t-31.5 -6t-23.5 -17.5q-6 -11 -10 -72l-65 -940l616 827q32 42 68.5 99t36.5 77q0 18 -15 27q-18 12 -103 12h-26 q-18 0 -18 15q0 3 1.5 5t5 4t7 3t10 1.5t12 0.5h14.5h16h18.5h19.5h238q11 0 29.5 1t29.5 1t22.5 -1t17 -6t5.5 -13q0 -11 -37 -11q-5 0 -15 -1t-15 -1q-59 -4 -92 -16t-56 -37q-6 -6 -114 -151l-695 -943q-22 -30 -62.5 -89t-45.5 -66q-21 -30 -41 -60q-11 -15 -19 -27.5 t-10 -15t-4 -2.5q-8 0 -8 23q0 5 1 14t1 13q4 28 4 40l61 1156q4 40 4 114q0 23 -7.5 31.5t-26.5 11.5q-6 1 -17.5 3t-17.5 3q-20 2 -64 2q-28 0 -28 15z" />
<glyph unicode="W" horiz-adv-x="1773" d="M260 1399q0 18 49 18q40 0 120 -3t120 -3t118.5 3t118.5 3q27 0 27 -12q0 -8 -6.5 -13t-19.5 -7t-24.5 -3t-29 -2t-26.5 -2q-98 -7 -101 -39l-43 -1065l406 531l6 463q0 4 0.5 21t0 24t-1.5 19t-4.5 20t-8.5 14q-18 18 -82 18h-23q-20 0 -20 15q0 11 10 14q10 4 35 4 q55 0 93 -0.5t51.5 -1.5t22.5 -1.5t13 -0.5l420 -4q32 0 59 2q81 6 90 6q39 0 39 -14q0 -8 -18 -14q-15 -3 -47.5 -5.5t-51.5 -5.5q-13 -2 -25.5 -5.5t-22 -7t-20 -10t-16.5 -10t-16 -13t-13.5 -13t-13 -15t-12 -14.5t-12.5 -17t-12 -16l-228 -313l-18 -663l708 983 q3 4 13 17t15.5 21t13 19t11 19t3.5 14q0 30 -54 30q-5 0 -15 -1t-15 -1q-12 -2 -35 -2q-37 0 -37 17q0 7 5 11t15 5.5t18.5 1.5t20.5 -1t17 -1h168h18q14 0 40 -1t38 -1q9 0 28 1t29 1q21 0 21 -10q0 -9 -13.5 -14t-27.5 -5q-8 -1 -35 -2.5t-37.5 -2.5t-27.5 -6t-29 -13 q-25 -17 -82 -94l-866 -1190q-5 -7 -16.5 -21.5t-16.5 -21.5q-31 -43 -49 -43q-15 0 -15 22q0 5 1 15.5t1 15.5v23l17 663l-537 -702q-37 -43 -49 -43q-14 0 -14 22q0 9 1 24t1 23v21l43 1233q0 44 -17 59q-3 3 -7 4.5t-10 3t-10.5 2.5t-13.5 2t-14.5 1.5t-18 1t-20.5 1.5 q-4 0 -12.5 0.5t-13 1t-10.5 2t-8.5 5t-2.5 8.5zM1155 1016l219 307q2 2 8.5 9t10.5 12.5t4 9.5t-15 14q-28 14 -96 14q-55 0 -83.5 -9.5t-34 -20t-4.5 -27.5z" />
<glyph unicode="X" horiz-adv-x="1277" d="M-156 12q0 21 43 21q72 3 100 10.5t64 32.5q73 52 139 121l502 526l-69 524q-10 84 -37 111q-24 24 -84 24h-33h-4q-5 0 -16 -1t-17 -1q-22 0 -22 13q0 22 49 22t147 -4q43 -2 129 -2q67 0 185 4q16 0 49 1t53 1q25 0 25 -12q0 -25 -58 -25h-59q-73 0 -101 -20 q-17 -13 -20 -40t2 -56l45 -404l422 412q72 72 72 84q0 11 -21.5 19.5t-56.5 8.5h-43q-31 0 -31 15q0 18 35 18q9 0 58 -3t120 -3q113 0 168 4q8 0 23.5 1t23.5 1q25 0 25 -12t-21 -17q-20 -4 -65 -4q-91 0 -164 -61q-17 -15 -33 -30.5t-33.5 -34.5t-27.5 -29l-437 -424 l64 -565q8 -79 29 -140q7 -21 18 -35t19.5 -20.5t27 -10t26 -3.5h31.5h58q24 0 24 -13q0 -20 -41 -20q-5 0 -15 1t-15 1q-78 4 -232 4q-143 0 -215 -2q-21 0 -62 -1t-61 -1q-28 0 -34 8q-3 3 -3 8q0 3 2 5.5t6 4.5t8 3.5t11 2t12.5 1t14 0.5h14h14.5h13h86q14 0 22.5 1 t21.5 5.5t20.5 16t10.5 30.5q2 17 2 49v23q-1 50 -4 73l-45 428l-465 -489q-81 -85 -81 -109q0 -11 7.5 -18t22.5 -9t27 -2.5t33 0.5t28 1h39q17 0 17 -11q0 -24 -60 -24q-44 0 -94.5 4t-120.5 4q-68 0 -88.5 -4t-91.5 -4q-27 0 -27 16z" />
<glyph unicode="Y" horiz-adv-x="1112" d="M82 10q0 8 4 12.5t15.5 6.5t22.5 2.5t34.5 1.5t42.5 2q59 5 82 22q14 11 25.5 29.5t17 32.5t16.5 43l141 368q3 7 9.5 24t9.5 25.5t7 22t5.5 25.5t1.5 26q0 6 -0.5 15t-2 33t-3.5 51l-43 561q-4 42 -21 57q-7 5 -15 8t-20.5 4.5t-22 2t-28.5 1t-30 0.5q-31 0 -31 17 q0 6 7.5 11t23.5 5q4 0 11 -1t11 -1h6l242 -4q57 -1 98 -1q61 0 88 2q43 3 62 3q35 0 35 -14q0 -5 -5 -8.5t-14 -5.5t-16.5 -2.5t-18.5 -1.5t-14 -1q-11 -1 -33 -2t-32.5 -2t-25.5 -3t-25.5 -6t-18.5 -11q-24 -17 -24 -68q0 -10 1 -20l50 -574l487 582q49 59 49 74 q0 7 -3.5 12t-11 8t-14.5 5t-17.5 2.5t-16.5 0.5h-16h-11q-70 0 -70 17q0 7 4.5 11t14 5.5t15 2t18.5 0t14 -0.5q186 0 342 -4q22 0 22 -12q0 -15 -24 -15q-33 0 -90 -10q-69 -13 -127 -82l-465 -555q-6 -7 -20 -22.5t-23.5 -26.5t-22.5 -27.5t-22 -31.5q-33 -55 -60 -127 l-155 -406q-8 -20 -8 -24q0 -39 71 -43q10 0 27.5 -0.5t27.5 -1t21 -1.5t16 -4.5t5 -9.5t-7 -10q-8 -6 -30 -6t-148 4q-94 4 -141 4q-42 0 -115.5 -5t-120.5 -5h-3q-17 0 -17 14z" />
<glyph unicode="Z" horiz-adv-x="1167" d="M-55 8q0 2 0.5 4.5t2.5 5.5t4 5.5t6.5 7l8.5 8.5t11.5 11t14 13t17.5 16t21 19q68 64 354 379l791 881q-32 4 -84 8q-110 8 -162 8q-81 0 -144 -8q-97 -14 -157 -51q-26 -16 -51 -39.5t-40 -42t-36 -53.5t-27.5 -47.5t-25.5 -49.5q-22 -43 -41 -43q-4 0 -9.5 5t-5.5 16 q0 10 6 25t17.5 36.5t15.5 30.5l49 102q8 15 33 71t47 97q200 -12 303 -12h353h36q6 1 66 4q38 2 68.5 2t52.5 -2l-4 -4q-3 -3 -10 -13t-15 -20q-23 -29 -44 -50l-21 -21l-1043 -1174q-7 -7 -72 -88q123 -8 301 -8q52 0 85 1.5t79 9.5t80 23t73.5 43t74.5 68q21 24 41 54 q5 7 22.5 33t26.5 42q8 14 24.5 43.5t24.5 44.5q15 26 20 29q2 2 9 2q8 0 12 -8q2 -2 2 -8q0 -4 -10 -33q-62 -162 -166 -385q-102 4 -158 4h-678h-22h-43q-25 0 -39 -2t-23 -2q-22 0 -22 12z" />
<glyph unicode="[" horiz-adv-x="663" d="M-45 -274q0 12 4 20l594 1657q11 33 22 41q9 6 39 6h306q43 0 43 -10q0 -15 -4 -23t-7.5 -9t-9.5 -1h-16h-191h-2.5h-2.5h-3t-3.5 -0.5t-3.5 -1.5t-3.5 -2.5l-3.5 -3.5t-3.5 -5.5t-2.5 -7.5l-557 -1560q-5 -14 -10.5 -26.5t-8 -18.5t-2.5 -10q0 -21 39 -21h176q4 0 8 -5 t4 -9v-17q0 -14 -22 -14h-326q-41 0 -49 9q-4 5 -4 12z" />
<glyph unicode="\" horiz-adv-x="1173" d="M338 1386q0 16 18 29q21 17 45 17q6 0 10 -2t8 -8t5.5 -9t5 -12.5t4.5 -11.5l621 -1348q12 -24 12 -31q0 -12 -18 -26q-23 -19 -48 -19q-10 0 -14 5t-12 26l-621 1352q-16 32 -16 38z" />
<glyph unicode="]" horiz-adv-x="1351" d="M193 -281l2 25q0 5 2 6q3 2 18 2h207q2 0 7 -0.5t6 0t4.5 2t5.5 4.5t4.5 8.5t5.5 14.5l563 1558q16 47 16 54q0 8 -4 12t-22 4h-162h-9.5h-7.5h-5.5t-5 0.5t-3.5 2t-2.5 3l-1.5 4.5t-1.5 6.5t-0.5 8.5q0 12 5.5 15t33.5 3h313q45 0 45 -18q0 -15 -14 -54l-580 -1616 q-14 -41 -26 -49q-8 -6 -31 -6h-18h-332q-12 0 -12 10z" />
<glyph unicode="^" horiz-adv-x="1073" d="M270 672q0 18 29 51q189 214 348 569q50 110 65 133t38 23q19 0 27 -12.5t27 -70.5q14 -44 25 -75q114 -335 279 -624h-203q-148 223 -239 530q-79 -182 -215 -371q-123 -172 -160 -172q-6 0 -13.5 5t-7.5 14z" />
<glyph unicode="_" d="M-188 -186h964v-93h-964v93z" />
<glyph unicode="`" d="M563 1382h178l47 -303q1 -8 4 -18t3 -14q0 -7 -4 -12t-9 -5t-8 3.5t-7 11.5l-5 10z" />
<glyph unicode="a" horiz-adv-x="997" d="M16 219q0 74 35 163.5t94 172.5q64 90 156 172q89 79 167 117.5t157 38.5q59 0 102 -23q63 -38 70 -125l51 109q2 5 5.5 13.5t5.5 11t6.5 5.5t11.5 3q3 0 11 -2t13 -3q20 -4 33 -4q42 0 65 13q1 0 4 1.5t5.5 2.5t6 1t6 -1t4 -4.5t1.5 -8.5q0 -4 -16 -43l-271 -614 q-15 -34 -22 -57q-17 -49 -17 -76q0 -55 54 -55t104 45q30 27 55 63q14 18 19 21q2 2 6 2q8 0 8 -8q0 -22 -45 -72q-87 -96 -211 -96q-73 0 -110 33t-37 79q0 11 3 27l3 16q5 22 8 27q-48 -74 -111 -125q-81 -66 -190 -66q-85 0 -150 50q-90 69 -90 196zM197 162 q0 -51 14 -80q26 -59 98 -59q31 0 72 18q30 15 55 37q89 74 146 196l159 344q27 57 27 89q0 31 -18 67q-34 66 -121 66q-80 0 -148 -68q-24 -24 -45 -51q-53 -67 -95.5 -141.5t-57.5 -108.5q-86 -176 -86 -309z" />
<glyph unicode="b" horiz-adv-x="956" d="M27 172q0 48 59 184l434 992q7 15 14 28t10 18.5t3 8.5t-3 7t-16.5 8.5t-35.5 4.5q-8 0 -26 -1t-26 -1q-22 0 -22 13q0 14 43 14q19 0 102.5 1t98.5 1q17 1 23 2.5t22 1.5q26 0 26 -12q0 -5 -3 -11.5t-9.5 -17.5t-11.5 -22q-5 -12 -12.5 -26.5t-12.5 -25.5l-195 -477 q-20 -50 -24 -57t-12.5 -22.5t-12.5 -22.5l-6 -12l74 67q45 42 125 59q45 9 63 9q63 0 121 -30.5t92 -86.5q37 -64 37 -143q0 -119 -69.5 -249.5t-184.5 -228.5q-96 -83 -201 -127.5t-196 -44.5q-123 0 -195.5 60.5t-72.5 138.5zM180 86q0 -82 109 -82q55 0 117 27 q69 33 138.5 114.5t106.5 167.5q43 75 74 158q55 144 55 234q0 141 -106 141q-120 0 -228 -144q-81 -108 -145 -264l-94 -233q-8 -22 -17.5 -61.5t-9.5 -57.5z" />
<glyph unicode="c" horiz-adv-x="729" d="M33 254q0 63 22 131q54 163 207 309q96 95 197.5 141t189.5 46q82 0 127 -44t45 -108q0 -48 -25 -74t-59 -26q-29 0 -51 20.5t-22 48.5q0 19 12.5 34.5t42.5 15.5q12 0 22 -5q12 -6 17 -6q12 0 16 13q2 4 2 10q0 26 -26 49q-41 35 -103 35q-31 0 -82 -19 q-113 -50 -211 -207q-14 -22 -32 -55.5t-47 -96t-47.5 -138t-18.5 -144.5q0 -59 18 -96q36 -74 140 -74q22 0 32 2q40 6 72 23q65 33 129 117q24 24 33 24q10 0 10 -12q0 -23 -46 -69.5t-91 -75.5q-81 -50 -180 -50q-91 0 -162 39q-131 77 -131 242z" />
<glyph unicode="d" horiz-adv-x="1038" d="M27 238q0 103 57.5 223.5t171.5 230.5q101 96 207.5 145.5t191.5 49.5q77 0 119 -39q33 -26 51 -86q17 28 27 55l233 555q9 27 9 29q0 6 -3 9.5t-10 5t-12.5 2t-17 1t-17.5 0.5q-57 2 -63 8q-4 4 -4 9t10 10q6 2 22 2q9 0 85 -2t100 -2q55 0 72.5 6t23.5 6q12 0 12 -12 q0 -4 -3 -9.5t-10.5 -19.5t-14.5 -33l-467 -1132q-8 -21 -21.5 -52.5t-18.5 -44t-9.5 -29.5t-4.5 -30q0 -31 19 -46t47 -15q38 0 84 27t84 81q4 5 7.5 11.5t5.5 9.5t4.5 6.5t6.5 5.5q2 2 7 2t9.5 -5t4.5 -11q0 -14 -22 -45t-48 -54q-85 -77 -204 -77q-83 0 -119.5 42.5 t-36.5 102.5q0 29 4 45q-54 -82 -117 -133q-85 -68 -192 -68q-117 0 -188.5 72.5t-71.5 192.5zM201 182q0 -41 12 -71t27.5 -44.5t37 -22.5t33.5 -9.5t25 -1.5q44 0 84 18q74 34 149 148q41 67 43 71q61 110 99 201l47 121q41 100 41 129q0 22 -12.5 45.5t-28.5 38.5 q-43 37 -99 37q-150 0 -309 -254q-68 -107 -108.5 -216t-40.5 -190z" />
<glyph unicode="e" horiz-adv-x="778" d="M29 250q0 42 11 87.5t36.5 103t77.5 123t125 128.5q216 189 401 189q86 0 128 -40t42 -100q0 -94 -88 -161q-49 -37 -107 -58q-76 -27 -143 -33q-54 -4 -82 -4q-74 0 -145 11q-31 -61 -47 -111q-29 -91 -29 -180q0 -20 1.5 -37.5t10.5 -46.5t25 -49.5t47.5 -36 t75.5 -15.5q11 0 21.5 0.5t21 3t17.5 4t17.5 5.5t15 5.5t15.5 7l13 6.5t14 8l12 6q31 18 48.5 33t49.5 53q22 28 35 28q10 0 10 -12q0 -20 -32 -55t-64 -60q-103 -80 -227 -80q-132 0 -219.5 76.5t-87.5 200.5zM301 522q26 -2 51 -2q185 0 291 125q62 72 62 131q0 64 -64 64 q-68 0 -129 -49q-54 -41 -111 -116t-100 -153z" />
<glyph unicode="f" horiz-adv-x="550" d="M-512 -424q0 39 27.5 61.5t62.5 22.5q13 0 33 -8q29 -13 29 -43q0 -17 -21 -43q-12 -16 -12 -27q0 -17 15 -31t46 -14q36 0 70 12q29 13 53 31q33 23 59 60q34 44 67 120t89 234l309 878l-149 -2q-9 0 -20.5 -1.5t-19 -1.5t-13.5 3q-9 5 -9 17q0 9 3 15t19.5 12t47.5 6 l158 -3q104 259 174 363q19 29 26 37q83 111 197 151q67 23 129 23q87 0 134.5 -38.5t47.5 -92.5q0 -36 -21.5 -58t-53.5 -22q-29 0 -47.5 17.5t-18.5 39.5q0 6 1 11t4.5 10t5 7.5t7.5 9t7 7.5q10 15 10 29q0 21 -20.5 36t-65.5 15q-71 0 -121 -47q-50 -45 -104 -182 q-57 -150 -60 -160l-55 -156h209q3 0 15 1.5t20 0t12 -7.5q4 -8 4 -14q0 -15 -10 -18q-15 -5 -19 -5l-239 3l-178 -488q-69 -195 -152 -371q-105 -227 -223 -364q-74 -86 -138.5 -119t-146.5 -33q-89 0 -131.5 35.5t-42.5 81.5z" />
<glyph unicode="g" horiz-adv-x="886" d="M-141 -254q0 56 32 96q18 23 41 41q36 27 156 72q-30 10 -61.5 33t-44.5 49t-13 57q0 93 78 154q64 48 160 74q-24 27 -39 61q-27 59 -27 119q0 90 45 172q53 97 146.5 152t199.5 55q40 0 84 -13q77 -24 125 -100q28 51 73.5 85t86.5 34t64.5 -25t23.5 -59 q0 -29 -16 -47.5t-43 -18.5q-20 0 -33 8q-27 15 -27 48q0 10 2 14q5 15 5 16q0 5 -4.5 9t-10.5 4q-21 0 -57.5 -47t-36.5 -64q0 -6 3 -13l9 -21t11 -32q10 -42 10 -84q0 -72 -29 -138t-72 -111q-33 -33 -61 -50q-79 -49 -195 -49q-123 0 -213 68q-1 0 -63 -25 q-27 -12 -44 -21.5t-33.5 -29.5t-16.5 -45q0 -45 61 -57q57 -13 129 -13h221q85 0 138 -18q131 -43 131 -213q0 -168 -117 -285q-82 -86 -203 -112q-67 -15 -139 -15q-97 0 -160 17.5t-127 56.5q-149 94 -149 211zM6 -252q0 -84 41 -139q11 -15 26 -30t44.5 -35.5t77 -33 t104.5 -12.5q167 0 281 91.5t114 203.5q0 33 -12 60q-27 65 -102 84q-16 3 -64 8q-51 4 -154 4l-229 -4q-43 -20 -71.5 -51t-39 -62.5t-13.5 -49.5t-3 -34zM295 401q0 -44 16 -75q13 -25 41.5 -43.5t69.5 -18.5q35 0 60.5 10.5t46 36t32.5 47.5t31 64q65 144 65 274 q0 79 -33.5 114.5t-82.5 35.5q-61 0 -102 -46t-77 -126q-28 -66 -38 -101q-29 -93 -29 -172z" />
<glyph unicode="h" horiz-adv-x="1026" d="M-31 2q0 11 2 18t4 9.5t5 5t4 4.5l563 1282q2 5 7 16.5t7 16.5q17 38 17 49t-8 14.5t-31 3.5h-37q-19 0 -30.5 4t-15 8.5t-3.5 8.5q0 5 6 8q4 2 9 2t11.5 -1t9.5 -1l152 -2q30 0 53 2q13 0 33 4t33 4q18 0 18 -14q0 -10 -16 -43q-18 -35 -19 -37l-305 -680l-26 -55 q49 60 121 126t131 97q66 35 143 35q48 0 94 -19q78 -34 78 -112q0 -56 -47 -166l-187 -428q-34 -77 -34 -96q0 -31 32 -31q69 0 187 102q30 27 39 27q12 0 12 -14q0 -10 -16 -25t-52 -43q-2 -2 -4 -3.5t-4 -2.5q-121 -94 -227 -94q-62 0 -94.5 34t-32.5 82q0 9 1.5 19t3 18 t5.5 20l6 18t7.5 20t7.5 18.5t9.5 20t8.5 18.5l180 403l13.5 27l15.5 31t11 30t5 33q0 24 -8 37q-15 31 -59 31q-23 0 -56 -11q-63 -22 -149 -104q-39 -34 -66 -65q-59 -63 -94 -123.5t-94 -192.5l-133 -299q-11 -26 -15 -33.5t-11 -12.5t-21 -5q-4 0 -12.5 1t-12.5 1 q-10 2 -31 2q-48 0 -63 -4t-23 -4q-4 0 -6 2t-2 8z" />
<glyph unicode="i" horiz-adv-x="491" d="M33 111q0 32 11 64t40 95l233 521q2 6 5 10.5t4.5 6.5t1.5 5q0 17 -41 21l-47 4q-8 0 -13.5 4.5t-5.5 9.5q0 6 6 12t17 6q4 0 11.5 -1.5t16.5 -2.5q29 -4 99 -4q39 0 59 2q5 1 16.5 3t16.5 3q11 3 25.5 9t19.5 6q7 0 11.5 -5t4.5 -10t-4.5 -14.5t-19.5 -41t-33 -71.5 l-236 -538q-47 -108 -47 -131q0 -24 15.5 -42t42.5 -18q37 0 83 25.5t83 69.5q20 24 28 24q4 0 6 -2q7 -3 7 -10q0 -11 -19 -33.5t-39 -40.5q-88 -74 -194 -74q-69 0 -116.5 36t-47.5 102zM492 1257q0 36 27.5 59t66.5 23q38 0 59 -25t21 -63q0 -50 -35 -73q-19 -13 -45 -13 q-60 0 -84 49q-10 20 -10 43z" />
<glyph unicode="j" horiz-adv-x="479" d="M-530 -420q0 38 25 62t56 24q41 0 62 -35q8 -16 8 -28q0 -13 -6 -25q-14 -38 -14 -41q0 -13 15 -24t40 -11q32 0 69.5 16.5t59.5 41.5q16 16 57 90q66 123 144 313l336 836q1 1 2 4t2 4q0 1 1 3t1 3q0 9 -19 14q-12 2 -41 5.5t-43 7.5q-12 4 -12 14q0 14 25 14 q9 0 24 -2.5t31 -3.5q5 0 38 -1t48 -1q31 0 45 2q9 0 25 4q13 3 29 9t22 6t12 -4t6 -11q0 -14 -22 -65l-273 -664q-41 -100 -106 -225t-127 -211q-57 -75 -101 -117q-62 -59 -123 -84.5t-137 -25.5q-87 0 -123 32.5t-36 73.5zM502 1229q0 32 15.5 59.5t41.5 40.5 q21 12 47 12q31 0 56.5 -20t25.5 -57q0 -48 -31.5 -78.5t-74.5 -30.5q-52 0 -72 39q-8 13 -8 35z" />
<glyph unicode="k" horiz-adv-x="1009" d="M-23 4q0 5 1.5 9.5t5 9t4.5 6.5l561 1343q6 12 6 23q0 24 -45 24q-47 0 -62 -3t-28 -3q-8 0 -13.5 2.5t-7.5 5t-2 4.5q0 8 5.5 12.5t18.5 6t23 1.5t29.5 -0.5t28.5 -0.5q198 0 221 12q16 8 20 8q13 0 13 -12q0 -6 -21 -57l-362 -852h12q10 0 30.5 -1t30.5 -1q32 0 54 10 q12 6 25 17t23 22.5t32 38t41 47.5q9 11 34.5 40t33.5 38t27.5 30t28.5 29.5t24 22.5t27 22.5t25 15.5q47 29 103 29q65 0 97 -31.5t32 -76.5q0 -38 -22.5 -65.5t-59.5 -27.5q-31 0 -46.5 20t-15.5 40v47q0 51 -35 51q-48 0 -225 -211q-65 -76 -80 -90q-33 -29 -61 -37 q62 -9 100 -20q45 -14 68.5 -40t23.5 -83q0 -58 -24 -219q-10 -80 -10 -92q0 -17 4 -23q8 -18 32 -18q54 0 116 71.5t85 163.5q6 37 29 37q16 0 16 -18t-17.5 -61t-43.5 -85q-10 -17 -21.5 -33t-34 -39t-47.5 -40t-61.5 -29t-75.5 -12q-63 0 -104 36.5t-41 110.5 q0 50 14 129l25 121q4 24 4 55q0 40 -31 55q-24 10 -45 13q-48 6 -49 6q-12 0 -64 -6l-200 -477q-5 -14 -63 -23.5t-101 -9.5q-7 0 -11 4t-4 8z" />
<glyph unicode="l" horiz-adv-x="497" d="M37 96q0 16 2 30.5t8 32t10.5 29t14.5 36t16 38.5l459 1116q6 15 6 19q0 3 -4 6.5t-13 6.5t-22 3h-39q-51 0 -51 17q0 12 27 12q9 0 39.5 -2t66.5 -2q77 0 129 8q2 0 6 1t6 1q6 2 21 2q10 0 15 -5.5t5 -12.5t-10 -27l-479 -1169q-51 -126 -51 -162q0 -28 21.5 -42 t51.5 -14q69 0 148 86q8 8 17 19.5t12.5 14.5t7.5 3t10 -4.5t6 -11.5q0 -5 -5.5 -15.5t-22 -29.5t-39.5 -39q-84 -70 -201 -70q-76 0 -122 31.5t-46 93.5z" />
<glyph unicode="m" horiz-adv-x="1415" d="M-25 4q0 5 7 13.5t10 15.5q2 3 3.5 8.5t4.5 11.5l330 764q1 2 1 4.5t-1.5 5.5t-5 5.5t-11.5 4t-20 1.5q-26 0 -41.5 6t-15.5 14q0 14 24 14q13 0 41 -4q46 -4 70 -4q53 0 88 6q21 3 28 8t13 5q4 0 8 -4t4 -11q0 -9 -16 -41q-18 -36 -41 -104l-11 -29q8 8 45 49 q4 4 20.5 22.5t25 27t24.5 22.5t33 25q70 45 156 45q75 0 110 -35q23 -22 36 -70q11 -41 11 -78v-12q47 79 122.5 136t160.5 57q70 0 120 -38t50 -118q0 -39 -11.5 -75t-39.5 -99l-152 -344q-37 -81 -37 -115q0 -47 47 -47q64 0 140 76q27 27 38 27q6 0 9 -3l2 -2 q0 -26 -68 -77q-26 -20 -66 -40.5t-69 -27.5q-24 -6 -53 -6q-42 0 -73 16t-44 39q-12 19 -12 55q0 44 26 109q3 7 9.5 21.5t9.5 21.5l149 346q6 14 18.5 41.5t16 36.5t10 26t8 28t1.5 24q0 76 -62 76q-90 0 -207 -138q-43 -54 -82.5 -130t-99.5 -218l-123 -289q-2 -4 -6 -16 t-7 -19t-7.5 -15.5t-10 -12.5t-12.5 -4l-18 3q-17 3 -58 3h-15t-9 -0.5t-4.5 -1t-1.5 -1t-0.5 -1t-1.5 -1t-4 -1t-8.5 -0.5h-14.5q-14 0 -14 12q0 5 4.5 12t5.5 9l233 553q41 98 60 161q8 32 8 47q0 36 -29 50q-13 8 -33 8q-35 0 -87.5 -33.5t-108.5 -99.5 q-24 -28 -45.5 -54.5t-32.5 -42.5t-20 -29t-9 -14q-29 -44 -67 -135l-164 -383q-3 -6 -6.5 -16.5t-6 -16.5t-6 -12t-7.5 -9t-9 -3q-9 0 -29 4q-7 2 -45 2q-35 0 -51 -4q-5 -1 -9.5 -2t-6.5 -1.5t-4 -0.5q-11 0 -11 10z" />
<glyph unicode="n" horiz-adv-x="1007" d="M-18 4q0 2 1.5 5t4 7.5t4.5 8.5l323 772l11 22q0 17 -52 17q-40 0 -55 12q-6 3 -6 10q0 14 23 14q16 0 37 -4t55 -4q28 0 65.5 4t38.5 4q32 5 41 9q2 1 7.5 3.5t8.5 2.5q15 0 15 -15q0 -8 -4 -16l-74 -184l47 51q52 58 123 106q82 54 170 54q80 0 133 -47q51 -45 51 -117 q0 -27 -9 -59.5t-17 -50.5t-27 -60l-166 -375q-29 -61 -29 -88q0 -25 21 -37q12 -6 29 -6q51 0 118 55q54 45 64 45q12 0 12 -12q0 -13 -51 -57q-37 -30 -97 -53t-116 -23q-68 0 -106.5 29t-38.5 69q0 22 38 123l164 367q60 131 60 176q0 31 -19.5 52.5t-54.5 21.5 q-92 0 -219 -136q-56 -60 -83.5 -102.5t-57.5 -105.5q-6 -13 -17.5 -38.5t-17.5 -39.5l-168 -389q-1 -3 -4 -12.5t-7 -14t-12 -4.5q-5 0 -32 3t-48 3q-30 0 -42.5 -3t-20.5 -3q-14 0 -14 10z" />
<glyph unicode="o" horiz-adv-x="946" d="M37 279q0 114 64 239.5t184 220.5q80 63 170 100.5t170 37.5q129 0 204.5 -92t75.5 -234q0 -244 -219 -432q-174 -152 -356 -152q-134 0 -213.5 91.5t-79.5 220.5zM195 160q0 -156 137 -156q171 0 286 221q56 105 93 232.5t37 226.5q0 16 -1.5 30.5t-9.5 39t-21.5 42 t-41.5 31t-66 13.5q-170 0 -295 -244q-50 -98 -84 -218t-34 -218z" />
<glyph unicode="p" horiz-adv-x="993" d="M-371 -496q0 21 58 23q5 0 19.5 0.5t22 1.5t19 2.5t20 5t15.5 8.5q6 4 11 11t8.5 12.5t8.5 17t7.5 16.5t8 20t7.5 20l475 1140q19 46 19 49q0 17 -31 17h-8q-7 0 -20.5 -1t-20.5 -1q-35 0 -35 16q0 15 25 15h79q126 0 175 14q4 2 12 2q12 0 12 -12q0 -14 -57 -140 q136 144 276 144q90 0 156 -49q92 -71 92 -197q0 -47 -8 -86q-20 -109 -78 -211.5t-141 -183.5q-56 -56 -121 -97q-136 -84 -268 -84q-78 0 -123 41q-41 38 -56 84l-235 -577q70 0 119 -8q30 -4 30 -13q0 -16 -47 -16q-34 0 -108 4q-54 4 -80 4q-42 0 -83 -4t-112 -4 q-18 0 -26 2q-17 3 -17 14zM223 150q0 -29 17 -60q40 -72 122 -72q42 0 97 25q116 59 219 254q131 243 131 418q0 76 -47 106q-27 15 -60 15q-57 0 -116 -36t-103 -91q-87 -106 -170 -310l-67 -168q-23 -61 -23 -81z" />
<glyph unicode="q" horiz-adv-x="954" d="M27 233q0 147 92 299q51 82 114 148q86 87 194 144t204 57q82 0 125 -43q33 -33 49 -86l20 75q8 28 13.5 35.5t19.5 7.5q7 0 21.5 -1t21.5 -1q46 0 57.5 9.5t28.5 9.5q4 0 6 -2q6 -3 6 -13q0 -8 -20 -59l-516 -1296q9 -1 27.5 -2t27.5 -2q5 0 15.5 -1t15.5 -1 q43 -5 43 -17q0 -14 -37 -14q-11 0 -94.5 4t-114.5 4q-34 0 -85.5 -2t-90.5 -2q-37 0 -37 12q0 18 51 21q11 0 28 0.5t26 1t20 1.5t17.5 2.5t11.5 4.5q10 8 20 27l180 460q2 6 10 20.5t13 28.5q-9 -6 -29 -20t-27.5 -19t-23.5 -15t-24.5 -13.5t-23.5 -10t-27 -8.5t-27.5 -4 t-32.5 -2q-99 0 -174 58q-94 73 -94 204zM197 184q0 -99 63 -141q38 -23 76 -23q65 0 125 46q33 23 61 59q36 45 78 133q4 9 19.5 44.5t23.5 55.5l113 283q18 45 18 76q0 47 -39.5 83t-103.5 36q-46 0 -88.5 -18.5t-76.5 -51.5t-55 -59.5t-44 -61.5q-65 -100 -117.5 -232.5 t-52.5 -228.5z" />
<glyph unicode="r" horiz-adv-x="688" d="M-31 4q0 2 1.5 4t4 6.5t5.5 10.5l344 780q0 1 1 3t1 3q4 4 4 8q0 5 -8.5 11t-20.5 6q-3 0 -9 -1t-9 -1h-15h-20q-31 0 -31 14q0 6 6.5 9.5t19 4.5t24 1.5t29.5 0.5h28q69 4 112 10q15 2 29 7.5t20 5.5q13 0 13 -13q0 -4 -15 -45l-88 -215q91 125 177 194t155 69 q42 0 71 -24.5t29 -66.5t-29 -71t-59 -29q-13 0 -22.5 7t-9.5 16q0 4 4 19t4 26q0 47 -49 47q-66 0 -166 -115q-65 -71 -105.5 -135.5t-95.5 -185.5l-147 -324q-16 -41 -23 -45q-2 -2 -10 -2q-6 0 -21.5 3t-44.5 3q-17 0 -33 -2t-32 -2q-5 0 -10 1.5t-7 3.5t-2 3z" />
<glyph unicode="s" horiz-adv-x="708" d="M-63 209q0 43 16 70q33 61 102 61q20 0 43 -10q52 -25 52 -80q0 -15 -7 -29q-19 -33 -53 -33q-12 0 -24.5 2.5t-25.5 13.5t-13 29q0 11 5 24t5 19q0 9 -6.5 15t-12.5 6t-8 -2q-18 -7 -28.5 -32.5t-10.5 -53.5q0 -73 60 -133q29 -29 61 -43q54 -23 103 -23q83 0 137 49 q59 52 59 131q0 38 -14 89q-3 10 -29 92q-27 78 -35 121q-6 38 -6 73q0 90 37 160q20 38 51 74q81 84 191 84q74 0 131 -45q61 -46 61 -113q0 -38 -24 -61t-52 -23q-27 0 -44 17.5t-17 41.5q0 19 12 34.5t29 15.5q14 0 23 -9q8 -4 16 -4q14 0 14 13q0 28 -39 63 q-23 20 -51 29q-27 10 -53 10q-40 0 -79.5 -21.5t-59.5 -56.5q-17 -34 -17 -65q0 -12 1.5 -25t5.5 -28.5t7 -26t10 -29t9.5 -25t10.5 -26t9 -21.5q5 -11 14.5 -34t14.5 -35q37 -92 37 -160q0 -131 -86 -225q-49 -49 -90 -68q-72 -35 -154 -35q-109 0 -186 54 q-102 70 -102 184z" />
<glyph unicode="t" horiz-adv-x="522" d="M18 117q0 22 11 51q3 11 16 41l289 620h-94q-10 0 -14.5 0.5t-7.5 3.5t-3 9q0 28 39 28q7 0 20.5 -1t20.5 -1q8 0 23.5 1t23.5 1h8l35 88q17 46 33 46q3 0 22.5 -4.5t38.5 -4.5q24 0 58 17q19 8 24 8q8 0 8 -10q0 -5 -2 -9.5t-6.5 -11.5t-7.5 -14l-51 -111l127 6 q16 1 23 2.5t16 1.5q24 0 24 -16q0 -11 -7.5 -18t-22 -9.5t-24.5 -3t-27 -0.5h-5l-114 -2l-302 -675q-20 -40 -20 -70q0 -45 63 -45q86 0 160 92q1 1 5 6t6 8t5.5 6.5t6.5 5t6 1.5q5 0 10.5 -5.5t5.5 -9.5q0 -1 -1 -3t-1 -3q-22 -39 -53 -67q-36 -34 -88.5 -57t-110.5 -23 q-70 0 -114 32q-52 37 -52 99z" />
<glyph unicode="u" horiz-adv-x="997" d="M29 102q0 42 45 148l243 545q12 28 -16 28q-23 0 -65 6q-25 5 -25 21q0 12 16 12q3 0 31 -4q32 -4 59 -4q63 0 115 8q32 5 43 10t17 5q12 0 12 -11q0 -5 -19 -53l-243 -569q-27 -63 -43 -117q-9 -32 -9 -45q0 -41 33 -55q18 -9 41 -9q43 0 91.5 30.5t117.5 101.5 q85 88 137.5 172.5t100.5 199.5l131 312q5 12 8 17.5t5 6t7 0.5l20 -2t15.5 -1.5t9.5 -0.5h31q25 0 49 4q5 1 13 3.5t10 2.5q8 0 8 -8q0 -4 -2 -10l-244 -567q-5 -13 -15.5 -36t-15.5 -36q-11 -23 -22 -51q-17 -49 -17 -80q0 -28 13 -41q12 -12 37 -12q53 0 112 47 q42 34 70 69q11 17 20 17q13 0 13 -13q0 -6 -4 -14q-12 -25 -45 -55q-36 -32 -72 -54q-72 -43 -141 -43q-63 0 -109.5 31.5t-46.5 81.5q0 27 16 70q4 10 12 29t15 42q-37 -47 -90.5 -102.5t-95.5 -87.5q-78 -61 -187 -61q-58 0 -98.5 12t-59 32.5t-25.5 39t-7 38.5z" />
<glyph unicode="v" horiz-adv-x="894" d="M66 629q0 15 34.5 62t77.5 89q105 101 209 101q68 0 104.5 -34.5t36.5 -84.5q0 -56 -39 -148l-114 -266q-24 -58 -43 -133q-15 -69 -15 -94q0 -53 25 -79t64 -26q74 0 169 95q44 44 84 100q47 66 93 156q88 180 88 323q0 68 -31 68q-8 0 -12 -2q-24 -8 -35 -8 q-20 0 -37.5 13.5t-17.5 37.5q0 30 23.5 55t62.5 25q29 0 53 -15q39 -26 39 -100q0 -91 -23 -191q-56 -233 -194 -409q-153 -191 -316 -191q-56 0 -108 25q-94 47 -94 147q0 20 8 66q19 97 71 217l129 305q15 40 15 49q0 28 -23 39q-12 6 -26 6q-36 0 -97 -49 q-78 -66 -112 -133q-13 -31 -31 -31q-8 0 -13 5.5t-5 9.5z" />
<glyph unicode="w" horiz-adv-x="1376" d="M72 655q0 11 10 31q22 40 70 88q37 41 75 64q68 45 144 45q70 0 109.5 -31t39.5 -88q0 -40 -24 -117q-16 -50 -41 -110l-121 -267q-47 -100 -47 -172q0 -88 71 -88q50 0 105 44t102 114q76 115 140 272l104 252q6 14 17 51t26 80q4 11 14 13q12 2 35 2q1 0 49 6 q39 4 56 10q12 4 20 4q16 0 16 -12q0 -6 -6 -15q-7 -10 -24 -53l-193 -481q-12 -29 -26 -74q-19 -69 -19 -110q0 -51 25.5 -76t62.5 -25q34 0 74 21q68 35 134.5 111.5t113.5 158.5q56 97 92.5 211.5t36.5 200.5q0 20 -7 31.5t-12 13.5t-8 2q-19 0 -19 -4q-1 -4 -18 -4 q-30 0 -44.5 14.5t-14.5 36.5q0 30 26.5 53t57.5 23q49 0 69 -56q11 -32 11 -71q0 -100 -29 -213t-80 -211q-37 -72 -88 -142q-77 -102 -164 -159.5t-172 -57.5q-77 0 -121 47.5t-57 108.5q-7 34 -7 72q0 13 1 26q-4 -9 -41 -75q-35 -58 -68 -91q-80 -86 -194 -86 q-81 0 -136 48.5t-55 130.5q0 43 17 108t41 119l123 283q30 71 30 116q0 30 -14.5 43t-32.5 13q-49 0 -131 -78q-12 -12 -21 -22t-16.5 -20.5t-11 -16t-11 -18l-10.5 -17.5q-15 -23 -22 -23q-12 0 -12 16z" />
<glyph unicode="x" horiz-adv-x="958" d="M-66 96q0 46 27 76q16 16 29 21q15 6 30 6q20 0 43 -15q23 -17 23 -47t-37 -51q-1 -1 -3.5 -2.5t-3.5 -2t-3 -2t-3 -2.5l-2.5 -2.5t-2 -3t-2 -3.5t-1.5 -4t-0.5 -4t-0.5 -5q0 -26 30 -39q15 -6 35 -6q75 0 154 82q34 36 82 111q60 99 98 239q4 15 12.5 45t12.5 45 q2 8 8 29.5t7.5 27t5.5 21.5t5 22t3.5 18.5t3 20.5t1 18.5t0.5 21.5q0 51 -12 75q-18 45 -74 45q-81 0 -153 -69q-27 -24 -74 -90q-23 -37 -39 -37q-14 0 -14 14q0 7 12 31q1 1 11.5 15.5t23.5 30.5t27 30q70 74 135 102q51 23 118 23q95 0 144 -43q30 -27 45.5 -77.5 t15.5 -94.5q55 88 107 137q82 80 174 80q13 0 37 -4q10 -2 37 -15q51 -27 51 -90q0 -20 -7 -35t-16 -21.5t-20.5 -10.5t-16.5 -4.5t-8 -0.5q-25 0 -42 15t-17 37q0 17 18 28q19 14 19 31q0 16 -13.5 28.5t-38.5 12.5q-41 0 -94 -41q-30 -26 -73 -76q-53 -64 -78 -110 q-40 -75 -90 -238q0 -1 -7 -24.5t-8.5 -30t-8 -30t-8.5 -35t-6.5 -33.5t-6.5 -38t-3.5 -36t-1.5 -39q0 -115 86 -115q36 0 76 21q46 25 88 70.5t66 90.5q2 3 5 10.5t5 10.5q18 27 27 27q10 0 10 -13q0 -17 -20 -53.5t-42 -65.5q-104 -133 -256 -133q-17 0 -34.5 1.5 t-49.5 11.5t-55 27.5t-41 53.5t-18 85q0 27 2 41q1 7 2 20t2 20q-63 -115 -115 -172q-80 -86 -194 -86q-65 0 -103 35q-37 32 -37 86z" />
<glyph unicode="y" horiz-adv-x="991" d="M-168 -457q0 35 25.5 57.5t62.5 22.5q19 0 28.5 -8.5t11 -17t1.5 -25.5q0 -37 29 -37q37 0 100 51.5t115 114.5q77 91 110 156q35 72 35 131q0 7 -1 20.5t-1 20.5v8l-4 639q0 33 -1.5 52.5t-6.5 43t-18 34.5t-33 11q-39 0 -80 -51q-40 -47 -64 -107q0 -1 -4.5 -13 t-7 -16.5t-7 -12.5t-10 -11.5t-12.5 -3.5q-3 0 -6 1t-6.5 6t-3.5 12q0 22 41 98q10 20 20 35q86 137 224 137q83 0 110 -62q19 -48 19 -139v-18l-6 -439q0 -79 4 -133l32 50l359 585q54 91 82 119q31 31 69 31q41 0 58.5 -21t17.5 -47q0 -31 -19.5 -52.5t-54.5 -21.5 q-27 0 -36 23q-8 25 -21 25q-11 0 -59 -72l-273 -443q-181 -294 -311 -467t-238 -260q-86 -73 -180 -73q-38 0 -64 17t-26 50z" />
<glyph unicode="z" horiz-adv-x="825" d="M-12 16q0 33 26 64q3 3 119 131q127 140 248.5 256t206.5 186q14 11 29.5 23.5t23.5 19t18.5 16t20.5 21.5q-112 -39 -211 -39q-89 0 -150 27q-24 10 -69 37q-15 10 -25 10q-7 0 -12 -3.5t-17 -27.5t-26 -69q-8 -29 -29 -29q-14 0 -14 14q0 5 2.5 11t10 22.5t14.5 32.5 q14 30 39 117q2 8 7 23.5t7 23.5q4 22 20 22q7 0 11 -2q9 -3 28.5 -10.5t30.5 -11.5q196 -78 367 -78q33 0 49 2q78 5 78 45q0 2 -1.5 6t-1.5 6t-1 6t-1 6q0 25 27 25q25 0 25 -39q0 -10 -2 -16q-2 -10 -7.5 -20.5t-10 -17.5t-15 -17t-13.5 -13.5t-16 -14.5t-14 -11 q-120 -99 -346 -308q-149 -140 -285 -297q85 21 115 21q41 0 94 -13t82.5 -24t101.5 -39q74 -29 101 -29q32 0 57 22.5t25 61.5q0 42 -35 50q-1 0 -9.5 3t-11.5 4t-10 5t-10 8.5t-5.5 12t-2.5 16.5q0 27 20.5 46t48.5 19t48 -18t20 -64q0 -118 -92 -200q-82 -72 -136 -72 q-20 0 -81 18q-15 4 -63.5 18t-103.5 29.5t-65 18.5q-117 33 -135 33q-5 0 -8.5 -1t-6 -2t-5 -4t-4 -4.5t-3 -5.5t-1.5 -5.5t-1.5 -6.5t-1.5 -6q-7 -41 -39 -41q-24 0 -24 20z" />
<glyph unicode="{" horiz-adv-x="768" d="M141 627q0 3 0.5 5t2.5 3.5t3.5 2t5 1t5 0.5h5.5h5l70 -2q115 -2 180 76q34 40 80 178l71 219q13 38 19 55t21.5 53t31 58t39 50.5t55 50.5t70.5 40q44 20 88 30t69 11.5t66 1.5q21 0 21 -14t-23 -14q-108 0 -158 -43q-19 -15 -35.5 -44.5t-24.5 -52t-24 -69.5 q-13 -39 -23.5 -73t-16 -51t-9.5 -28l-57 -160q-59 -169 -213 -241q-80 -38 -197 -49q62 -9 111 -43q90 -63 90 -175q0 -94 -57 -215l-66 -141q-45 -100 -45 -182q0 -32 15.5 -51t34 -25t48.5 -10q40 -4 62 -4q14 0 14 -15q0 -12 -24 -12q-51 0 -88.5 3t-80 13.5t-69.5 29 t-45 53t-18 81.5q0 27 7.5 57.5t13 46t26.5 68.5l73 185q54 141 54 209q0 30 -10 52t-21 33t-34.5 19.5t-34 10t-36.5 5.5q-7 1 -21 1t-20 2.5t-6 9.5z" />
<glyph unicode="|" d="M514 -352v1763h117v-1763h-117z" />
<glyph unicode="}" horiz-adv-x="774" d="M-145 -236q0 17 24 17q104 0 156 41q8 6 15.5 14t12.5 15t12 20t11 20.5t11 25.5t10 26l12 32t12 33l94 254q15 39 18 47.5t17.5 43.5t22 47.5t24.5 40t31.5 42.5t36.5 34t47 34q101 59 235 74q-83 14 -140.5 70.5t-57.5 140.5q0 31 10.5 73t20 67t36.5 97l49 125 q33 85 33 152q0 20 -3 31.5t-14 26t-38.5 22t-71.5 8.5q-4 0 -12.5 -0.5t-13 -0.5t-10.5 1t-8.5 4.5t-2.5 9.5q0 12 25 12q110 0 186 -24q66 -21 90.5 -62.5t24.5 -99.5q0 -9 -0.5 -18t-1.5 -15.5t-3.5 -16.5t-4 -15.5t-5.5 -18.5t-6.5 -19t-8.5 -23t-9 -26l-66 -178 q-18 -47 -25.5 -69t-16.5 -60t-9 -69q0 -77 55 -101q33 -16 95 -16q30 0 30 -15q0 -12 -39 -12h-34q-140 0 -203 -76q-4 -5 -8 -10.5t-7.5 -13t-6.5 -13t-7.5 -16.5t-7 -17.5t-8 -21t-8 -22.5t-9 -27t-10.5 -29l-82 -233q-47 -134 -100.5 -209t-153.5 -123 q-60 -28 -109.5 -36.5t-111.5 -8.5q-24 0 -24 14z" />
<glyph unicode="~" horiz-adv-x="1239" d="M543 1309q0 14 39 59q9 10 21.5 26.5t23.5 28.5t26 25q83 74 187 74q24 0 54.5 -6t46 -10.5t50.5 -17t37 -13.5q67 -24 98.5 -31.5t71.5 -7.5q84 0 131 24q19 11 37 29q19 19 25 31q0 1 6 10.5t11.5 14.5t12.5 5q11 0 11 -12q0 -18 -27 -53q-40 -54 -76 -84 q-88 -74 -188 -74q-19 0 -43.5 5t-39.5 9.5t-56 18t-56 18.5q-53 18 -71.5 23.5t-47.5 10.5t-59 5q-77 0 -115 -28q-14 -10 -55 -54q-6 -7 -13 -14.5t-10.5 -11.5l-7 -8t-6 -5.5t-4.5 -1.5q-9 0 -12 6q-2 2 -2 9z" />
<glyph unicode="&#xa3;" horiz-adv-x="1181" d="M-33 -2q0 27 64 53q81 34 159 96q56 45 105.5 109t77.5 133q39 92 57 242q-21 0 -34 1.5t-40 0.5l-114 -4q-2 0 -16.5 -0.5t-22 0t-19 3t-17 9.5t-5.5 18q0 19 17.5 23t74.5 4h141q28 0 49 6q33 234 127 424q91 179 213 258q113 74 244 74t197 -66q44 -44 63 -110 q10 -38 10 -70q0 -60 -31 -88.5t-73 -28.5q-34 0 -64 22.5t-30 61.5q0 30 19.5 52t47.5 34q3 1 13 5.5t17 8.5t11 9q6 6 6 16q0 13 -16.5 36.5t-28.5 33.5q-26 24 -84 37q-27 6 -57 6q-98 0 -166 -61q-75 -70 -125 -213q-25 -71 -65 -304q-6 -33 -10.5 -56.5t-6 -32 t-3.5 -20.5l-5 -30h146q20 0 96.5 2t91.5 2h6.5h6t5 -0.5t5 -1t3.5 -2t3 -3.5t1.5 -5.5t0.5 -7.5q0 -24 -16.5 -31.5t-53.5 -7.5l-303 -4q-61 -174 -165 -289t-255 -211q-18 -13 -18 -16q0 -6 8 -6q5 0 29 12q13 8 135 53q98 37 211 37q60 0 147 -31q9 -3 27.5 -10t27.5 -10 q96 -38 134 -43q14 -2 28 -2q31 0 55.5 13.5t35 26t30.5 40.5q31 45 49 86q8 19 13.5 25.5t13.5 6.5q16 0 16 -22q0 -23 -12 -47q-12 -31 -55 -97q-1 -2 -35 -47q-82 -101 -144 -125q-38 -14 -84 -14q-43 0 -85.5 11.5t-116.5 41.5q-1 1 -26.5 12t-35.5 14.5t-36 13.5 t-44.5 14.5t-45 10.5t-53.5 8.5t-54 2.5q-108 0 -197 -39q-12 -5 -32.5 -16.5t-26.5 -14.5q-9 -5 -25 -14.5t-22 -13t-15 -8t-15 -6t-11 -1.5q-9 0 -16 6t-7 15z" />
<glyph unicode="&#xa8;" d="M467 1133q0 50 35 82t82 32q39 0 60.5 -26.5t21.5 -63.5q0 -49 -33 -78.5t-78 -29.5q-36 0 -62 21.5t-26 62.5zM813 1135q0 49 33.5 82.5t79.5 33.5q42 0 64 -27t22 -63q0 -44 -32.5 -76t-78.5 -32q-36 0 -62 21t-26 61z" />
<glyph unicode="&#xa9;" horiz-adv-x="1609" d="M178 657q0 126 41 245t115 216t172.5 170t219.5 113.5t249 40.5q139 0 264 -53t215 -143.5t142.5 -217t52.5 -266.5q0 -157 -64 -302.5t-170 -251.5t-251.5 -169.5t-301.5 -63.5q-143 0 -270 53t-217.5 144t-143.5 217.5t-53 267.5zM254 659q0 -172 80.5 -315t221 -225 t308.5 -82q142 0 273.5 58.5t226.5 156.5t152 232t57 278q0 172 -82.5 314t-224 223t-310.5 81q-141 0 -271 -59t-224 -157t-150.5 -230.5t-56.5 -274.5zM489 543q0 89 31.5 180.5t87.5 169t127 139t155.5 96.5t166.5 35q83 0 153 -51l16 -12t12 -9.5t8 -6.5t6.5 -4t4.5 -1 q4 0 6.5 2t5 6t3.5 5q10 14 28 14q15 0 15 -14q0 -13 -23 -58q-35 -73 -47 -102l-18 -47q-7 -17 -18 -20q-4 -1 -9 -1q-22 0 -22 19q0 3 8 35q9 27 6.5 69.5t-18.5 71.5q-33 67 -121 67q-72 0 -145.5 -43.5t-129.5 -126.5q-37 -56 -59 -110q-64 -149 -64 -281q0 -84 25 -135 q41 -80 135 -80q35 0 69.5 12t58.5 27t51 40t39.5 39.5t31.5 37.5q25 29 39 29q18 0 18 -17q0 -26 -80 -106q-132 -127 -297 -127q-121 0 -188.5 69.5t-67.5 188.5z" />
<glyph unicode="&#xab;" horiz-adv-x="821" d="M84 420l6 55q2 16 18 28q3 3 33 23q26 16 90 59.5t115 73.5l137 82q14 7 15 7q14 0 14 -15q0 -3 -18 -24q-3 -5 -13.5 -13.5t-13.5 -11.5l-205 -180q-43 -37 -43 -53q0 -9 21 -62l73 -151q10 -20 17 -41q4 -12 4 -17q0 -12 -10 -12q-9 0 -31 22q-2 2 -7 7.5t-7 7.5 l-162 168q-4 4 -11 10.5t-9.5 9t-6 7t-4.5 7t-1.5 6t-0.5 7.5zM434 420l6 55q0 3 0.5 6t2 5.5t2.5 4t3.5 4.5t4.5 4.5t7 5t8 5.5t11 7t13 9q27 17 90 60t114 73l138 82l3 3t4.5 3t6.5 1q14 0 14 -15q0 -3 -18 -24q-2 -2 -5 -5.5t-5 -5.5q-3 -2 -8.5 -7t-8.5 -7l-205 -180 q-43 -37 -43 -53q0 -9 21 -62l74 -151q7 -14 16 -41q4 -12 4 -17q0 -12 -10 -12q-8 0 -45 37l-162 168q-4 4 -11 10.5t-9.5 9t-6 7t-4.5 7t-1.5 6t-0.5 7.5z" />
<glyph unicode="&#xad;" horiz-adv-x="538" d="M82 432l16 113h418l-20 -113h-414z" />
<glyph unicode="&#xae;" horiz-adv-x="1609" d="M178 662q0 155 64 299t170.5 249.5t254.5 168.5t308 63q139 0 264 -53t215 -143.5t142.5 -217t52.5 -266.5q0 -157 -64 -302.5t-170 -251.5t-251.5 -169.5t-301.5 -63.5q-142 0 -269 53.5t-218 144.5t-144 218.5t-53 270.5zM254 659q0 -171 80.5 -314t221.5 -225.5 t310 -82.5q142 0 272.5 58.5t225.5 156t152 231.5t57 279q0 172 -82.5 314t-224 223t-310.5 81q-141 0 -271 -59t-224 -157t-150.5 -230.5t-56.5 -274.5zM430 313q0 13 18 14t46 1.5t43 11.5q13 10 34 66l246 636q19 53 19 56q0 8 -4 12.5t-10.5 5.5t-15.5 1.5t-18.5 0 t-19.5 0.5q-23 3 -23 15q0 4 2.5 7t7.5 5t10 3t13 1h13h13h11q188 0 262.5 -5t116.5 -22q115 -43 115 -149q0 -56 -40.5 -107.5t-111.5 -81.5q-65 -29 -188 -39q4 -1 13 -3t13 -3q55 -14 86 -45q49 -49 41 -164l-6 -106q-3 -77 2 -92q4 -17 17 -17q10 0 10 15v4q0 17 10 27 t18.5 12t16.5 2q10 0 20.5 -6.5t10.5 -18.5q0 -25 -31.5 -45t-81.5 -20q-74 0 -107.5 40.5t-33.5 104.5q0 17 4 53l8 99q6 62 -2 94q-7 22 -16 31q-26 26 -117 26l-133 -348q-13 -30 -13 -37q0 -18 27 -18h27.5t36 -3t12.5 -12q0 -18 -49 -18q-29 0 -94 2t-111 2 q-44 0 -67 -2t-25 -2q-25 0 -25 16zM858 766q76 0 143 18q78 22 118 75.5t40 119.5q0 40 -17.5 76.5t-43.5 48.5q-20 10 -82 10q-20 0 -25.5 -6.5t-19.5 -44.5z" />
<glyph unicode="&#xb4;" d="M653 1040q0 1 15 19l262 327h166q22 0 22 -10q0 -9 -16 -20q-2 -1 -5 -4t-5 -4q-2 -2 -7.5 -6.5t-7.5 -6.5l-354 -262q-5 -5 -30.5 -22t-30.5 -17q-9 0 -9 6z" />
<glyph unicode="&#xbb;" horiz-adv-x="870" d="M51 184q0 12 58 62l178 153q49 42 57 58q6 9 6 20q0 18 -33 68q-53 84 -77 127q-56 101 -56 106q0 8 11 8q12 0 26 -14q5 -4 9 -8.5t13.5 -15t24.5 -25.5l181 -178l8 -8q2 -2 6 -5.5t6 -5.5q10 -8 10 -20q0 -38 -10 -68q-3 -10 -10.5 -17t-36.5 -26l-154 -102 q-8 -5 -94 -57q-20 -12 -39 -24.5t-28.5 -18.5t-18 -11.5t-13.5 -7.5t-9 -2q-6 0 -10.5 3.5t-4.5 8.5zM395 184q0 12 58 62l178 153q31 25 47 43t16 35q0 19 -32 68l-21 31.5t-22.5 35t-34.5 60.5q-56 101 -56 106q0 8 11 8q12 0 26 -14q5 -4 9 -8.5t13.5 -15t24.5 -25.5 l181 -178l8 -8q2 -2 6 -5.5t6 -5.5q10 -8 10 -20q0 -38 -10 -68q-3 -10 -10.5 -17t-36.5 -26l-154 -102q-8 -5 -94 -57q-20 -12 -39 -24.5t-28.5 -18.5t-18 -11.5t-13.5 -7.5t-9 -2q-6 0 -10.5 3.5t-4.5 8.5z" />
<glyph unicode="&#x192;" horiz-adv-x="827" d="M-381 -420q0 30 23 59t61 29q31 0 49.5 -17.5t18.5 -37.5q0 -5 -1.5 -9.5t-3.5 -7.5t-5 -7t-5 -7q-16 -24 -16 -35q0 -19 18 -34t47 -15q90 0 168 96q58 72 113 213q14 36 28 76.5t44.5 130.5t72.5 207l123 346q12 34 24.5 66t27.5 76h-7q-15 0 -42 1t-42 1q-19 0 -46 -2 t-44 -2q-28 0 -28 18q0 5 1.5 9t3.5 6.5t5 5t4.5 3.5t4.5 2l3 1q16 4 51 4q24 0 70 -1t70 -1h12l65 174q67 179 150 297q40 54 72 86q71 68 155 92q49 14 105 14q90 0 139 -38.5t49 -94.5q0 -36 -22.5 -55t-51.5 -19q-26 0 -45.5 14.5t-19.5 45.5q0 22 16 35q19 15 19 32 q0 15 -9 27q-20 29 -83 29q-69 0 -119 -50q-73 -73 -154 -319l-90 -272h145q27 0 48 1t34 1q29 0 29 -19q0 -13 -6.5 -19.5t-10.5 -6.5h-16q-58 0 -94 1t-47 1h-94q-44 -128 -172 -461q-56 -145 -125 -295q-34 -71 -64.5 -127t-73 -121t-93 -116t-105.5 -83 q-74 -43 -154 -43q-89 0 -134.5 38t-45.5 77z" />
<glyph unicode="&#x401;" horiz-adv-x="1173" d="M-113 16q0 10 13 13.5t53 3.5h72h9h9t7 0.5t7 1t6 2.5t6.5 4t6 5.5t6.5 8.5q22 32 39 76l473 1139q21 53 27 71q4 16 4 23q0 17 -19 20q-30 5 -59 5l-76 2q-25 0 -25 14q0 18 43 18q31 0 90.5 -1t88.5 -1h12l610 -4q10 0 25 1t22 1q45 0 45 -20q0 -3 -1.5 -6.5t-5 -9.5 t-5.5 -11q-7 -16 -14 -41l-56 -209q-1 -2 -3 -11.5t-3.5 -15t-4.5 -15t-5.5 -15.5t-6 -12.5t-7.5 -9.5t-8 -3q-2 0 -4.5 1t-5.5 6t-3 12q0 8 6.5 25.5t10.5 37.5q12 62 12 107q0 57 -15.5 84.5t-48.5 40.5q-58 19 -118 24q-66 4 -101 4l-129 2q-31 0 -41 -10q-5 -5 -18 -31 l-223 -577q93 -6 96 -6q114 0 188.5 57.5t102.5 140.5q10 31 26 31q15 0 15 -16q0 -6 -23 -62l-121 -282q-38 -91 -61 -178q-10 -39 -25 -39q-23 0 -10 37q31 94 31 155q0 59 -35 88q-42 33 -170 33q-19 0 -27 -4q-8 -6 -22 -37l-221 -545q-25 -61 -25 -69q0 -23 37 -23 l106 -4q57 -5 132 -1.5t144.5 12.5t136 39t106.5 77q54 64 106 215q12 41 35 41q4 0 9 -3t5 -11q0 -9 -2 -13q-2 -8 -8 -23.5t-10 -25.5q-18 -45 -63 -168t-52 -149q-5 -16 -8.5 -22t-16.5 -9.5t-40 -3.5h-889q-48 0 -76 1t-43.5 3t-20 5t-4.5 9zM719 1608q0 51 35 82.5 t84 31.5q38 -1 59 -30t21 -62q0 -41 -30.5 -73.5t-80.5 -32.5q-36 0 -62 21.5t-26 62.5zM1077 1612q0 49 33.5 81.5t81.5 32.5q40 0 62 -27t22 -61q0 -43 -33 -76.5t-78 -33.5q-34 0 -61 22t-27 62z" />
<glyph unicode="&#x402;" horiz-adv-x="1427" d="M119 10q0 7 13.5 15t25.5 8q3 0 10 -1t10 -1h4h33q47 0 76 16q39 20 61 76l498 1255h-82q-112 0 -182.5 -20t-130.5 -76q-43 -41 -80 -100q-47 -77 -60 -107q-1 -1 -4 -7t-5.5 -9t-6 -8t-7.5 -7t-9 -2q-18 0 -4 33l153 344q579 -9 1096 2q-6 -18 -29.5 -84.5t-32.5 -95.5 q-18 -56 -30 -101t-23 -79q-8 -27 -27 -27q-16 0 -16 23q0 4 4 16q8 25 15 55q16 70 16 109q0 67 -37 102q-19 19 -52.5 28t-55 10t-72.5 1h-146l-241 -606q109 31 194 31q171 0 267 -92q92 -90 92 -262q0 -183 -152 -326q-71 -68 -163 -108t-177 -40q-86 0 -129 45.5 t-43 104.5q0 46 29.5 80.5t73.5 34.5q34 0 52.5 -21.5t18.5 -52.5q0 -19 -7 -31.5t-13.5 -16.5t-24.5 -14q-39 -19 -39 -43q0 -18 22.5 -35.5t57.5 -17.5q135 0 238 217q76 162 76 330q0 95 -41 145q-52 64 -160 64q-110 0 -191 -43l-239 -606q-11 -24 -33 -123 q-49 12 -125 12q-103 0 -156 -4q-54 -4 -82 -4t-28 14z" />
<glyph unicode="&#x403;" horiz-adv-x="1032" d="M-113 12q0 21 35 21q6 0 17.5 -1t17.5 -1q16 -2 49 -2q66 0 82 10q20 12 49 90l465 1210q8 24 8 29q0 9 -6.5 13.5t-10 4.5h-15.5q-21 0 -56 -1t-53 -1q-37 0 -37 23q0 18 37 18q6 0 92.5 -3t165.5 -3h254q199 0 379 2q-1 -2 -45 -131q-47 -147 -64 -207 q-1 -6 -3.5 -15.5t-4 -14.5t-4 -12.5t-4.5 -11.5t-5 -8t-7 -5.5t-9 -1.5q-18 0 -18 20q0 8 2 16t7 24t9 34q13 67 13 123q0 66 -31 102q-18 20 -48.5 30t-51 11.5t-56.5 1.5h-227l-500 -1290q-10 -20 -10 -37q0 -20 31 -20q55 0 80 2q54 4 82 4q26 0 26 -19q0 -20 -37 -20 q-20 0 -53 1.5t-63 2.5q-47 1 -108 -0.5t-97 -1.5h-201h-6q-7 0 -22 -1t-23 -1q-25 0 -25 16zM936 1511q0 2 14 19l262 328h166h8q6 0 10.5 -4t4.5 -7q0 -4 -4 -8q-2 -2 -6.5 -6t-6.5 -6q-2 -1 -5 -4t-5 -4q-2 -2 -7 -6.5t-7 -6.5l-354 -262q-4 -4 -30.5 -21.5t-31.5 -17.5 q-8 0 -8 6z" />
<glyph unicode="&#x404;" horiz-adv-x="1173" d="M135 399q0 139 47 294.5t121 277.5q15 25 33.5 51t61.5 80.5t104.5 111t128.5 101.5q84 57 183.5 92t193.5 35q120 0 219 -72q46 -32 51 -35q24 -16 55 -16q15 0 24.5 7.5t13.5 16t10.5 16t15.5 7.5q12 0 12 -14q0 -20 -31 -86q-20 -46 -26 -56q-5 -10 -15.5 -30.5 t-15.5 -30.5q-53 -131 -55 -139q-13 -33 -25 -33q-6 0 -11 5.5t-5 16.5q0 5 1.5 10.5t5.5 16.5t7 23q12 54 12 88q0 76 -30 136.5t-78 92.5q-56 37 -137 37q-121 0 -228 -66q-130 -87 -219 -223q-99 -149 -153 -354q117 92 210 92q16 0 33 -2.5t28.5 -4.5t31 -8t25.5 -8 t26.5 -10t21.5 -8l150 -61q84 -35 121 -35q35 0 59 16q11 6 22 20.5t19 14.5q6 0 11 -6t5 -12q0 -21 -39 -43l-98 -56q-52 -26 -104 -26q-42 0 -97 22l-182 82q-81 35 -133 35q-61 0 -127 -60q-31 -132 -31 -278q0 -46 2 -74.5t12.5 -70t30.5 -80.5q34 -65 88 -100.5 t144 -35.5q92 0 182 50q57 32 126 96t97 115q26 45 43 45q13 0 13 -17q0 -45 -115 -170q-80 -84 -199 -146.5t-260 -62.5q-235 0 -336 193q-51 97 -51 233z" />
<glyph unicode="&#x405;" horiz-adv-x="1089" d="M66 -4q0 8 8 20q2 4 5 12.5t5 12.5q8 25 41 106q6 17 19.5 52t19.5 53q41 113 47 131q9 31 35 31q5 0 9.5 -5.5t4.5 -13.5q0 -5 -2 -11t-6 -15t-6 -17q-8 -32 -8 -69q0 -135 76 -202t204 -67q86 0 152.5 27t105 72t57.5 97.5t19 108.5q0 104 -61 191q-7 12 -16.5 24 t-24 27t-19.5 21q-28 30 -135 131q-35 33 -58 58.5t-53.5 67.5t-46.5 91t-16 102q0 76 35.5 152t105.5 137q135 117 318 117q36 0 73 -6q61 -8 129 -37q5 -2 14.5 -6.5t14.5 -6.5q32 -14 53 -14q9 0 21 4q35 18 53 49q14 21 23 21q12 0 12 -15q0 -10 -2 -16 q-3 -10 -14.5 -31t-20.5 -41q-47 -98 -70 -223q0 -1 -1.5 -6.5t-2 -7.5t-2 -6.5t-3 -6l-4 -4t-6 -3.5t-7.5 -1q-15 0 -15 15q0 14 3.5 40t3.5 40q0 88 -52 149q-69 78 -190 78q-63 0 -121 -21q-53 -19 -90 -51q-43 -37 -65.5 -85t-22.5 -93q0 -112 121 -244q25 -27 77.5 -77 t94.5 -95t71 -88q68 -104 68 -215q0 -86 -36 -170.5t-103 -148.5q-68 -65 -162.5 -103.5t-200.5 -38.5q-33 0 -80 7q-43 7 -69 16q-54 19 -97 51q-6 4 -27 21.5t-34 23.5q-16 8 -31 8q-7 0 -14 -2t-12.5 -6.5t-10.5 -9t-9.5 -12.5t-7.5 -13t-7.5 -15t-6 -14t-5.5 -15t-5 -13 q-1 -3 -3 -8.5t-3.5 -8t-3.5 -6t-5 -5t-7 -1.5q-12 0 -16 13q-2 2 -2 8v4z" />
<glyph unicode="&#x406;" horiz-adv-x="669" d="M-106 12q0 5 1 7.5t7 5t18 2.5h29h17.5h18t15.5 0.5t17 1.5t15 2.5t16 4t14 6.5t16 9q6 4 11 8t7.5 6.5t5.5 7.5t4 6.5t3.5 8t3.5 8.5l473 1188q22 55 22 72q0 13 -14 24t-49 11h-82q-8 0 -12 2q-11 5 -11 14q0 14 27 14q12 0 35.5 -1t36.5 -1h10h352q23 0 40 1t28 1 q30 0 30 -16q0 -6 -6.5 -12.5t-19.5 -6.5q-4 0 -11.5 1.5t-11.5 1.5h-6h-53q-30 0 -48.5 -8t-35.5 -35q-27 -47 -55 -115l-441 -1125q-10 -20 -10 -34q0 -10 9.5 -21t31.5 -16q28 -7 60 -7t57 -5q4 0 9 -4t5 -9q0 -14 -29 -14l-493 2q-38 0 -47.5 2t-9.5 12z" />
<glyph unicode="&#x407;" horiz-adv-x="669" d="M-106 12q0 5 1 7.5t7 5t18 2.5h29h17.5h18t15.5 0.5t17 1.5t15 2.5t16 4t14 6.5t16 9q6 4 11 8t7.5 6.5t5.5 7.5t4 6.5t3.5 8t3.5 8.5l473 1188q22 55 22 72q0 13 -14 24t-49 11h-82q-8 0 -12 2q-11 5 -11 14q0 14 27 14q12 0 35.5 -1t36.5 -1h10h352q23 0 40 1t28 1 q30 0 30 -16q0 -6 -6.5 -12.5t-19.5 -6.5q-4 0 -11.5 1.5t-11.5 1.5h-6h-53q-30 0 -48.5 -8t-35.5 -35q-27 -47 -55 -115l-441 -1125q-10 -20 -10 -34q0 -10 9.5 -21t31.5 -16q28 -7 60 -7t57 -5q4 0 9 -4t5 -9q0 -14 -29 -14l-493 2q-38 0 -47.5 2t-9.5 12zM500 1606 q0 50 34.5 82t81.5 32q39 0 60.5 -26.5t21.5 -63.5q0 -49 -32.5 -78.5t-77.5 -29.5q-36 0 -62 21.5t-26 62.5zM846 1608q0 49 33 82.5t79 33.5q42 0 64 -27t22 -63q0 -44 -32 -76t-78 -32q-36 0 -62 21t-26 61z" />
<glyph unicode="&#x408;" horiz-adv-x="790" d="M-129 -27q0 35 21 61.5t71 26.5q80 0 80 -81q0 -28 -16 -46q-5 -6 -11.5 -10t-15.5 -7t-12 -5q-15 -10 -15 -16q0 -7 4.5 -14t20.5 -14t41 -7q93 0 164 131q34 65 82 188l438 1098q22 51 22 65q0 24 -22 35q-16 8 -61 8q-13 0 -40 -1t-42 -1q-16 0 -21 9q-2 2 -2 6 q0 14 12 18q10 4 31 4q24 0 67.5 -2t123.5 -2q110 0 165 2q33 1 85 3.5t77 2.5q13 0 17 -2q14 -5 14 -18q0 -19 -45 -19q-7 0 -22.5 -1t-22.5 -1q-2 0 -13 -1l-16.5 -1.5t-16.5 -2t-18 -3.5t-15.5 -5.5t-14.5 -8.5q-23 -18 -41 -64q-2 -4 -24 -48.5t-30 -67.5l-268 -688 q-85 -219 -158.5 -339t-150.5 -194q-138 -133 -270 -133q-70 0 -111 43t-41 102z" />
<glyph unicode="&#x409;" horiz-adv-x="1679" d="M-143 119q0 63 36.5 101t83.5 38q42 0 69.5 -28t27.5 -68q0 -34 -19.5 -56.5t-42.5 -29.5q-1 0 -5 -1.5t-6.5 -2.5t-6.5 -3.5t-6.5 -4.5t-5 -5t-4 -6.5t-1.5 -7.5q0 -8 13 -13t28 -5q83 0 195 106q98 94 293 371q202 285 381 581q92 150 114 215q7 21 7 35q0 19 -7.5 30 t-15 13.5t-20.5 3.5q-21 2 -64 1.5t-104 2.5q-23 0 -23 17q0 20 39 20q26 0 73 -2t70 -2h21h276h27q20 1 31.5 3.5t19.5 2.5q29 0 29 -20q0 -6 -14 -39q-2 -4 -10.5 -24.5t-10.5 -24.5l-199 -508q107 8 209.5 -15t177.5 -73q150 -99 150 -268q0 -90 -37.5 -173.5 t-97.5 -140.5q-149 -143 -459 -143q-54 0 -156 4q-156 4 -233 4q-82 0 -130.5 -4t-78.5 -4q-41 0 -41 22q0 21 33 21q12 0 31.5 -1t29.5 -1q68 0 92 12q19 11 35 37.5t23 46.5l489 1249h-39q-104 -178 -198 -327q-105 -169 -150 -241.5t-136.5 -209t-184.5 -262.5 q-173 -234 -283 -313q-85 -60 -162 -60q-67 0 -110 41.5t-43 108.5zM848 94q-9 -22 6 -39q22 -22 102 -22q104 0 177 20q96 25 167 90q79 70 121.5 178t42.5 203q0 105 -71 174q-97 93 -283 70z" />
<glyph unicode="&#x40a;" horiz-adv-x="1880" d="M-117 16q0 9 6.5 16t20.5 7q4 0 11 -1t11 -1h5h43q60 0 81 8q12 3 21 12q23 23 78 160l415 1036q13 30 31 84q2 4 2 15q0 25 -33 30q-49 7 -67 7h-47q-45 0 -45 18q0 16 22 16l475 -4q10 0 25 1t45 1q29 0 29 -18q0 -25 -41 -25q-7 0 -22.5 1t-22.5 1q-20 2 -62 2 q-31 0 -47 -16q-11 -11 -57 -129l-146 -373q-2 -6 -7 -18.5t-7 -18.5q-12 -34 -12 -36q0 -7 4 -11q10 -10 61 -10h449q10 0 14 2q11 5 40 77q1 3 2 5.5t2.5 5.5t2.5 6l152 369q7 14 22 57.5t15 59.5q0 20 -21 24q-27 6 -69 6h-54q-30 0 -43 13q-4 4 -4 10q0 14 25 14l411 -2 h45q11 0 32.5 1t33.5 1h25q34 0 34 -16q0 -7 -7 -13t-21 -6q-4 0 -13.5 1t-13.5 1h-6h-45q-60 0 -86 -16q-7 -4 -13 -10t-12 -16t-10.5 -18.5t-11.5 -24.5t-11.5 -27.5t-13 -34t-14.5 -37.5l-166 -432q103 8 208.5 -16.5t180.5 -73.5q47 -31 79.5 -69t47.5 -75t21 -66t6 -56 q0 -76 -36.5 -150.5t-90.5 -124.5q-154 -143 -479 -143q-22 0 -68 1t-68 1q-113 2 -340 2q-55 0 -82 -2q-5 0 -14 -1t-14 -1q-27 0 -27 18q0 21 37 21q9 0 26.5 -1t26.5 -1q90 0 103 10q12 9 22 39l217 565q2 5 6.5 15.5t6.5 15.5l6 18q0 29 -58 29h-454q-18 0 -23 -5.5 t-16 -35.5l-205 -518q-33 -79 -33 -98q0 -21 23.5 -30t54.5 -7l111 4q8 0 11 -3.5t3 -15.5q0 -13 -12 -16q-8 -2 -23 -2q-144 0 -241 3t-109 3q-39 0 -117 -4q-58 -4 -88 -4q-27 0 -35 10q-4 4 -4 10zM1063 94q-9 -24 6 -39q4 -5 10.5 -8.5t12.5 -5.5t15.5 -4t15.5 -2.5 t17.5 -1t16 -0.5h17h14.5q195 0 323 110q75 65 115.5 152.5t40.5 179.5q0 112 -76 182q-102 95 -284 72z" />
<glyph unicode="&#x40b;" horiz-adv-x="1546" d="M119 20q0 19 28 19q4 0 13.5 -1t13.5 -1h6h45q74 0 94 12q11 7 25 30.5t21 43.5l497 1255h-82q-112 0 -182.5 -20t-130.5 -76q-43 -41 -80 -100q-43 -71 -59 -107q-1 -1 -3 -5t-3.5 -6t-4 -6t-5 -6.5l-5 -5t-6 -3.5t-6.5 -1q-18 0 -4 33l153 344q570 -9 1096 2 q-61 -179 -61 -180q-18 -56 -31 -101.5t-23 -78.5q-3 -9 -5 -13.5t-7.5 -9t-13.5 -4.5q-17 0 -17 23q0 4 4 16q8 25 15 55q16 70 16 109q0 67 -37 102q-19 19 -52.5 28t-55 10t-72.5 1h-145l-240 -602q154 29 277 29q153 0 225 -74q55 -58 55 -137q0 -51 -20 -109l-123 -319 q-33 -84 -33 -98q0 -26 33 -31q42 -6 67 -6h56q45 0 45 -19q0 -16 -23 -16l-475 4q-11 0 -25 -1t-45 -1q-28 0 -28 14q0 25 37 25q16 0 49 -2t49 -2q27 0 47 20q14 14 57 129l148 400q30 81 -9 131.5t-128 50.5q-121 0 -254 -39l-213 -541q-37 -91 -37 -116q0 -18 20 -25 q21 -6 70 -6h53q22 0 34.5 -6.5t12.5 -16.5q0 -14 -24 -14l-424 2h-41q-12 0 -35.5 -1t-34.5 -1h-24q-19 0 -27 4t-8 16z" />
<glyph unicode="&#x40c;" horiz-adv-x="1286" d="M-111 14q0 15 23 15h39q101 0 131 30q20 20 39 68l469 1180q10 20 10 41q0 41 -65 41h-84q-35 0 -35 14q0 16 24 16q13 0 38.5 -1t37.5 -1h12h379h4q11 0 33 1t33 1q31 0 31 -16q0 -7 -6.5 -13t-18.5 -6q-9 0 -14 1t-21 1h-67q-40 0 -62 -20q-20 -15 -47 -82l-186 -485 h78q71 0 151 47q53 31 88 68t70 90l137 210q5 7 21 32t20.5 32.5t17 25.5t19 27t17 21t20.5 22q57 60 141 60q69 0 104 -31q39 -31 39 -90q0 -50 -30 -92q-18 -22 -46.5 -37t-56.5 -15q-37 0 -60.5 23.5t-23.5 58.5q0 17 7 30t15 20t25 20q23 17 23 29q0 7 -7 13.5t-22 6.5 q-43 0 -86 -43q-26 -26 -71 -94l-156 -242q-61 -91 -107 -129q-81 -71 -184 -88v-2q70 -9 125 -55q86 -73 86 -240q0 -47 -14 -180q-17 -129 -17 -195q0 -39 11 -61q13 -31 45 -31q10 0 21 6.5t11 14.5v16q0 22 18 40.5t38 18.5q28 0 28 -30q0 -21 -16 -45q-39 -56 -147 -56 q-88 0 -142 56q-57 60 -57 166q0 25 14 151l35 242q7 53 -6 93t-41 58q-30 17 -86 17h-66l-254 -635q-14 -38 -14 -45q0 -25 31 -39q30 -10 53 -10l82 -2q27 0 27 -15q0 -14 -48 -14q-12 0 -84.5 2t-146.5 2q-71 0 -134.5 -2t-148.5 -2q-24 0 -33.5 3t-9.5 13zM1020 1507 q0 2 14 19l262 327h166h8q6 0 10.5 -3.5t4.5 -6.5q0 -4 -4 -8q-2 -2 -6.5 -6t-6.5 -6q-2 -1 -5 -4t-5 -4q-2 -2 -7 -6.5t-7 -6.5l-354 -262q-4 -4 -30.5 -21.5t-31.5 -17.5q-8 0 -8 6z" />
<glyph unicode="&#x40e;" horiz-adv-x="1341" d="M82 -78q0 54 28 92.5t64.5 54t73.5 15.5q49 0 80.5 -31.5t31.5 -79.5q0 -47 -28 -75.5t-58 -28.5q-13 0 -18.5 4t-28.5 4q-12 0 -22 -11t-10 -24q0 -17 23.5 -33t64.5 -16q50 0 106 33q39 24 99.5 80.5t101.5 105.5l-21 1209q0 99 -30 131q-28 28 -113 28q-10 0 -30.5 -1 t-30.5 -1q-29 0 -29 19q0 24 37 24q7 0 20.5 -1t20.5 -1h26q41 1 116 -0.5t99 -1.5q27 0 82 1t82 1h82h11.5h14.5h14.5t14.5 -1t11.5 -3t8.5 -5t3 -7q0 -6 -6.5 -13.5t-18.5 -7.5l-120 -6q-18 -1 -26 -2.5t-18.5 -7.5t-17.5 -18q-6 -11 -9 -29t-3.5 -30t0 -37t0.5 -31 l14 -852l-4 -144q175 245 354 549q243 410 289 529q6 24 6 26q0 55 -90 55q-5 0 -19 -1t-22 -1q-28 0 -28 17q0 22 51 22q32 0 77.5 -3t100.5 -3q57 0 86 2q66 4 98 4q29 0 29 -16q0 -5 -1 -9t-4.5 -6t-6 -3.5t-8 -2t-8 -0.5h-9.5h-10q-84 0 -119 -18q-35 -17 -80 -98 q-46 -82 -82 -153t-79.5 -151t-133.5 -231q-236 -395 -377 -577q-175 -224 -301 -324q-117 -94 -217 -94q-80 0 -133 53q-51 51 -51 131zM868 1683q0 58 42 96t91 38q43 0 67 -27.5t24 -63.5q0 -49 -50 -75q-2 -1 -12 -5t-15 -6.5t-12 -7t-10.5 -10t-3.5 -12.5 q0 -8 5.5 -15.5t25 -14.5t49.5 -7q105 0 199 78q65 53 110 131q24 41 35 41q5 0 13 -7t8 -14q0 -19 -42.5 -73t-72.5 -82q-119 -111 -268 -111q-88 0 -135.5 44.5t-47.5 102.5z" />
<glyph unicode="&#x40f;" horiz-adv-x="1460" d="M61 16q0 9 6.5 16t18.5 7q4 0 12.5 -1t12.5 -1h4h43q82 0 102 20t78 160l412 1036q32 82 32 99q0 25 -32 30q-49 7 -68 7h-47q-45 0 -45 18q0 16 22 16l475 -4q10 0 25 1t45 1q29 0 29 -18q0 -25 -41 -25q-7 0 -22.5 1t-22.5 1q-20 2 -62 2q-31 0 -47 -16 q-11 -11 -57 -129l-469 -1194h551l469 1192q37 95 37 117q0 20 -21 24q-27 6 -69 6h-54q-22 0 -34.5 6.5t-12.5 16.5q0 14 25 14l411 -2h50q11 0 32 1t33 1h25q35 0 35 -16q0 -7 -7.5 -13t-21.5 -6q-4 0 -13.5 1t-13.5 1h-6h-45q-60 0 -86 -16q-7 -5 -13 -11t-12.5 -16.5 t-10.5 -18t-11 -24.5t-11 -26.5t-13.5 -34t-14.5 -37.5l-391 -1016q-41 -104 -41 -116q0 -28 49 -35q38 -6 125 -6q33 0 33 -15q0 -18 -47 -18q-100 0 -175.5 1t-110 2t-36.5 1h-197q-77 0 -112 -29q-28 -24 -48.5 -83t-27.5 -115q-2 -17 -6 -72.5t-12 -85.5 q-16 -62 -48.5 -95.5t-64.5 -33.5q-26 0 -48 21t-22 57q0 25 17.5 61.5t35 63.5t62.5 92q76 106 76 156q0 63 -88 63h-146q-44 0 -67 2t-68 2q-34 0 -102 -4t-103 -4q-39 0 -39 20z" />
<glyph unicode="&#x410;" horiz-adv-x="1284" d="M-172 23q0 18 25 18q19 0 43 -4t43 -4q58 0 108 26q7 4 14 9t15.5 14t15 16t18.5 22.5t19.5 24.5t24 31t26.5 35l934 1219q20 26 33 26q18 0 18 -29q0 -7 -2 -19.5t-6.5 -38t-7.5 -54.5l-143 -1100q-11 -76 -11 -98q0 -72 72 -76l125 -6q22 0 22 -17q0 -10 -9 -17t-23 -7 q-3 0 -20 3t-36 3h-8q-17 0 -106 1t-103 1l-260 -2h-12q-4 0 -13.5 -1t-13.5 -1q-39 0 -39 27q0 16 23 16q6 0 17.5 -1t17.5 -1h10h27q64 0 94 18q7 5 13 11t10 14.5t6.5 15t5 18.5t3.5 18t2.5 20t2.5 18l41 277q6 15 1.5 22.5t-32.5 7.5h-364l-242 -325q-37 -52 -37 -74 q0 -8 2 -12q2 -7 10 -15q28 -24 101 -16l32 2q8 0 18 2t17 2q16 0 25.5 -6.5t9.5 -13.5q0 -23 -47 -23q-171 4 -189 -0.5t-192 -1.5q-23 0 -35.5 -2t-32.5 -2t-40.5 7t-20.5 22zM502 537q0 -15 26 -15h263q34 0 65 15l86 561q1 7 -2 12.5t-6 5.5q-1 0 -14 -18l-396 -533 q-5 -7 -18 -20q-4 -4 -4 -8z" />
<glyph unicode="&#x411;" horiz-adv-x="1191" d="M-141 16q0 6 6.5 11.5t17.5 5.5q3 0 10.5 -1t10.5 -1q8 -2 24 -2h97q35 0 55 18q15 15 35 68l485 1210q8 16 8 31q0 12 -6 19t-19.5 10t-23 3.5t-29.5 0.5l-81 2q-23 0 -23 14q0 18 35 18l514 -4q51 0 151.5 -1t126.5 -1q19 0 47.5 2t38.5 2q35 0 35 -22q0 -4 -2.5 -11.5 t-8.5 -22.5t-11 -30q-17 -56 -29 -108q-2 -8 -5.5 -26.5t-6.5 -31t-7 -30.5t-8.5 -30.5t-9.5 -24t-10.5 -17.5t-11.5 -6q-13 0 -13 16q0 12 7.5 36.5t11.5 51.5q4 32 4 66q0 67 -25 96q-35 44 -159 51q-71 6 -218 6q-22 0 -33 -2.5t-24 -16t-24 -40.5l-205 -526 q55 10 110 10q70 0 146.5 -19.5t130.5 -56.5q63 -42 107 -114t44 -162q0 -102 -60.5 -200.5t-160.5 -160.5q-160 -100 -487 -100q-20 0 -61 1t-62 1h-17h-303q-25 0 -44 -1t-38 -1q-32 0 -32 20zM297 55q0 -26 20 -26h54q194 0 327 77q42 25 79.5 60t72.5 84.5t55.5 117 t20.5 142.5q0 138 -80 205q-65 55 -180 55q-50 0 -99 -14l-252 -639q-18 -46 -18 -62z" />
<glyph unicode="&#x412;" horiz-adv-x="1204" d="M-141 12q0 8 6 14.5t18 6.5q4 0 11.5 -1t11.5 -1q50 -4 71 -4q75 0 99 12q10 6 18 20t23 54l467 1167q16 43 16 61q0 23 -24 31t-93 8h-34q-15 0 -23 5.5t-8 11.5q0 11 14 14q21 6 143 6h349q54 0 91.5 -2.5t92 -16.5t92.5 -40q64 -45 90 -123q15 -44 15 -86 q0 -134 -93 -234q-51 -56 -145 -108q-121 -66 -227 -82q113 -23 184 -82q43 -39 61 -82q19 -46 19 -104q0 -113 -68.5 -219.5t-177.5 -165.5q-48 -25 -98 -39q-73 -20 -137 -25q-105 -12 -250 -12q-23 0 -68 1t-67 1h-19h-235h-41q-10 0 -31 -1t-31 -1q-22 0 -22 16zM301 53 q0 -8 2 -12q5 -12 23 -12h32q101 0 171.5 13.5t140.5 53.5q105 61 165 162t60 225q0 48 -10 82q-9 39 -35 72q-25 31 -63.5 49.5t-82.5 23t-80.5 3.5t-72.5 -6l-225 -576q-25 -62 -25 -78zM573 758q210 -22 340 55q58 36 97 84q43 55 70.5 134t27.5 165q0 91 -55 137 q-64 55 -238 43z" />
<glyph unicode="&#x413;" horiz-adv-x="1032" d="M-113 12q0 21 35 21q6 0 17.5 -1t17.5 -1q16 -2 49 -2q66 0 82 10q20 12 49 90l465 1210q8 24 8 29q0 9 -6.5 13.5t-10 4.5h-15.5q-21 0 -56 -1t-53 -1q-37 0 -37 23q0 18 37 18q6 0 92.5 -3t165.5 -3h254q199 0 379 2q-1 -2 -45 -131q-47 -147 -64 -207 q-1 -6 -3.5 -15.5t-4 -14.5t-4 -12.5t-4.5 -11.5t-5 -8t-7 -5.5t-9 -1.5q-18 0 -18 20q0 8 2 16t7 24t9 34q13 67 13 123q0 66 -31 102q-18 20 -48.5 30t-51 11.5t-56.5 1.5h-227l-500 -1290q-10 -20 -10 -37q0 -20 31 -20q55 0 80 2q54 4 82 4q26 0 26 -19q0 -20 -37 -20 q-20 0 -53 1.5t-63 2.5q-47 1 -108 -0.5t-97 -1.5h-201h-6q-7 0 -22 -1t-23 -1q-25 0 -25 16z" />
<glyph unicode="&#x414;" horiz-adv-x="1243" d="M-207 39h191l1069 1280q12 12 12 31q0 6 -2 11.5t-6 9t-8.5 6t-12 4t-13 2.5t-14.5 1h-14.5h-15.5h-14q-17 0 -51.5 -1t-53.5 -1q-37 0 -37 25q0 16 31 16q88 0 170 -4h86h133h37q28 1 55.5 6t44.5 5t27 -7t11 -15l1 -7q0 -6 -4 -14t-12 -23.5t-14 -32.5l-471 -1208 q-15 -34 -15 -47q0 -25 27.5 -31t87.5 -6h84q-47 -47 -117 -133l-46 -57.5t-64 -80.5t-50 -63q-59 -76 -77 -76q-15 0 -15 15q0 22 26 101.5t42 115.5q35 77 35 102q0 29 -23 35q-8 2 -51 2h-641q-67 0 -92 -14q-19 -11 -33.5 -39t-34.5 -82q-65 -181 -94 -223 q-17 -17 -23 -17q-14 0 -14 23q-3 66 -14 198q-18 150 -23 193zM82 53q6 -10 37 -10h579l523 1339h-52l-1077 -1292q-18 -23 -10 -37z" />
<glyph unicode="&#x415;" horiz-adv-x="1173" d="M-113 16q0 10 13 13.5t53 3.5h72h9h9t7 0.5t7 1t6 2.5t6.5 4t6 5.5t6.5 8.5q22 32 39 76l473 1139q21 53 27 71q4 16 4 23q0 17 -19 20q-30 5 -59 5l-76 2q-25 0 -25 14q0 18 43 18q31 0 90.5 -1t88.5 -1h12l610 -4q10 0 25 1t22 1q45 0 45 -20q0 -3 -1.5 -6.5t-5 -9.5 t-5.5 -11q-7 -16 -14 -41l-56 -209q-20 -82 -38 -82q-2 0 -4.5 1t-5.5 6t-3 12q0 8 6.5 25.5t10.5 37.5q12 62 12 107q0 57 -15.5 84.5t-48.5 40.5q-58 19 -118 24q-66 4 -101 4l-129 2q-31 0 -41 -10q-5 -5 -18 -31l-223 -577q69 -6 94 -6q116 0 191.5 58t101.5 140 q10 31 26 31q15 0 15 -16q0 -6 -23 -62l-121 -282q-38 -91 -61 -178q-10 -39 -25 -39q-23 0 -10 37q31 94 31 155q0 59 -35 88q-42 33 -170 33q-12 0 -17.5 -1t-11.5 -6t-12 -16q-4 -6 -8 -18l-221 -545q-25 -61 -25 -69q0 -23 37 -23l106 -4q58 -5 133 -1.5t144 12.5 t135 39t107 77q47 54 106 215q12 41 35 41q4 0 9 -3t5 -11q0 -9 -2 -13q-2 -8 -8 -23.5t-10 -25.5q-18 -45 -63 -168t-52 -149q-5 -16 -8.5 -22t-16.5 -9.5t-40 -3.5h-889q-48 0 -76 1t-43.5 3t-20 5t-4.5 9z" />
<glyph unicode="&#x416;" horiz-adv-x="1839" d="M-115 111q0 34 23 34q20 0 22 -28q1 -7 0.5 -23t1.5 -22q4 -23 23.5 -38.5t40.5 -15.5q19 0 37.5 12.5t37.5 38.5t31.5 46.5t32 55.5t25.5 46q159 269 246 361q76 79 155 116q110 50 232 47v2q-26 11 -45.5 29.5t-29 42t-15 45.5t-6 46t0 37t2.5 26l37 264q7 57 -12 100 q-6 14 -19 25.5t-26 11.5q-15 0 -27 -12.5t-12 -36.5q0 -13 4 -25q0 -2 1 -9t1 -13q0 -45 -32 -75t-76 -30q-39 0 -58.5 28t-19.5 67q0 37 20 72.5t54 58.5q57 39 114 39q49 0 90 -33q61 -53 47 -158l-34 -266q-6 -18 -2 -80.5t24 -89.5q36 -45 113 -45h55l207 541 q10 25 10 40q0 41 -65 41h-70q-33 0 -33 15q0 6 6.5 11t18.5 5t38 -1t38 -1h12h350h4q12 0 33.5 1t32.5 1q30 0 30 -16q0 -19 -24 -19q-9 0 -14 1t-21 1h-55q-40 0 -62 -20q-22 -18 -47 -82l-201 -518h74q65 0 146 49q49 30 90.5 76t95.5 131l121 194q8 12 24.5 39.5t26 43 t26.5 37t35 38.5q64 64 154 64q66 0 102 -31q37 -32 37 -90q0 -54 -30 -92q-41 -52 -99 -52q-40 0 -64 24t-24 58q0 17 7 30t15 20t25 20q23 17 23 29q0 7 -7.5 13.5t-23.5 6.5q-40 0 -88 -43q-30 -30 -72 -94l-133 -213q-2 -3 -11 -17.5t-12 -19.5t-12 -18.5t-13.5 -20 t-13 -19t-14.5 -20t-15.5 -19t-17 -20t-17 -18.5t-19.5 -19q-81 -73 -176 -90v-2q59 -2 114 -45q82 -68 82 -235q0 -38 -12 -160q-12 -111 -12 -191q0 -43 10 -61q15 -27 45 -27q29 0 58 21.5t44 52.5q8 15 11.5 21.5t13 15t21.5 8.5q18 0 18 -18q0 -16 -22 -43t-42 -45 q-37 -34 -71 -45t-78 -11q-90 0 -141 56q-54 63 -54 168q0 18 3 49.5t7.5 63.5t4.5 36l30 221q15 113 -49 142q-21 10 -75 10h-62l-237 -598q-15 -41 -15 -45q0 -18 21 -33t63 -16l62 -2q26 0 26 -15q0 -14 -30 -14l-504 2q-31 0 -40 2t-9 12q0 15 22 15h39q101 0 131 30 q20 20 39 68l244 594h-52q-77 0 -124 -22t-91 -64q-74 -72 -163 -217q-25 -40 -82 -138.5t-84 -138.5q-57 -83 -111 -116q-74 -45 -180 -45q-85 0 -127 55q-27 36 -27 76z" />
<glyph unicode="&#x417;" horiz-adv-x="1165" d="M-49 61q0 14 31 56q36 51 75 82q60 53 129 53q68 0 121 -62q19 -21 47 -67q24 -37 37 -51q56 -64 129 -64q17 0 36 4t51.5 16.5t68.5 45.5t67 82q47 74 81 190t34 211q0 46 -8 100q-6 43 -29 80q-103 -84 -211 -84q-74 0 -108.5 31.5t-34.5 65.5q0 36 38 67t120 31 q108 0 196 -70q76 49 125 125q44 67 71 146.5t27 152.5q0 89 -38 141q-40 58 -111 58q-108 0 -217 -111q-70 -73 -152 -194q-17 -23 -28 -23q-6 0 -11.5 5t-5.5 16q0 7 5.5 18t22 55t36.5 115q21 79 35 137q6 23 20 23q5 0 9.5 -5.5t4.5 -13.5q0 -3 -1 -9t-1 -9 q0 -23 31 -23q19 0 98 25q7 2 24.5 7.5t25 8t23 6t27 5t28 3t34.5 1.5q142 0 227 -58q105 -72 105 -221q0 -61 -14 -110t-42 -86t-57.5 -62.5t-70.5 -52.5q-104 -66 -203 -90v-2q81 -31 141 -103q66 -89 66 -221q0 -201 -185 -340q-169 -125 -409 -125q-144 0 -215 35 q-50 23 -94 74q-42 53 -80 53q-34 0 -66 -51q-1 -1 -5 -8.5t-6 -11t-6 -8.5t-8.5 -7t-9.5 -2q-20 0 -20 20zM551 754q0 -11 4 -21.5t21 -21.5t45 -11q39 0 86.5 16.5t85.5 41.5q-63 49 -162 49q-80 0 -80 -53z" />
<glyph unicode="&#x418;" horiz-adv-x="1468" d="M-117 20q0 6 6 12.5t17 6.5q4 0 11 -1t11 -1h9h53q68 0 80 12q30 18 84 152l446 1114q8 24 8 35q0 24 -24 30q-36 9 -66 9h-63q-17 0 -28 5t-11 11q0 5 0.5 7.5t7 6.5t18.5 4l424 -4q30 0 64 1t55 1q27 0 27 -18q0 -25 -37 -25q-21 0 -58 2t-55 2q-29 0 -43 -14t-45 -94 l-377 -971l-28 -67h2l1011 1056l11 35q11 37 -6.5 46t-98.5 9h-35q-22 0 -34.5 6.5t-12.5 14.5q0 16 25 16l424 -2q24 0 65.5 1t63.5 1q28 0 28 -14q0 -21 -26 -21q-5 0 -16.5 1t-16.5 1h-8h-39q-58 0 -82 -14q-33 -20 -55 -80l-451 -1169q-16 -48 -16 -55q0 -20 22 -27 q28 -12 154 -12q31 0 31 -15q0 -18 -47 -18q-28 0 -86 1t-86 1q-22 0 -66 1t-66 1h-178h-10q-8 0 -25 -2t-26 -2q-27 0 -27 18q0 21 37 21q6 0 17.5 -1t17.5 -1h6h27q67 0 84 10q7 4 13 13t9.5 16.5t9.5 24.5t9 24l409 1053h-4l-1001 -1045l-11 -33q-9 -21 -6 -33.5t7.5 -16 t15.5 -7.5q24 -8 51 -8q18 0 53 2t56 2q22 0 22 -17q0 -20 -37 -20q-102 0 -208.5 3t-127.5 3q-68 0 -90 -4t-131 -4q-37 0 -37 24z" />
<glyph unicode="&#x419;" horiz-adv-x="1468" d="M-117 20q0 6 6 12.5t17 6.5q4 0 11 -1t11 -1h9h53q68 0 80 12q30 18 84 152l446 1114q8 24 8 35q0 24 -24 30q-36 9 -66 9h-63q-17 0 -28 5t-11 11q0 5 0.5 7.5t7 6.5t18.5 4l424 -4q30 0 64 1t55 1q27 0 27 -18q0 -25 -37 -25q-21 0 -58 2t-55 2q-29 0 -43 -14t-45 -94 l-405 -1038h2l1011 1056l11 35q11 37 -6.5 46t-98.5 9h-35q-22 0 -34.5 6.5t-12.5 14.5q0 16 25 16l424 -2q24 0 65.5 1t63.5 1q28 0 28 -14q0 -21 -26 -21q-5 0 -16.5 1t-16.5 1h-8h-39q-58 0 -82 -14q-33 -20 -55 -80l-451 -1169q-16 -48 -16 -55q0 -20 22 -27 q28 -12 154 -12q31 0 31 -15q0 -18 -47 -18q-28 0 -86 1t-86 1q-22 0 -66 1t-66 1h-178h-10q-8 0 -25 -2t-26 -2q-27 0 -27 18q0 21 37 21q6 0 17.5 -1t17.5 -1h6h27q67 0 84 10q7 4 13 13t9.5 16.5t9.5 24.5t9 24l409 1053h-4l-1001 -1045l-11 -33q-9 -21 -6 -33.5t7.5 -16 t15.5 -7.5q24 -8 51 -8q18 0 53 2t56 2q22 0 22 -17q0 -20 -37 -20q-102 0 -208.5 3t-127.5 3q-68 0 -90 -4t-131 -4q-37 0 -37 24zM909 1679q0 58 41.5 95.5t91.5 37.5q43 0 67 -27t24 -63q0 -49 -50 -75q-2 -1 -12 -5t-15 -6.5t-12 -7t-10.5 -10t-3.5 -12.5 q0 -8 5.5 -15.5t25 -14.5t49.5 -7q105 0 199 78q65 53 110 131q24 41 35 41q5 0 13 -7t8 -14q0 -19 -42.5 -73.5t-72.5 -82.5q-118 -110 -268 -110q-88 0 -135.5 44.5t-47.5 102.5z" />
<glyph unicode="&#x41a;" horiz-adv-x="1286" d="M-111 14q0 15 23 15h39q101 0 131 30q20 20 39 68l469 1180q10 20 10 41q0 41 -65 41h-84q-35 0 -35 14q0 16 24 16q13 0 38.5 -1t37.5 -1h12h379h4q11 0 33 1t33 1q31 0 31 -16q0 -7 -6.5 -13t-18.5 -6q-9 0 -14 1t-21 1h-67q-40 0 -62 -20q-20 -15 -47 -82l-186 -485 h78q71 0 151 47q53 31 88 68t70 90l137 210q5 7 21 32t20.5 32.5t17 25.5t19 27t17 21t20.5 22q57 60 141 60q69 0 104 -31q39 -31 39 -90q0 -50 -30 -92q-18 -22 -46.5 -37t-56.5 -15q-37 0 -60.5 23.5t-23.5 58.5q0 17 7 30t15 20t25 20q23 17 23 29q0 7 -7 13.5t-22 6.5 q-43 0 -86 -43q-26 -26 -71 -94l-156 -242q-61 -91 -107 -129q-81 -71 -184 -88v-2q70 -9 125 -55q86 -73 86 -240q0 -47 -14 -180q-17 -129 -17 -195q0 -39 11 -61q13 -31 45 -31q10 0 21 6.5t11 14.5v16q0 22 18 40.5t38 18.5q28 0 28 -30q0 -21 -16 -45q-39 -56 -147 -56 q-88 0 -142 56q-57 60 -57 166q0 25 14 151l35 242q7 53 -6 93t-41 58q-30 17 -86 17h-66l-254 -635q-14 -38 -14 -45q0 -25 31 -39q30 -10 53 -10l82 -2q27 0 27 -15q0 -14 -48 -14q-12 0 -84.5 2t-146.5 2q-71 0 -134.5 -2t-148.5 -2q-24 0 -33.5 3t-9.5 13z" />
<glyph unicode="&#x41b;" horiz-adv-x="1236" d="M-143 121q0 60 35.5 98.5t84.5 38.5q42 0 69.5 -28t27.5 -68q0 -34 -19.5 -56.5t-42.5 -29.5q-1 0 -5 -1.5t-6.5 -2.5t-6.5 -3.5t-6.5 -4.5t-5 -5t-4 -6.5t-1.5 -7.5q0 -7 13 -12.5t30 -5.5q95 0 218 106q109 96 288 342q165 231 371 604q78 141 104 221q7 18 7 35 q0 19 -7.5 30t-15 13.5t-20.5 3.5q-21 2 -64 1.5t-104 2.5q-23 0 -23 17q0 20 39 20q26 0 73 -2t70 -2h21h317h27q20 1 31.5 3.5t19.5 2.5q29 0 29 -20q0 -5 -2.5 -12.5t-13 -30t-19.5 -45.5l-469 -1204q-10 -30 -10 -43q0 -19 20 -29t58 -10q16 0 49 2t53 2q25 0 25 -17 q0 -20 -35 -20q-90 0 -131 2q-136 4 -215 4q-59 0 -88 -2q-105 -6 -111 -6q-41 0 -41 22q0 21 33 21q12 0 31.5 -1t29.5 -1q68 0 92 12q19 11 35 37.5t23 46.5l489 1249h-84q-77 -140 -186 -333q-8 -14 -38.5 -69.5t-40 -72t-38 -67.5t-42 -73t-41.5 -69t-46 -74.5t-47 -72 t-53.5 -79t-55.5 -76.5t-63 -83q-168 -213 -287 -286q-94 -58 -176 -58q-72 0 -110.5 45t-38.5 107z" />
<glyph unicode="&#x41c;" horiz-adv-x="1589" d="M-106 12q0 9 9.5 16t22.5 7q3 0 10.5 -1t10.5 -1q23 -2 67 -2h17h17.5t14.5 1t15 3.5t12 7t13.5 11.5t11.5 16q10 16 47 118l411 1106q2 6 6.5 18.5t6.5 18.5q4 12 4 19q0 15 -11.5 23t-23.5 9.5t-31 1.5q-18 0 -54 -2t-56 -2q-11 0 -15 2q-8 4 -8 17q0 24 29 24 q8 0 23 -1.5t58 -3t120 -1.5h102q4 0 35 1t63 1q8 0 11.5 -1t5.5 -5t2 -14q0 -12 -1 -31t-1 -29v-14l-50 -975l715 1067l389 2q25 0 25 -16q0 -23 -31 -23q-22 0 -24.5 2t-22.5 2h-72q-13 0 -18 -0.5t-13 -5.5t-16 -16q-14 -21 -30 -64l-453 -1183q-20 -53 -20 -56 q0 -26 51 -26l78 -2q5 0 15.5 1t14.5 1q17 0 17 -10q0 -9 -8.5 -17t-26.5 -8q-5 0 -24 2t-29 2l-439 -4q-20 0 -20 16q0 9 8 13.5t35 5.5q102 3 119 18q10 10 43 94l442 1112l39 105l-53 -76l-795 -1175q-66 -99 -80 -99q-7 0 -14 7.5t-6 25.5l61 1167q4 51 3 72t-9 35 l-418 -1129l-39 -114q-2 -4 -2 -15q0 -13 6.5 -19t30.5 -9q14 -2 45 -2q12 0 37 1t39 1t14 -13q0 -22 -26 -22q-7 0 -20 1t-19 1h-19q-41 0 -65 1t-45 1h-138q-48 0 -73 -2q-5 0 -15.5 -1t-15.5 -1q-22 0 -22 14z" />
<glyph unicode="&#x41d;" horiz-adv-x="1423" d="M-117 16q0 9 6.5 16t20.5 7q4 0 11 -1t11 -1h5h43q82 0 102 20q9 9 18 31l60 129l415 1036q2 6 7.5 18.5t7.5 18.5q18 45 18 62q0 25 -33 30q-49 7 -67 7h-47q-45 0 -45 18q0 16 22 16l475 -4q10 0 25 1t45 1q29 0 29 -18q0 -6 -4 -14q-9 -11 -37 -11q-7 0 -22.5 1 t-22.5 1q-20 2 -62 2q-31 0 -47 -16q-11 -11 -57 -129l-156 -399q-26 -67 -26 -72q0 -21 54 -21h5h6h449q17 0 25 12.5t36 82.5l162 395q7 14 22 57.5t15 59.5q0 20 -21 24q-27 6 -69 6h-54q-30 0 -43 13q-4 4 -4 10q0 14 25 14l411 -2h45q11 0 32.5 1t33.5 1h25q14 0 20 -2 q14 -3 14 -14q0 -7 -7 -13t-21 -6q-4 0 -13.5 1t-13.5 1h-6h-45q-60 0 -86 -16q-7 -5 -13 -11t-12.5 -16.5t-10.5 -18t-11 -24.5t-11 -26.5t-13.5 -34t-14.5 -37.5l-391 -1016q-41 -104 -41 -116q0 -28 49 -35q38 -6 125 -6q33 0 33 -15q0 -18 -47 -18q-60 0 -236.5 2 t-208.5 2q-47 0 -70 -2q-5 0 -14 -1t-14 -1q-27 0 -27 18q0 21 37 21q9 0 26.5 -1t26.5 -1q90 0 103 10q12 9 22 39l207 539q18 45 18 51q0 28 -57 28h-455q-16 0 -22 -5.5t-16 -32.5l-195 -496q-33 -79 -33 -98q0 -21 23.5 -30t54.5 -7l111 4q8 0 11 -3.5t3 -15.5 q0 -8 -4 -12q-6 -6 -31 -6q-144 0 -241 3t-109 3q-39 0 -117 -4q-58 -4 -88 -4q-39 0 -39 20z" />
<glyph unicode="&#x41e;" horiz-adv-x="1454" d="M137 403q0 214 109 430t284 373q268 238 553 238q68 0 136 -19q108 -33 186 -131q108 -141 108 -333q0 -129 -38 -256q-33 -108 -94.5 -212t-129.5 -180q-63 -69 -153.5 -139t-169.5 -111q-171 -90 -357 -90q-204 0 -319 114.5t-115 315.5zM336 289q0 -184 110 -252 q56 -35 148 -35q105 0 197 53q46 25 104 76q102 89 177 203.5t138 277.5q109 286 109 478q0 78 -23 153q-7 22 -22 55q-62 117 -201 117q-63 0 -131.5 -26.5t-120.5 -65.5q-112 -81 -239 -279q-107 -169 -176.5 -380.5t-69.5 -374.5z" />
<glyph unicode="&#x41f;" horiz-adv-x="1423" d="M-117 16q0 9 6.5 16t20.5 7q4 0 11 -1t11 -1h5h43q79 0 102 20q24 24 78 160l415 1036q33 83 33 99q0 25 -33 30q-49 7 -67 7h-47q-45 0 -45 18q0 16 22 16l1159 -4h45q11 0 32.5 1t33.5 1h25q34 0 34 -18q0 -7 -7 -13t-21 -6q-4 0 -13.5 1t-13.5 1h-6h-45q-60 0 -86 -16 q-7 -5 -13 -11t-12.5 -16.5t-10.5 -18t-11 -24.5t-11 -26.5t-13.5 -34t-14.5 -37.5l-391 -1016q-41 -104 -41 -116q0 -28 49 -35q38 -6 125 -6q33 0 33 -15q0 -18 -47 -18q-60 0 -236.5 2t-208.5 2q-47 0 -70 -2q-5 0 -14 -1t-14 -1q-27 0 -27 18q0 21 37 21q9 0 26.5 -1 t26.5 -1q90 0 103 10q4 3 22 39l492 1294h-541l-471 -1210q-5 -12 -12 -30.5t-10.5 -26.5t-6 -18t-2.5 -17q0 -45 76 -43l111 4q8 0 11 -3.5t3 -15.5q0 -11 -7 -14.5t-28 -3.5q-144 0 -241 3t-109 3q-39 0 -117 -4q-58 -4 -88 -4q-39 0 -39 20z" />
<glyph unicode="&#x420;" horiz-adv-x="1161" d="M-111 14q0 8 8 14.5t19 6.5q4 0 11.5 -1t11.5 -1l106 -2q25 0 33 6q10 5 18 24l58 134l464 1189q-29 4 -75 0q-59 -6 -68 -6q-35 0 -45 13q-4 4 -4 10q0 9 14 14q8 4 27 4q13 0 37 -1t37 -1q8 0 24.5 1t24.5 1q35 2 104 2q263 0 383 -24q83 -17 140.5 -49.5t85 -74.5 t38.5 -79.5t11 -77.5q0 -48 -14 -97t-45.5 -103t-91 -104.5t-140.5 -86.5q-150 -68 -328 -68q-65 0 -198 17l-240 -623q-4 -10 3 -16t19 -6l158 2q7 0 14 -5.5t7 -11.5q0 -18 -41 -18q-84 0 -93 2t-98 2h-121q-19 0 -56 1t-56 1q-46 0 -69 -3t-44 -3q-29 0 -29 18zM553 715 q77 -21 156 -21q159 0 286 119q61 57 106.5 142.5t45.5 195.5q0 80 -31 131q-25 45 -72 68q-59 30 -165 30q-25 0 -37 -2q-11 0 -27 -4z" />
<glyph unicode="&#x421;" horiz-adv-x="1173" d="M135 410q0 252 137.5 505t358.5 400q193 127 387 127q67 0 110 -15.5t99 -56.5q31 -23 49 -41q33 -31 57 -31t39 25q17 23 25 23q12 0 12 -15q0 -20 -31 -86q-18 -41 -26 -55l-31 -62q-53 -131 -55 -139q-13 -33 -25 -33q-5 0 -10.5 6t-5.5 17q0 5 1.5 10t5.5 15.5 t7 23.5q12 42 12 96q0 130 -65 204.5t-180 74.5q-119 0 -228 -66q-127 -84 -219 -223q-60 -91 -109 -217t-71 -246q-21 -120 -21 -243q0 -121 45 -209q34 -65 88 -100.5t144 -35.5q25 0 65 7q59 11 117 43q20 11 82 57q36 30 81 77t64 81q26 45 43 45q13 0 13 -17 q0 -45 -115 -170q-103 -109 -223.5 -161t-239.5 -52q-237 0 -336 193q-51 97 -51 244z" />
<glyph unicode="&#x422;" horiz-adv-x="1167" d="M119 10q0 7 13.5 15t25.5 8q3 0 10 -1t10 -1h4h33q53 0 76 16q30 20 53 76l498 1255h-82q-112 0 -183 -20t-131 -76q-41 -38 -79 -100q-5 -8 -14.5 -24.5t-14.5 -24.5q-20 -36 -31 -58q-1 -1 -3 -5t-3.5 -6t-4 -6t-5 -6.5l-5 -5t-6 -3.5t-6.5 -1q-18 0 -4 33l154 344 q547 -9 1069 2q-61 -179 -61 -180q-18 -56 -31 -101.5t-23 -78.5q-3 -9 -5 -13.5t-7.5 -9t-13.5 -4.5q-17 0 -17 23q0 4 4 16q8 25 15 55q16 70 16 109q0 70 -37 102q-18 18 -51 29q-66 21 -248 8l-506 -1261q-12 -30 -12 -37q0 -45 131 -45q19 0 19 -15q0 -20 -41 -20 t-123 4q-45 2 -135 2q-72 0 -114 -4t-106 -4q-28 0 -28 14z" />
<glyph unicode="&#x423;" horiz-adv-x="1341" d="M82 -78q0 54 28 92.5t64.5 54t73.5 15.5q49 0 80.5 -31.5t31.5 -79.5q0 -47 -28 -75.5t-58 -28.5q-13 0 -18.5 4t-28.5 4q-12 0 -22 -11t-10 -24q0 -17 23.5 -33t64.5 -16q50 0 106 33q39 24 99.5 80.5t101.5 105.5l-21 1209q0 99 -30 131q-28 28 -113 28q-10 0 -30.5 -1 t-30.5 -1q-29 0 -29 19q0 24 37 24q7 0 20.5 -1t20.5 -1h26q41 1 116 -0.5t99 -1.5q27 0 82 1t82 1h82h11.5h14.5h14.5t14.5 -1t11.5 -3t8.5 -5t3 -7q0 -6 -6.5 -13.5t-18.5 -7.5l-120 -6q-18 -1 -26 -2.5t-18.5 -7.5t-17.5 -18q-6 -11 -9 -29t-3.5 -30t0 -37t0.5 -31 l14 -852l-4 -144q175 245 354 549q243 410 289 529q6 24 6 26q0 55 -90 55q-5 0 -19 -1t-22 -1q-28 0 -28 17q0 22 51 22q32 0 77.5 -3t100.5 -3q57 0 86 2q66 4 98 4q29 0 29 -16q0 -5 -1 -9t-4.5 -6t-6 -3.5t-8 -2t-8 -0.5h-9.5h-10q-84 0 -119 -18q-35 -17 -80 -98 q-46 -82 -82 -153t-79.5 -151t-133.5 -231q-236 -395 -377 -577q-175 -224 -301 -324q-117 -94 -217 -94q-80 0 -133 53q-51 51 -51 131z" />
<glyph unicode="&#x424;" horiz-adv-x="1619" d="M178 659q0 159 89 292.5t212 205.5q107 62 264 92.5t301 28.5l25 57q16 40 16 56q0 21 -20 24q-42 6 -72 6h-53q-45 0 -45 23q0 14 23 14l403 -2h45q10 0 32 1t32 1h32q35 0 35 -14q0 -21 -29 -21q-4 0 -13 1t-13 1h-6h-47q-59 0 -84 -16q-14 -8 -24 -22t-13.5 -22.5 t-12.5 -31.5l-26 -63q84 2 179.5 -20.5t166.5 -80.5q125 -103 125 -280q0 -143 -80 -282.5t-211 -233.5q-123 -88 -295 -123q-131 -29 -283 -29l-18 -55q-20 -64 -20 -90q0 -47 77 -45l113 4q8 0 11 -3.5t3 -15.5q0 -11 -6.5 -14.5t-27.5 -3.5q-11 0 -137 3t-212 3 q-61 0 -94.5 -4t-109.5 -4q-37 0 -37 20q0 23 24 23q4 0 11.5 -1t11.5 -1h4h47q73 0 96 20q16 13 51 97l31 75q-98 0 -183.5 32t-146.5 85q-141 121 -141 313zM373 541q0 -136 88 -207q40 -32 94.5 -48.5t110.5 -13.5l362 963q-227 5 -369 -96q-49 -35 -92.5 -86.5 t-71.5 -102t-43 -82.5t-22 -53q-57 -147 -57 -274zM848 264q141 -2 254 43q117 45 205 160q87 112 141.5 255.5t54.5 272.5q0 109 -55 166q-68 70 -238 66z" />
<glyph unicode="&#x425;" horiz-adv-x="1277" d="M-156 12q0 21 43 21q72 3 100 10.5t64 32.5q73 52 139 121l502 526l-69 524q-10 84 -37 111q-24 24 -84 24h-33h-4q-5 0 -16 -1t-17 -1q-22 0 -22 13q0 22 49 22t147 -4q43 -2 129 -2q67 0 185 4q16 0 49 1t53 1q25 0 25 -12q0 -25 -58 -25h-59q-73 0 -101 -20 q-17 -13 -20 -40t2 -56l45 -404l422 412q72 72 72 84q0 11 -21.5 19.5t-56.5 8.5h-43q-31 0 -31 15q0 18 35 18q9 0 58 -3t120 -3q113 0 168 4q8 0 23.5 1t23.5 1q25 0 25 -12t-21 -17q-20 -4 -65 -4q-91 0 -164 -61q-17 -15 -33 -30.5t-33.5 -34.5t-27.5 -29l-437 -424 l64 -565q8 -79 29 -140q7 -21 18 -35t19.5 -20.5t27 -10t26 -3.5h31.5h58q24 0 24 -13q0 -20 -41 -20q-5 0 -15 1t-15 1q-78 4 -232 4q-143 0 -215 -2q-21 0 -62 -1t-61 -1q-28 0 -34 8q-3 3 -3 8q0 3 2 5.5t6 4.5t8 3.5t11 2t12.5 1t14 0.5h14h14.5h13h86q14 0 22.5 1 t21.5 5.5t20.5 16t10.5 30.5q3 23 2 72.5t-4 72.5l-45 428l-465 -489q-81 -85 -81 -109q0 -11 7.5 -18t22.5 -9t27 -2.5t33 0.5t28 1h39q17 0 17 -11q0 -24 -60 -24q-44 0 -94.5 4t-120.5 4q-68 0 -88.5 -4t-91.5 -4q-27 0 -27 16z" />
<glyph unicode="&#x426;" horiz-adv-x="1429" d="M-117 16q0 9 6.5 16t18.5 7q4 0 12 -1t12 -1h5h43q82 0 102 20t78 160l411 1036q33 85 33 99q0 25 -33 30q-49 7 -67 7h-47q-45 0 -45 18q0 16 22 16l475 -4q10 0 25 1t45 1q29 0 29 -18q0 -25 -41 -25q-7 0 -22.5 1t-22.5 1q-20 2 -62 2q-31 0 -47 -16q-11 -11 -57 -129 l-469 -1194h551l469 1192q36 93 36 117q0 21 -20 24q-27 6 -70 6h-53q-22 0 -34.5 6.5t-12.5 16.5q0 14 25 14l411 -2h49q11 0 32.5 1t33.5 1h25q34 0 34 -16q0 -7 -7 -13t-21 -6q-4 0 -13.5 1t-13.5 1h-6h-45q-60 0 -86 -16q-7 -4 -13 -10t-12 -16t-10.5 -18.5t-11.5 -24.5 t-11.5 -27.5t-13 -34t-14.5 -37.5l-424 -1104q-5 -12 -6 -18t0.5 -14t12.5 -13.5t32 -9.5q54 -10 84 -27q59 -34 59 -104q0 -87 -78 -162q-50 -46 -124.5 -83.5t-149.5 -37.5q-53 0 -121 27l-199 84q-86 37 -125 37q-52 0 -84 -33t-32 -74q0 -11 5 -17.5t9 -6.5q7 0 19.5 16 t39.5 16q22 0 39 -15t17 -42q0 -25 -18.5 -45t-53.5 -20q-47 0 -73.5 30t-26.5 74q0 59 42 101.5t87 62.5q75 35 176 35q50 0 121 -23l186 -65q85 -31 127 -31q64 0 119 59q55 55 55 117q0 46 -43 68q-6 3 -12 5t-12 3.5t-15 3t-15 2t-18 1t-19 1t-22 0.5h-23h-26.5h-27.5 h-582q-111 0 -166 2q-15 0 -46 1t-46 1q-39 0 -117 -4q-58 -4 -88 -4q-39 0 -39 20z" />
<glyph unicode="&#x427;" horiz-adv-x="1179" d="M287 1407q0 16 22 16l463 -4q10 0 26 1t44 1t28 -18q0 -25 -36 -25q-32 0 -40 2t-59 2q-31 0 -47 -16q-17 -20 -57 -129l-131 -358q-29 -81 10 -132t127 -51q113 0 246 39l188 500q37 97 37 117q0 17 -21 24q-21 6 -69 6h-53q-22 0 -34.5 6.5t-12.5 16.5q0 14 24 14 l412 -2h41q11 0 34 1t35 1h25q35 0 35 -16q0 -7 -7.5 -13t-21.5 -6q-4 0 -13.5 1t-13.5 1h-6h-45q-60 0 -86 -16q-21 -14 -38 -49t-48 -119l-401 -1077q0 -1 -3.5 -11t-4.5 -12.5t-3.5 -12t-1.5 -13t1.5 -11.5t4 -11.5t9.5 -9t14.5 -7.5t20.5 -4t28 -2h54h4q6 0 17 1t17 1 q16 0 23.5 -6.5t7.5 -12.5q0 -7 -5 -11.5t-15.5 -6t-18.5 -1.5t-23.5 0.5t-21.5 0.5q-38 0 -112 4q-43 2 -131 2q-111 0 -166 -2q-14 0 -42 -1t-44 -1q-47 0 -47 20q0 19 32 19q14 0 38 -1t36 -1q61 0 84 14q16 9 32.5 37.5t24.5 50.5l213 559q-132 -39 -282 -39 q-143 0 -213 72q-56 59 -56 137q0 52 21 109l110 278q33 85 33 99q0 25 -33 30q-49 7 -67 7h-47q-45 0 -45 18z" />
<glyph unicode="&#x428;" horiz-adv-x="1941" d="M-117 16q0 9 6.5 16t20.5 7q4 0 11 -1t11 -1h5h43q79 0 102 20q45 39 88 156l401 1036q33 85 33 103q0 25 -33 30q-49 7 -67 7h-47q-45 0 -45 18q0 16 22 16l475 -4q10 0 25 1t45 1q29 0 29 -18q0 -25 -41 -25q-7 0 -22.5 1t-22.5 1q-20 2 -62 2q-31 0 -47 -16 q-17 -23 -57 -129l-457 -1190h444l457 1188q35 92 35 117q0 20 -21 24q-27 6 -69 6h-53q-22 0 -35 6.5t-13 16.5q0 14 25 14l412 -2h45q12 0 33 1t32 1h25q35 0 35 -16q0 -7 -7.5 -13t-21.5 -6q-4 0 -13.5 1t-13.5 1h-6h-45q-60 0 -86 -16q-11 -7 -20 -18.5t-18 -31 t-14.5 -33.5t-16.5 -44t-17 -45l-440 -1151h444l457 1188q37 94 37 117q0 20 -21 24q-27 6 -69 6h-54q-22 0 -34.5 6.5t-12.5 16.5q0 14 25 14l412 -2h45q11 0 32 1t33 1h25q35 0 35 -16q0 -7 -7.5 -13t-21.5 -6q-4 0 -13.5 1t-13.5 1h-6h-45q-60 0 -86 -16 q-11 -7 -20 -18.5t-18 -31t-14.5 -33.5t-16.5 -44t-17 -45l-385 -1010q-41 -104 -41 -118q0 -28 49 -35q38 -6 125 -6q33 0 33 -15q0 -18 -47 -18q-60 0 -236.5 2t-208.5 2h-911q-111 0 -166 2q-15 0 -46 1t-46 1q-39 0 -117 -4q-58 -4 -88 -4q-39 0 -39 20z" />
<glyph unicode="&#x429;" horiz-adv-x="1941" d="M-117 16q0 9 6.5 16t20.5 7q4 0 11 -1t11 -1h5h43q79 0 102 20q45 39 88 156l401 1036q33 85 33 103q0 25 -33 30q-49 7 -67 7h-47q-45 0 -45 18q0 16 22 16l475 -4q10 0 25 1t45 1q29 0 29 -18q0 -25 -41 -25q-7 0 -22.5 1t-22.5 1q-20 2 -62 2q-31 0 -47 -16 q-17 -23 -57 -129l-457 -1190h444l457 1188q35 92 35 117q0 20 -21 24q-27 6 -69 6h-53q-22 0 -35 6.5t-13 16.5q0 14 25 14l412 -2h45q12 0 33 1t32 1h25q35 0 35 -16q0 -7 -7.5 -13t-21.5 -6q-4 0 -13.5 1t-13.5 1h-6h-45q-60 0 -86 -16q-11 -7 -20 -18.5t-18 -31 t-14.5 -33.5t-16.5 -44t-17 -45l-440 -1151h444l457 1188q37 94 37 117q0 20 -21 24q-27 6 -69 6h-54q-22 0 -34.5 6.5t-12.5 16.5q0 14 25 14l412 -2h45q11 0 32 1t33 1h25q35 0 35 -16q0 -7 -7.5 -13t-21.5 -6q-4 0 -13.5 1t-13.5 1h-6h-45q-60 0 -86 -16 q-11 -7 -20 -18.5t-18 -31t-14.5 -33.5t-16.5 -44t-17 -45l-422 -1100q-6 -18 -6 -22q0 -15 8 -23.5t15.5 -10.5t23.5 -3q49 -6 82 -23q61 -34 61 -102q0 -91 -79 -166q-64 -62 -150.5 -93.5t-159.5 -31.5q-66 0 -141 27l-270 98q-77 29 -133 29q-36 0 -70 -19 q-57 -30 -57 -86q0 -26 14 -26q12 0 17.5 4.5t6.5 10.5t9.5 10.5t27.5 4.5q26 0 41 -16t15 -39q0 -27 -20 -47t-54 -20q-43 0 -71.5 28t-28.5 72q0 55 41.5 106t128.5 80q87 27 188 27q64 0 141 -25l219 -71q100 -33 148 -33q72 0 141 65q53 49 53 111q0 55 -51 72 q-47 14 -215 14h-1075q-111 0 -166 2q-15 0 -46 1t-46 1q-39 0 -117 -4q-58 -4 -88 -4q-39 0 -39 20z" />
<glyph unicode="&#x42a;" horiz-adv-x="1357" d="M76 10q0 8 15 15.5t28 7.5q8 0 11 -1t15 -1h35q46 0 72 18q27 18 51 78l496 1251h-99q-146 0 -233 -49q-103 -58 -182 -219q-33 -68 -52 -68q-12 0 -12 15q0 9 47 110q46 97 113 256q238 -8 426 -8h223q7 0 22.5 1t22.5 1q23 2 66 2h24q35 0 35 -16q0 -7 -7.5 -13 t-21.5 -6q-4 0 -13 1t-13 1h-6h-45q-62 0 -86 -16q-6 -4 -11.5 -9.5t-11.5 -15t-10 -17.5t-11 -24t-11.5 -27.5t-14.5 -35t-16 -39.5l-158 -393q107 8 209.5 -15t177.5 -73q149 -98 149 -268q0 -90 -37.5 -173.5t-97.5 -140.5q-151 -143 -463 -143q-49 0 -151 4 q-144 4 -217 4q-79 0 -123.5 -4t-104.5 -4q-30 0 -30 14zM477 94q-9 -22 6 -39q4 -5 10.5 -8.5t12.5 -5.5t15.5 -4t15.5 -2.5t17.5 -1t16 -0.5h17h14.5q210 0 336 110q79 70 121.5 178.5t42.5 202.5q0 104 -72 174q-97 93 -282 70z" />
<glyph unicode="&#x42b;" horiz-adv-x="1763" d="M-106 10q0 8 15 15.5t28 7.5q8 0 11 -1t15 -1h35q46 0 72 18q27 18 51 78l446 1126q33 85 33 99q0 25 -33 30q-49 7 -67 7h-47q-45 0 -45 18q0 16 28 16q24 0 104 -3t177 -3h131h45q11 0 32 1t33 1h25q35 0 35 -16q0 -7 -7.5 -13t-21.5 -6q-4 0 -13 1t-13 1h-7h-45 q-62 0 -86 -16q-6 -4 -11.5 -9.5t-11.5 -15t-10 -17.5t-11 -24t-11.5 -27.5t-14.5 -35t-16 -39.5l-157 -393q107 8 209.5 -15t177.5 -73q149 -98 149 -268q0 -90 -37.5 -173.5t-97.5 -140.5q-151 -143 -463 -143q-49 0 -151 4q-144 4 -217 4q-79 0 -123.5 -4t-104.5 -4 q-30 0 -30 14zM295 94q-9 -22 6 -39q4 -5 10.5 -8.5t12.5 -5.5t15.5 -4t15.5 -2.5t17.5 -1t16 -0.5h17h14.5q210 0 336 110q79 70 121.5 178.5t42.5 202.5q0 104 -72 174q-97 93 -283 70zM987 12q0 15 27 15h28h17.5h18t15.5 0.5t17 1.5t15 2.5t16 4t14 6.5t16 9q6 4 11 8 t7.5 6.5t5.5 7.5t4 6.5t3.5 8t3.5 8.5l473 1188q23 57 23 72q0 13 -14.5 24t-49.5 11h-82q-8 0 -12 2q-10 5 -10 14q0 14 27 14q13 0 36 -1t35 -1h10h353q23 0 40 1t27 1q31 0 31 -16q0 -6 -7 -12.5t-20 -6.5q-4 0 -11 1.5t-11 1.5h-6h-53q-30 0 -48.5 -8t-35.5 -35 q-30 -53 -56 -115l-440 -1125q-10 -20 -10 -34q0 -10 9.5 -21t31.5 -16q28 -7 59.5 -7t56.5 -5q4 0 9.5 -4t5.5 -9q0 -14 -29 -14l-494 2q-38 0 -47.5 2t-9.5 12z" />
<glyph unicode="&#x42c;" horiz-adv-x="1165" d="M-117 10q0 8 15 15.5t28 7.5q8 0 11.5 -1t15.5 -1h35q45 0 71 18q28 19 52 78l446 1126q33 85 33 99q0 25 -33 30q-49 7 -68 7h-47q-45 0 -45 18q0 16 29 16q24 0 104 -3t177 -3h131h45q11 0 32 1t33 1h25q35 0 35 -16q0 -7 -7.5 -13t-21.5 -6q-4 0 -13.5 1t-13.5 1h-6 h-45q-62 0 -86 -16q-6 -4 -11.5 -9.5t-11.5 -15t-10 -17.5t-11 -24t-11.5 -27.5t-14.5 -35t-16 -39.5l-158 -393q107 8 209.5 -15t177.5 -73q150 -99 150 -268q0 -90 -37.5 -173.5t-97.5 -140.5q-151 -143 -463 -143q-50 0 -152 4q-144 4 -217 4q-79 0 -123 -4t-104 -4 q-31 0 -31 14zM285 94q-9 -22 6 -39q4 -5 10.5 -8.5t12.5 -5.5t15.5 -4t15.5 -2.5t17.5 -1t16 -0.5h17h14.5q209 0 335 110q79 70 121.5 178.5t42.5 202.5q0 105 -71 174q-97 93 -283 70z" />
<glyph unicode="&#x42d;" horiz-adv-x="1275" d="M61 248q0 71 44.5 109t101.5 38q45 0 81 -28t36 -86q0 -49 -26.5 -78t-64.5 -29q-6 0 -22 4q-16 8 -25 8q-22 0 -22 -26q0 -32 28.5 -66.5t59.5 -52.5q67 -39 156 -39q18 0 36.5 1.5t59 11.5t79.5 28t91 55t100 88q107 114 188.5 281.5t122.5 327.5q-38 28 -90 28 q-91 0 -190 -82l-88 -73q-97 -82 -193 -82q-14 0 -26 1.5t-25 5.5t-17.5 6t-20.5 9t-17 8l-82 39q-24 10 -39.5 25t-15.5 27q0 6 5.5 11t12.5 5q8 0 16 -4.5t12.5 -8.5t10.5 -11l6 -7q16 -16 57 -16q35 0 71.5 15t57.5 29t50 38l69 55q46 36 70.5 53t66.5 33t86 16 q92 0 224 -75q32 121 32 229q0 153 -51 236q-63 106 -209 106q-162 0 -301 -139q-59 -61 -166 -217q-19 -29 -30 -29q-13 0 -13 18q0 8 5 20.5t25 64t46 128.5q43 137 49 160q7 29 23 29q14 0 14 -25q0 -41 45 -41q25 0 90 23q39 14 60.5 21t67 14.5t96.5 7.5 q186 0 299 -113q141 -139 141 -377q0 -162 -62 -321.5t-174 -298.5q-137 -170 -317 -270q-186 -103 -354 -103q-160 0 -248 74q-48 38 -75.5 97.5t-27.5 113.5z" />
<glyph unicode="&#x42e;" horiz-adv-x="1976" d="M-117 16q0 9 6.5 16t20.5 7q4 0 11 -1t11 -1h5h43q21 0 61 4q29 4 41 16q9 9 18 31l60 129l415 1036q13 30 31 84q2 4 2 15q0 12 -6 18q-6 8 -27 12q-49 7 -67 7h-47q-45 0 -45 18q0 9 10 14q4 2 12 2l475 -4h5q11 0 31.5 1t33.5 1q29 0 29 -18q0 -6 -4 -14 q-9 -11 -35 -11q-19 0 -43 2t-66 2q-31 0 -47 -16q-13 -16 -57 -129l-139 -358q-27 -69 -27 -72q0 -21 54 -21h5h6h154q109 245 293 420q124 118 262.5 178t261.5 60q194 0 303 -148q103 -140 103 -335q0 -167 -67.5 -343t-180.5 -305q-60 -69 -146 -139t-161 -111 q-166 -90 -342 -90q-192 0 -299 113.5t-107 316.5q0 167 64 338h-205q-16 0 -22.5 -6t-16.5 -33l-211 -536q-33 -79 -33 -98q0 -21 23.5 -30t54.5 -7l111 4q8 0 11 -3.5t3 -15.5q0 -11 -7 -14.5t-28 -3.5q-144 0 -241 3t-109 3q-39 0 -117 -4q-58 -4 -88 -4q-39 0 -39 20z M913 285q0 -38 4.5 -72t20.5 -74.5t42 -69t73 -48t110 -19.5q144 0 287 129q186 168 299 481q39 108 70.5 243t31.5 235q0 124 -43 208q-62 117 -190 117q-60 0 -125 -26.5t-115 -65.5q-110 -85 -227 -281q-108 -180 -173 -380t-65 -377z" />
<glyph unicode="&#x42f;" horiz-adv-x="1294" d="M-115 66q0 20 13.5 34.5t35.5 14.5q41 0 41 -35q0 -24 -14 -29q-3 -1 -10 -2.5t-10.5 -3t-3.5 -4.5q0 -4 3.5 -9t13.5 -9.5t23 -4.5q66 0 148 127l178 271q96 148 229 227q113 64 254 84v4q-54 0 -114.5 14t-102.5 39q-118 72 -118 226q0 65 18.5 121.5t49.5 96t62 66.5 t64 45q152 84 393 84q48 0 138 -4q43 -2 127 -2h165h17q15 0 47 1t47 1h25q34 0 34 -16q0 -7 -7 -13t-21 -6q-4 0 -13.5 1t-13.5 1h-6h-45q-61 0 -86 -16q-12 -7 -22 -19t-23 -40t-19 -43.5t-26 -65.5l-395 -1036q-6 -16 -13.5 -35t-11 -28t-6 -18.5t-2.5 -16.5 q0 -21 23.5 -30t54.5 -7l98 4q8 0 11 -3.5t3 -15.5q0 -11 -7 -14.5t-28 -3.5q-101 0 -176 1.5t-114 3t-52 1.5q-38 0 -112 -4q-58 -4 -88 -4q-39 0 -39 20q0 23 26 23q4 0 11.5 -1t11.5 -1h4h43q82 0 102 20q24 24 78 160l195 488q-128 19 -248 -60q-101 -63 -188 -194 l-195 -295q-57 -86 -141 -133q-78 -43 -164 -43q-83 0 -117.5 27t-34.5 59zM639 983q0 -121 63 -176q70 -59 285 -59l230 585q7 9 6 21.5t-19 23.5q-23 13 -92 13q-239 0 -362 -127q-111 -116 -111 -281z" />
<glyph unicode="&#x430;" horiz-adv-x="997" d="M16 219q0 74 35 163.5t94 172.5q64 90 156 172q89 79 167 117.5t157 38.5q59 0 102 -23q63 -38 70 -125l51 109q2 5 5.5 13.5t5.5 11t6.5 5.5t11.5 3q3 0 11 -2t13 -3q20 -4 33 -4q42 0 65 13q1 0 4 1.5t5.5 2.5t6 1t6 -1t4 -4.5t1.5 -8.5q0 -4 -16 -43l-271 -614 q-15 -34 -22 -57q-17 -49 -17 -76q0 -55 54 -55t104 45q30 27 55 63q14 18 19 21q2 2 6 2q8 0 8 -8q0 -22 -45 -72q-87 -96 -211 -96q-73 0 -110 33t-37 79q0 11 3 27l3 16q5 22 8 27q-48 -74 -111 -125q-81 -66 -190 -66q-85 0 -150 50q-90 69 -90 196zM197 162 q0 -51 14 -80q26 -59 98 -59q31 0 72 18q30 15 55 37q89 74 146 196l159 344q27 57 27 89q0 31 -18 67q-34 66 -121 66q-80 0 -148 -68q-24 -24 -45 -51q-53 -67 -95.5 -141.5t-57.5 -108.5q-86 -176 -86 -309z" />
<glyph unicode="&#x431;" horiz-adv-x="966" d="M53 289q0 148 88 358q87 206 197 357q83 112 180 192q78 63 178 90q21 6 40.5 10.5t43 8t36 5.5t42.5 4t39.5 2.5t49 2.5t50.5 2q84 3 121 25q15 10 32 27.5t24 31.5q7 13 9.5 24.5t4.5 16.5q5 14 18 14q19 0 19 -18q0 -25 -43 -88q-73 -109 -166 -160q-69 -38 -197 -49 q-15 -1 -57 -4t-53 -4t-44 -4.5t-43 -5.5t-35 -6t-35 -8.5t-29.5 -11.5t-31.5 -15t-27 -18.5t-30 -23.5q-82 -73 -162 -219q-71 -139 -86 -192h2q89 111 211.5 177.5t229.5 66.5q134 0 210 -92t76 -234q0 -244 -219 -432q-174 -152 -350 -152q-147 0 -227 103 q-66 84 -66 219zM205 160q0 -156 137 -156q168 0 287 221q55 103 92 232.5t37 224.5q0 27 -5 50.5t-17.5 50t-41 42t-69.5 15.5q-176 0 -301 -244q-50 -96 -84.5 -217t-34.5 -219z" />
<glyph unicode="&#x432;" horiz-adv-x="851" d="M29 199q0 95 84 274q106 227 274 340q109 72 240 72q97 0 159 -43q64 -47 64 -129q0 -119 -133 -187q-41 -21 -90 -35t-81 -19t-95 -13v-2q84 0 163 -27q138 -49 138 -172q0 -71 -50.5 -138.5t-164.5 -109.5q-108 -39 -220 -39q-136 0 -211 58q-77 60 -77 170zM186 125 q0 -62 36.5 -88.5t84.5 -26.5q40 0 87.5 17t84.5 45q51 39 76 96t25 108q0 80 -54 121q-48 37 -135 37q-51 0 -125 -18q-64 -185 -74 -232q-6 -32 -6 -59zM281 455q157 16 264 69q89 47 127 113q30 58 30 125q0 28 -9.5 47t-24.5 26.5t-26.5 10t-23.5 2.5q-111 0 -204 -135 q-74 -106 -133 -258z" />
<glyph unicode="&#x433;" horiz-adv-x="757" d="M10 139q0 78 40 135.5t91 92.5q64 43 267 122q105 41 145 89q41 48 41 120q0 12 -1 23.5t-8.5 31.5t-20 34.5t-38.5 26t-61 11.5q-71 0 -127 -34q-66 -41 -127 -132q-19 -24 -35 -24q-18 0 -18 18t24 50t47 55q60 60 125 92q70 33 158 33q124 0 190 -49q64 -47 64 -136 q0 -43 -18 -74t-54 -61q-12 -9 -23.5 -17t-28 -17t-25.5 -14t-32 -15t-30 -13t-36.5 -15.5t-35.5 -14.5q-147 -63 -204 -115q-84 -76 -84 -182q0 -61 30 -94q37 -46 115 -46q51 0 94.5 14.5t72.5 38t44.5 40.5t26.5 34q2 3 10.5 16.5t13.5 20t13.5 13t17.5 6.5q16 0 16 -17 q0 -26 -39 -73.5t-75 -73.5q-70 -52 -139 -68t-150 -16q-102 0 -154 33q-82 50 -82 151z" />
<glyph unicode="&#x434;" horiz-adv-x="931" d="M37 276q0 153 96 299q83 127 211 207q54 35 126 65t136 30q115 0 176 -107q54 204 54 373q0 149 -54 209q-52 59 -153 59q-78 0 -140 -33q-9 -5 -20 -11.5t-26 -23.5t-15 -34q0 -6 2 -10t3.5 -5t6.5 -4l6 -2q13 -6 22 -18.5t9 -24.5q0 -23 -19 -45t-52 -22q-28 0 -48 16 t-20 49q0 46 36 89t95 73q80 39 166 39q179 0 268 -129q41 -63 60.5 -153t19.5 -177q0 -126 -36.5 -289t-96.5 -295q-85 -194 -219 -305q-70 -57 -154.5 -93t-157.5 -36q-113 0 -192 82q-90 93 -90 227zM195 158q0 -42 11.5 -72.5t27 -45.5t36 -24t32.5 -10.5t24 -1.5 q124 0 225 143q69 97 126.5 257t90.5 315q-14 33 -35 57.5t-39.5 36t-38 18.5t-28.5 8t-15 1q-73 0 -150 -57.5t-140 -170.5q-50 -91 -88.5 -216t-38.5 -238z" />
<glyph unicode="&#x435;" horiz-adv-x="778" d="M29 250q0 42 11 87.5t36.5 103t77.5 123t125 128.5q216 189 401 189q86 0 128 -40t42 -100q0 -94 -88 -161q-49 -37 -107 -58q-76 -27 -143 -33q-54 -4 -82 -4q-74 0 -145 11q-40 -83 -58 -146.5t-18 -144.5q0 -20 1.5 -37.5t10.5 -46.5t25 -49.5t47.5 -36t75.5 -15.5 q11 0 21.5 0.5t21 3t17.5 4t17.5 5.5t15 5.5t15.5 7l13 6.5t14 8l12 6q31 18 48.5 33t49.5 53q22 28 35 28q10 0 10 -12q0 -20 -32 -55t-64 -60q-103 -80 -227 -80q-132 0 -219.5 76.5t-87.5 200.5zM301 522q221 -19 342 123q62 72 62 131q0 64 -64 64q-68 0 -129 -49 q-54 -41 -111 -116t-100 -153z" />
<glyph unicode="&#x436;" horiz-adv-x="1589" d="M-49 90q0 47 27.5 68.5t60.5 21.5q26 0 44.5 -17.5t18.5 -45.5q0 -19 -10 -34t-24 -20q-1 0 -6 -1.5t-7 -2.5l-6 -3t-5.5 -4.5t-3 -6t-1.5 -8.5q0 -31 51 -31q119 0 236 199q31 52 69.5 132t55.5 130q18 52 32.5 127t14.5 127q0 125 -92 125q-59 0 -121 -62 q-16 -16 -28 -31t-17 -23t-20.5 -35.5t-24.5 -43.5q-15 -28 -29 -28q-12 0 -12 16t30 70q34 61 76 100q81 78 189 78q97 0 149 -56q49 -49 49 -149q0 -107 -43 -215h156l141 350q2 5 5 13.5t5 13.5t6 10.5t9 7.5q0 4 23.5 1t25.5 -3q27 0 57 10q12 4 19 4q16 0 16 -14 q0 -7 -4.5 -16t-12 -22.5t-12.5 -24.5l-133 -330h158q73 145 170 246q73 76 154.5 124t150.5 48q61 0 92 -39.5t31 -81.5q0 -33 -24.5 -58.5t-59.5 -25.5q-30 0 -45.5 19.5t-15.5 39.5q0 13 11 29.5t23 22.5q1 0 5 1.5t5.5 2.5l4.5 3t4.5 4.5t2.5 6t1 8.5q0 6 -2 12 t-12 12.5t-27 6.5q-115 0 -232 -197q-31 -53 -67 -133.5t-55 -138.5q-18 -52 -31.5 -123.5t-13.5 -116.5q0 -67 28 -99t70 -32q55 0 131 70q67 64 94 127q1 2 4 8.5t5 10t5 8.5t6.5 7.5t6.5 2.5q4 0 8 -4.5t4 -12.5q0 -12 -35 -75q-47 -79 -120.5 -131t-151.5 -52 q-44 0 -85 17t-67 43q-51 51 -51 143q0 58 17.5 130t41.5 126h-157l-166 -410q-4 -11 -6.5 -15.5t-10.5 -9.5t-22 -5h-16q-24 0 -45 -6q-25 -5 -29 -5q-23 0 -23 19q0 5 13 31q3 6 7 15.5t5 12.5l149 373h-155q-91 -190 -201 -295q-66 -64 -151 -113t-154 -49 q-58 0 -94.5 33.5t-36.5 87.5z" />
<glyph unicode="&#x437;" horiz-adv-x="755" d="M-63 143q0 42 27.5 71.5t68.5 29.5q32 0 51.5 -20t19.5 -48q0 -50 -53 -59q-2 0 -5 -1q-24 -5 -27 -17l-1 -7q0 -20 17 -36t39 -25q47 -21 102 -21q61 0 120.5 20.5t96.5 53.5q39 34 63.5 86.5t24.5 105.5q0 69 -35.5 111.5t-117.5 42.5q-19 0 -34 -2t-32 -2 q-16 0 -25.5 5.5t-11.5 10t-2 9.5q0 8 10 15t27 7q14 0 28 -2t34 -2q62 0 117.5 27.5t92.5 66.5q60 69 60 154q0 114 -115 114q-65 0 -117 -28q-48 -22 -98 -72q-33 -33 -67 -82q-12 -18 -27 -18q-7 0 -14 5.5t-7 16.5q0 22 43 70q37 42 74 70q60 49 131 73q56 19 127 19 q114 0 172 -39q70 -49 70 -133q0 -98 -102 -168q-121 -83 -263 -88v-4q101 -8 166 -43q53 -28 77 -70t24 -84q0 -60 -48 -123.5t-124 -101.5q-124 -62 -289 -62q-129 0 -195 45q-73 51 -73 129z" />
<glyph unicode="&#x438;" horiz-adv-x="1069" d="M29 14q0 12 16 37q2 4 10 17t13 22l262 608q24 55 24 86q0 20 -8 31q-9 14 -31 14q-66 0 -139 -98q-44 -59 -53 -76q-10 -20 -21 -20q-16 0 -16 14q0 15 16 37q44 66 82 107q47 50 99 73q48 23 94 23q31 0 55 -8q22 -5 43 -23q35 -31 35 -92q0 -42 -14 -74l-207 -467 l-43 -84h2l672 674q43 43 49 43q1 0 4 -1t4 -1q6 -2 16 -2h17q25 0 49 4q5 1 12.5 3.5t9.5 2.5q12 0 6 -18l-247 -567q-47 -104 -54 -125q-16 -48 -16 -80q0 -27 12 -39t37 -12q54 0 113 47q39 31 69 69q11 17 21 17q4 0 8 -4t4 -11q0 -12 -17 -33t-32 -34q-3 -3 -33 -27 q-18 -15 -39 -27q-71 -43 -143 -43q-63 0 -108 29q-50 33 -50 88q0 26 17 66l207 467l38 82h-2l-673 -674q-41 -41 -52 -41q-3 0 -19 3t-36 3q-16 0 -26.5 -3t-16.5 -3t-10 2q-10 7 -10 18z" />
<glyph unicode="&#x439;" horiz-adv-x="1069" d="M29 14q0 12 16 37q2 4 10 17t13 22l262 608q24 55 24 86q0 20 -8 31q-9 14 -31 14q-66 0 -139 -98q-44 -59 -53 -76q-10 -20 -21 -20q-16 0 -16 14q0 15 16 37q44 66 82 107q47 50 99 73q48 23 94 23q64 0 98 -31q35 -31 35 -92q0 -42 -14 -74l-207 -467l-43 -84h2 l672 674q43 43 47 43q6 0 9 -2t17 -2h17q25 0 49 4q5 1 12.5 3.5t9.5 2.5q12 0 6 -18l-247 -567q-47 -104 -54 -125q-16 -48 -16 -80q0 -27 12 -39t37 -12q54 0 113 47q39 31 69 69q11 17 21 17q4 0 8 -4t4 -11q0 -12 -17 -33t-32 -34q-59 -46 -72 -54q-71 -43 -143 -43 q-63 0 -108 29q-50 33 -50 88q0 26 17 66l207 467l38 82h-2l-673 -674q-41 -41 -52 -41q-3 0 -19 3t-36 3q-16 0 -26.5 -3t-16.5 -3q-20 0 -20 20zM604 1143q0 45 29 74q30 30 78 30q41 0 62.5 -23.5t21.5 -60.5q0 -40 -20 -56.5t-46 -16.5q-8 0 -20 4q-16 8 -23 8 q-14 0 -14 -17q0 -14 18.5 -27.5t52.5 -13.5q85 0 145 40.5t89 89.5q32 54 43 114q7 43 27 43q16 0 16 -20q0 -29 -19.5 -84t-39.5 -84q-43 -65 -116.5 -99t-146.5 -34q-61 0 -98 37q-39 39 -39 96z" />
<glyph unicode="&#x43a;" horiz-adv-x="1052" d="M33 16l284 682q25 57 25 86q0 20 -8 31q-9 14 -31 14q-66 0 -139 -98q-44 -59 -53 -76q-10 -20 -21 -20q-16 0 -16 14q0 15 16 37q44 66 82 107q48 51 98 73q50 23 103 23q59 0 92 -31q35 -31 35 -92q0 -44 -15 -74l-84 -207h62q75 0 133 45q40 30 131 162 q85 124 109 148q60 63 143 63q59 0 88 -33t29 -77q0 -38 -22.5 -64.5t-61.5 -26.5q-32 0 -48 18.5t-16 41.5q0 19 13 41q6 9 6 20q0 31 -33 31q-22 0 -44 -15t-35 -30.5t-30 -40.5q-7 -10 -22.5 -31.5t-22.5 -31.5q-9 -13 -28.5 -40.5t-28.5 -41.5q-56 -76 -82 -101 q-47 -44 -102 -57v-2q79 0 137 -39q61 -43 61 -129q0 -23 -14 -105t-14 -112q0 -51 39 -51q29 0 62 23.5t56 51.5q50 63 76 144q9 28 25 28q5 0 10.5 -5t5.5 -13q0 -24 -35.5 -91t-70.5 -102q-36 -36 -85.5 -58.5t-97.5 -22.5q-66 0 -108.5 39t-42.5 112q0 24 14 115 q12 69 12 102q0 50 -30 74q-31 25 -103 25h-51l-164 -392q-4 -9 -7.5 -16t-5.5 -11.5t-6 -8t-5 -5.5t-5.5 -3t-5.5 -1.5t-6 -1t-6 -0.5l-92 -10q-18 -2 -25.5 -5t-13.5 -3q-22 0 -10 24z" />
<glyph unicode="&#x43b;" horiz-adv-x="1028" d="M-76 109q0 45 27 73.5t69 28.5q36 0 61 -22.5t25 -61.5q0 -35 -19 -53.5t-44 -18.5q-15 0 -35 15q-10 10 -20 10q-13 0 -13 -12q0 -20 22 -38t54 -18q73 0 172 84q124 102 326 414q114 173 151 254q2 6 5 12.5t4.5 10t1.5 6.5q0 12 -9 18t-15.5 7t-22.5 3q-26 2 -63.5 2 t-55.5 2q-8 0 -19.5 5.5t-11.5 15.5q0 16 29 16q20 0 52.5 -2.5t66.5 -3.5q31 -2 63 -2h133h47q26 1 46 5.5t34 4.5q29 0 29 -18q0 -6 -10 -29q-15 -30 -17 -35l-262 -632q-18 -48 -18 -78q0 -49 45 -49q36 0 86 37t77 75q23 35 35 35q13 0 13 -12q0 -19 -29.5 -53.5 t-52.5 -55.5q-82 -72 -176 -72q-61 0 -104.5 32t-43.5 91q0 54 49 170l228 545h-52q-23 -39 -64.5 -109t-60 -101t-50.5 -81.5t-66 -99.5q-208 -304 -332 -389q-87 -60 -164 -60q-39 0 -74 27q-47 41 -47 107z" />
<glyph unicode="&#x43c;" horiz-adv-x="1284" d="M-78 109q0 45 27 73.5t69 28.5q36 0 61 -22.5t25 -61.5q0 -35 -19 -53.5t-44 -18.5q-15 0 -35 15q-10 10 -20 10q-13 0 -13 -12q0 -23 23.5 -39.5t52.5 -16.5q19 0 57 17q65 33 115 104q55 77 135 260q93 212 129 326q13 47 13 61q0 23 -9 31t-26 10q-15 2 -49.5 2 t-73.5 2q-35 0 -35 21q0 16 23 16q21 0 95 -4t109 -4q68 0 160 10l-49 -663l451 616q2 3 5 8.5t5 8.5q1 2 4 6t4 6q3 5 4.5 7t4.5 4.5t6.5 3.5t9.5 1q28 0 33 -2t30 -2q35 0 55 4q7 1 13 3.5t8 2.5q4 0 8 -4.5t4 -9.5q0 -6 -43 -113l-252 -639q-6 -18 -6 -28q0 -20 12 -37 t39 -17q39 0 90 39q43 32 84 80q10 15 21 15q12 0 12 -17q0 -19 -51 -65q-19 -19 -55 -43q-80 -54 -144 -54q-60 0 -104 41q-35 33 -35 84q0 52 21 103l182 442l49 119h-2l-514 -705l-12 -18q-4 -6 -12 -15.5t-9 -11.5l-18 -24q-15 -15 -19 -15q-9 0 -13.5 12t-4.5 23 q-2 10 -2 31l43 723h-2l-33 -94q-34 -95 -123 -301q-84 -192 -145 -271q-31 -40 -63.5 -67t-60 -38t-43.5 -14.5t-30 -3.5q-41 0 -76 27q-47 41 -47 107z" />
<glyph unicode="&#x43d;" horiz-adv-x="1038" d="M29 4q0 3 1.5 7t5 10t5.5 12q3 7 7.5 19t6.5 16l260 630q25 64 25 86q0 20 -8 31q-9 14 -31 14q-66 0 -139 -98q-44 -59 -53 -76q-10 -20 -21 -20q-16 0 -16 14q0 15 16 37q44 66 82 107q48 51 98 73q51 23 99 23q61 0 92 -31q35 -31 35 -92q0 -36 -15 -74l-82 -200h332 l133 321q2 4 5.5 14.5t5 14t5 9t8 7.5t11.5 2q3 0 8 -1t8 -1q8 -2 27 -2h35q27 0 43.5 5t17.5 5q4 0 7.5 -3.5t3.5 -6.5q0 -2 -3 -6.5t-4 -7.5l-272 -656q-31 -76 -31 -108q0 -49 54 -49q36 0 82.5 31t78.5 69q24 27 33 27q10 0 10 -11q0 -20 -32 -52t-58 -50 q-82 -57 -174 -57q-67 0 -105 32t-38 95q0 40 18 82l105 251h-332l-174 -419q-6 -14 -7.5 -18t-5 -9t-7 -5.5t-9.5 -0.5q-15 0 -43 4q-10 2 -33 2q-15 0 -43 -4q-2 0 -6.5 -1t-7.5 -1q-14 0 -14 10z" />
<glyph unicode="&#x43e;" horiz-adv-x="946" d="M37 279q0 114 64 239.5t184 220.5q80 63 170 100.5t170 37.5q129 0 204.5 -92t75.5 -234q0 -244 -219 -432q-174 -152 -356 -152q-134 0 -213.5 91.5t-79.5 220.5zM195 160q0 -156 137 -156q171 0 286 221q56 105 93 232.5t37 226.5q0 16 -1.5 30.5t-9.5 39t-21.5 42 t-41.5 31t-66 13.5q-170 0 -295 -244q-50 -98 -84 -218t-34 -218z" />
<glyph unicode="&#x43f;" horiz-adv-x="983" d="M-6 4q0 4 10 21q3 6 6 12.5t4 9.5l314 754q6 12 6 16q0 5 -2.5 8.5t-9 5.5t-10.5 2.5t-13.5 1.5t-11.5 1q-48 2 -58 12q-4 4 -4 10t11 12q4 2 14 2q5 0 18 -1.5t23 -2.5q47 -4 86 -4h448h21q35 0 104.5 2t110.5 2t41 -20q0 -14 -23 -14q-69 -4 -84 -13q-12 -8 -30 -45 l-250 -602q-29 -72 -29 -88q0 -43 49 -43q21 0 53 12q33 15 91 64q27 24 39 24t12 -10q0 -17 -68 -67q-91 -68 -194 -68q-74 0 -109 31.5t-35 70.5q0 26 39 121l250 600h-307l-332 -796q-1 -3 -6 -17q-6 -14 -23 -14q-2 0 -30 4q-20 2 -41 2q-15 0 -30 -3t-34 -3 q-16 0 -16 10z" />
<glyph unicode="&#x440;" horiz-adv-x="993" d="M-371 -496q0 21 58 23q5 0 19.5 0.5t22 1.5t19 2.5t20 5t15.5 8.5q6 4 11 11t8.5 12.5t8.5 17t7.5 16.5t8 20t7.5 20l475 1140q19 46 19 49q0 17 -31 17h-8q-7 0 -20.5 -1t-20.5 -1q-35 0 -35 16q0 15 25 15h79q126 0 175 14q4 2 12 2q12 0 12 -12q0 -14 -57 -140 q136 144 276 144q90 0 156 -49q92 -71 92 -197q0 -47 -8 -86q-20 -109 -78 -211.5t-141 -183.5q-56 -56 -121 -97q-136 -84 -268 -84q-78 0 -123 41q-41 38 -56 84l-235 -577q70 0 119 -8q30 -4 30 -13q0 -16 -47 -16q-34 0 -108 4q-54 4 -80 4q-42 0 -83 -4t-112 -4 q-18 0 -26 2q-17 3 -17 14zM223 150q0 -29 17 -60q40 -72 122 -72q42 0 97 25q116 59 219 254q131 243 131 418q0 76 -47 106q-27 15 -60 15q-57 0 -116 -36t-103 -91q-87 -106 -170 -310l-67 -168q-23 -61 -23 -81z" />
<glyph unicode="&#x441;" horiz-adv-x="729" d="M33 254q0 63 22 131q54 163 207 309q96 95 197.5 141t189.5 46q82 0 127 -44t45 -108q0 -48 -25 -74t-59 -26q-29 0 -51 20.5t-22 48.5q0 19 12.5 34.5t42.5 15.5q12 0 22 -5q12 -6 17 -6q12 0 16 13q2 4 2 10q0 26 -26 49q-41 35 -103 35q-31 0 -82 -19 q-113 -50 -211 -207q-14 -22 -32 -55.5t-47 -96t-47.5 -138t-18.5 -144.5q0 -59 18 -96q36 -74 140 -74q22 0 32 2q40 6 72 23q65 33 129 117q24 24 33 24q10 0 10 -12q0 -23 -46 -69.5t-91 -75.5q-81 -50 -180 -50q-91 0 -162 39q-131 77 -131 242z" />
<glyph unicode="&#x442;" horiz-adv-x="1400" d="M-14 6q0 4 3.5 9t9.5 15t11 23l309 735q13 29 13 31q0 3 -1.5 6t-3.5 4.5l-4 3t-5 2.5l-3 1q-6 2 -20 2q-13 0 -37 4q-20 5 -20 16q0 14 22 14q1 0 43 -4t98 -4h826q43 0 141 2t119 2q33 0 33 -18q0 -16 -21 -16q-16 -2 -30.5 -2.5t-24 -1t-21.5 -3.5q-20 -4 -29 -15.5 t-24 -47.5l-233 -555q-39 -93 -39 -119q0 -43 47 -43q41 0 92 37q17 10 29 22q5 4 28 27q17 17 29 17t12 -11q0 -1 -1 -3t-1 -3q-13 -25 -67 -65q-57 -38 -82 -50q-57 -24 -111 -24q-50 0 -82 24q-41 32 -41 84q0 45 45 154l238 565h-287l-321 -762q-4 -11 -6.5 -16.5t-3 -7 t-3 -7t-6.5 -14.5q-11 -22 -31 -22q-8 0 -28 4q-12 2 -37 2q-28 0 -32 -3t-27 -3q-15 0 -15 10q0 3 2.5 8.5t11 23t17.5 38.5l315 749h-286l-322 -768q-18 -43 -24.5 -51t-18.5 -6q-30 6 -61 6q-28 0 -52 -4l-8 -2t-6.5 -1.5t-5.5 -0.5q-12 0 -12 12z" />
<glyph unicode="&#x443;" horiz-adv-x="991" d="M-168 -457q0 35 25.5 57.5t62.5 22.5q19 0 28.5 -8.5t11 -17t1.5 -25.5q0 -37 29 -37q37 0 100 51.5t115 114.5q77 91 110 156q35 72 35 131q0 7 -1 20.5t-1 20.5v8l-4 639q0 33 -1.5 52.5t-6.5 43t-18 34.5t-33 11q-39 0 -80 -51q-40 -47 -64 -107q0 -1 -4.5 -13 t-7 -16.5t-7 -12.5t-10 -11.5t-12.5 -3.5q-3 0 -6 1t-6.5 6t-3.5 12q0 22 41 98q10 20 20 35q86 137 224 137q83 0 110 -62q21 -53 19 -157l-6 -439q0 -79 4 -133l32 50l359 585q54 91 82 119q31 31 69 31q41 0 58.5 -21t17.5 -47q0 -31 -19.5 -52.5t-54.5 -21.5 q-27 0 -36 23q-8 25 -21 25q-11 0 -59 -72l-273 -443q-181 -294 -311 -467t-238 -260q-86 -73 -180 -73q-38 0 -64 17t-26 50z" />
<glyph unicode="&#x444;" horiz-adv-x="1316" d="M-82 -426q0 44 26 65t56 21q24 0 42.5 -13t18.5 -36q0 -21 -16 -37q-14 -14 -14 -35q0 -18 13 -31.5t44 -13.5q42 0 84.5 22.5t73.5 57.5q23 25 57.5 87.5t54.5 113.5l80 215l27 90q-42 -53 -98 -84q-56 -29 -103 -29q-41 0 -86.5 24.5t-79.5 76.5q-61 92 -61 215 q0 158 98 317q80 132 207 211q113 70 215 70q52 0 92.5 -27t57.5 -76h2l26 82q49 150 123 289q55 105 111 166q62 68 136.5 100.5t141.5 32.5q47 0 84 -18q38 -18 58 -50.5t20 -66.5q0 -33 -20 -53q-23 -23 -50 -23q-28 0 -45.5 18t-17.5 41q0 13 12 29q19 29 19 43 q0 9 -6.5 20.5t-12.5 16.5q-18 14 -59 14q-89 0 -154 -102q-31 -48 -80 -170q-40 -99 -57 -152q-46 -135 -49 -143l-33 -80h2q44 54 96 82q49 27 95 27q108 0 178 -97q63 -86 63 -206q0 -171 -102 -330q-82 -125 -213 -209q-115 -72 -207 -72q-66 0 -103.5 32t-50.5 75h-2 l-98 -238q-59 -144 -180 -254q-137 -123 -262 -123q-55 0 -103 27q-51 29 -51 88zM180 158q0 -69 21 -111q22 -43 71 -43q39 0 95 33q52 36 98 106q19 30 37.5 71.5t30.5 73t34.5 94.5t34.5 95q4 9 17.5 44t19.5 53t15.5 47t13.5 52t4 42q0 51 -28 90t-89 39q-70 0 -135 -62 q-41 -38 -81 -105.5t-56.5 -107t-28.5 -71.5q-29 -78 -51.5 -172.5t-22.5 -167.5zM649 119q0 -56 37 -85.5t80 -29.5q61 0 129 64q48 43 96 123.5t82 164.5q74 191 74 342q0 68 -21 105q-22 41 -79 41q-50 0 -91 -31q-48 -36 -86 -90q-47 -63 -149 -350q-72 -208 -72 -254z " />
<glyph unicode="&#x445;" horiz-adv-x="958" d="M-66 96q0 46 27 76q16 16 29 21q15 6 30 6q20 0 43 -15q23 -17 23 -47t-37 -51q-1 -1 -3.5 -2.5t-3.5 -2t-3 -2t-3 -2.5l-2.5 -2.5t-2 -3t-2 -3.5t-1.5 -4t-0.5 -4t-0.5 -5q0 -26 30 -39q15 -6 35 -6q75 0 154 82q34 36 82 111q60 99 98 239q4 15 12.5 45t12.5 45 q2 8 8 29.5t7.5 27t5.5 21.5t5 22t3.5 18.5t3 20.5t1 18.5t0.5 21.5q0 51 -12 75q-18 45 -74 45q-81 0 -153 -69q-27 -24 -74 -90q-23 -37 -39 -37q-14 0 -14 14q0 7 12 31q1 1 11.5 15.5t23.5 30.5t27 30q70 74 135 102q51 23 118 23q95 0 144 -43q30 -27 45.5 -77.5 t15.5 -94.5q55 88 107 137q82 80 174 80q13 0 37 -4q10 -2 37 -15q51 -27 51 -90q0 -20 -7 -35t-16 -21.5t-20.5 -10.5t-16.5 -4.5t-8 -0.5q-25 0 -42 15t-17 37q0 17 18 28q19 14 19 31q0 16 -13.5 28.5t-38.5 12.5q-41 0 -94 -41q-30 -26 -73 -76q-53 -64 -78 -110 q-40 -75 -90 -238q0 -1 -7 -24.5t-8.5 -30t-8 -30t-8.5 -35t-6.5 -33.5t-6.5 -38t-3.5 -36t-1.5 -39q0 -115 86 -115q36 0 76 21q46 25 88 70.5t66 90.5q2 3 5 10.5t5 10.5q18 27 27 27q10 0 10 -13q0 -17 -20 -53.5t-42 -65.5q-104 -133 -256 -133q-17 0 -34.5 1.5 t-49.5 11.5t-55 27.5t-41 53.5t-18 85q0 27 2 41q1 7 2 20t2 20q-63 -115 -115 -172q-80 -86 -194 -86q-65 0 -103 35q-37 32 -37 86z" />
<glyph unicode="&#x446;" horiz-adv-x="1052" d="M-63 16q0 7 12 13q14 4 46 4.5t48 11.5q20 20 45 76l250 577q24 55 24 86q0 20 -8 31q-9 14 -30 14q-41 0 -88 -41q-22 -20 -52 -57q-44 -59 -53 -76q-10 -20 -20 -20q-17 0 -17 14q0 13 17 37q44 66 82 107q48 51 98 73q51 23 98 23q61 0 92 -31q35 -31 35 -94 q0 -13 -4 -37q-3 -17 -10 -35l-281 -649h342l332 788q7 18 10 21.5t10 3.5q19 0 27 -2q3 0 9.5 -1t9.5 -1h30q25 0 49 4q5 1 13 3.5t10 2.5q5 0 7 -1t2.5 -3.5t0 -4.5t-2 -5t-1.5 -4l-307 -729q-21 -51 -21 -52q0 -7 1.5 -12t4 -8.5t7 -6t7.5 -3.5t9.5 -1.5t9.5 -0.5h10h9 q39 0 114 -6q27 -3 27 -17q0 -6 -6 -11t-14 -5q-2 0 -9 2t-12 2q-35 0 -63 -35q-11 -13 -21.5 -29t-27 -46.5t-25.5 -45.5q-69 -124 -172 -209q-138 -114 -287 -114q-61 0 -104 30q-43 29 -43 80q0 38 23.5 60t56.5 22q22 0 38.5 -11.5t16.5 -31.5q0 -16 -15 -35 q-3 -3 -9 -8.5t-9 -8t-5.5 -7.5t-2.5 -10q0 -18 17.5 -33t56.5 -15q94 0 165 74q32 32 52 68q14 21 34 57q24 46 54 90q20 30 43 53q74 80 172 109l-2 4q-51 -4 -107 -4h-504h-32q-37 0 -109.5 -2t-112.5 -2q-26 0 -34 8q-6 6 -6 12z" />
<glyph unicode="&#x447;" horiz-adv-x="770" d="M106 604q0 5 1.5 9.5t6.5 15t11.5 24.5t18.5 44t26 67q28 74 37 119q5 22 20 22q5 0 12 -5t23 -17t35 -23q132 -74 266 -74q99 0 154 21q14 4 26.5 16t12.5 31q0 8 -2 12q0 2 -1 5.5t-1 5.5q0 9 7 15.5t19 6.5t18.5 -11.5t6.5 -25.5q0 -39 -47 -88q-13 -15 -86 -82 q-12 -12 -36.5 -38t-37.5 -38q-9 -9 -38 -38.5t-40 -41.5t-37 -42.5t-57 -69.5q-46 -56 -80 -127q-43 -92 -43 -182q0 -107 88 -107q76 0 150 74q47 44 88 121q12 24 24 24q13 0 13 -14q0 -11 -19 -47q-40 -70 -94 -117q-86 -76 -203 -76q-110 0 -164.5 57.5t-54.5 137.5 q0 147 160 289q59 52 239 178q96 66 158 119l-4 2q-48 -31 -123 -58.5t-129 -27.5q-59 0 -113 28q-18 10 -39 28.5t-35 30t-22 11.5q-12 0 -22 -25q-51 -134 -54 -139q-10 -16 -22 -16q-17 0 -17 16z" />
<glyph unicode="&#x448;" horiz-adv-x="1433" d="M-63 16q0 15 32 15q61 0 80 16q14 14 27 47l276 604q25 58 25 86q0 20 -8 31q-9 14 -31 14q-66 0 -139 -98q-47 -63 -54 -76q-10 -20 -20 -20q-16 0 -16 14q0 15 16 37q52 75 82 107q48 51 98 73q52 23 90 23q48 0 82 -31q35 -35 35 -92q0 -42 -14 -74l-283 -649h293 l321 762q17 40 21 46.5t12 6.5q19 0 27 -2q3 0 10 -1t10 -1h21q23 0 43 4q5 1 12.5 3.5t9.5 2.5q11 0 11 -10l-9 -18q-5 -10 -8 -19l-327 -774h290l332 776q1 3 3 8.5t3 8.5q1 2 2 5t2 5q6 12 17 12t21 -2t32 -2q27 0 55 4q7 2 13 3.5l8 2t4 0.5q10 0 10 -10q0 -4 -1.5 -8 t-7.5 -15t-11 -24l-297 -692q-23 -56 -23 -64q0 -15 14 -20q5 -2 34 -2.5t46 -3.5q21 -5 21 -17q0 -11 -10 -14q-4 -2 -13 -2q-19 0 -51 4q-41 4 -121 4h-14h-834h-16q-31 0 -92.5 -2t-97.5 -2q-43 0 -43 20z" />
<glyph unicode="&#x449;" horiz-adv-x="1433" d="M-63 16q0 15 32 15q61 0 80 16q14 14 27 47l276 604q25 58 25 86q0 20 -8 31q-9 14 -33 14q-63 0 -137 -98q-47 -63 -54 -76q-10 -20 -20 -20q-16 0 -16 14q0 15 16 37q52 75 82 107q48 51 98 73q54 23 92 23q49 0 80 -31q35 -31 35 -94q0 -37 -14 -72l-283 -649h293 l321 762q17 40 21 46.5t12 6.5q19 0 27 -2q3 0 10 -1t10 -1h21q23 0 43 4q5 1 12.5 3.5t9.5 2.5q11 0 11 -10l-9 -18q-5 -10 -8 -19l-327 -774h290l332 776q1 3 3 8.5t3 8.5q1 2 2 5t2 5q6 12 17 12t21 -2t32 -2q27 0 55 4q7 2 13 3.5l8 2t4 0.5q10 0 10 -10q0 -4 -1.5 -8 t-7.5 -15t-11 -24l-297 -692q-21 -49 -21 -58t3 -15t10 -8.5t10.5 -3t14 0t11.5 0.5q61 0 119 -6q27 -3 27 -17q0 -6 -6.5 -11t-14.5 -5q-2 0 -8 2t-12 2q-31 0 -64 -35q-21 -22 -80 -121q-79 -130 -172 -209q-136 -114 -274 -114q-72 0 -111 30q-43 33 -43 84 q0 35 22.5 56.5t55.5 21.5q24 0 41 -11.5t17 -31.5q0 -17 -15 -35q-2 -3 -10.5 -11t-12 -14t-3.5 -12q0 -17 19 -31t54 -14q88 0 166 78q43 41 86 121q51 94 96 143q40 43 91 74q45 25 81 35l-2 4q-50 -4 -75 -4h-31h-920h-16q-31 0 -92.5 -2t-97.5 -2q-43 0 -43 20z" />
<glyph unicode="&#x44a;" horiz-adv-x="942" d="M51 604q0 8 5 20t22 51.5t37 94.5q3 11 12 36t15.5 45.5t9.5 31.5q4 22 20 22q8 0 20 -6t52 -23t100 -36q119 -37 221 -37q43 0 76 8q12 4 19.5 7.5t13.5 12t6 21.5q0 10 -2 14q0 2 -1 5.5t-1 5.5q0 9 7 15.5t19 6.5q25 0 25 -35q0 -25 -11.5 -43.5t-35.5 -44.5 q-87 -93 -135 -153q-63 -76 -107 -152q97 29 174 29q100 0 160 -35q96 -55 96 -176q0 -136 -106 -215q-67 -52 -160 -76.5t-182 -24.5q-119 0 -184 56q-35 30 -54.5 76t-19.5 94q0 53 26 116t66 117q57 75 162 164q40 35 94.5 76.5t99.5 81.5h-4q-54 -25 -118 -42.5 t-107 -17.5q-38 0 -68 9.5t-77 31.5q-20 9 -35 18t-20.5 12t-10.5 3q-14 0 -27 -25q-45 -121 -53 -137q-7 -18 -22 -18q-17 0 -17 16zM311 143q0 -58 30.5 -96.5t88.5 -38.5q100 0 180 76q95 91 95 215q0 80 -41 119q-40 37 -123 37q-60 0 -125 -21q-51 -80 -76 -153 q-29 -94 -29 -138z" />
<glyph unicode="&#x44b;" horiz-adv-x="1308" d="M45 649q0 15 16 37q44 66 82 107q47 50 99 73q51 23 96 23q60 0 96 -31q39 -35 39 -92q0 -38 -18 -74l-117 -223q87 33 190 33q116 0 179 -47q67 -51 67 -148q0 -62 -30 -122.5t-80 -100.5q-61 -51 -161 -82t-186 -31q-89 0 -149 39q-50 33 -74 84.5t-24 106.5 q0 68 32 131l187 366q24 43 24 84q0 22 -8 33q-9 14 -31 14q-40 0 -88 -43q-24 -22 -51 -55q-30 -37 -53 -76q-10 -20 -21 -20q-6 0 -8 2q-8 4 -8 12zM217 147q0 -68 33 -104q32 -37 94 -37q104 0 186 103q78 100 78 210q0 66 -35 99q-37 37 -120 37q-64 0 -136 -25 l-69 -145q-31 -67 -31 -138zM848 115q0 32 11 64t40 95l234 521q5 13 9.5 23t6 14t3.5 8t3 8q5 14 19 14q8 0 21 -2t24 -2h32q18 0 31.5 1.5t19 3.5t10 3.5t7.5 1.5q10 0 10 -10q0 -1 -26 -59l-265 -590q-47 -103 -47 -133q0 -27 16.5 -42.5t43.5 -15.5q35 0 79.5 25.5 t83.5 69.5q20 24 29 24q5 0 8.5 -3.5t3.5 -8.5q0 -28 -59 -74q-90 -74 -186 -74q-68 0 -115 36t-47 102z" />
<glyph unicode="&#x44c;" horiz-adv-x="839" d="M45 649q0 15 16 37q44 66 82 107q47 50 99 73q51 23 96 23q60 0 96 -31q39 -35 39 -92q0 -38 -18 -74l-117 -223q87 33 190 33q116 0 179 -47q67 -51 67 -148q0 -62 -30 -122.5t-80 -100.5q-61 -51 -161 -82t-186 -31q-89 0 -149 39q-50 33 -74 84.5t-24 106.5 q0 68 32 131l187 366q24 43 24 84q0 22 -8 33q-9 14 -31 14q-62 0 -139 -98q-30 -37 -53 -76q-10 -20 -21 -20q-16 0 -16 14zM217 147q0 -68 33 -104q32 -37 94 -37q104 0 186 103q78 100 78 210q0 66 -35 99q-37 37 -120 37q-64 0 -136 -25l-69 -145q-31 -67 -31 -138z" />
<glyph unicode="&#x44d;" horiz-adv-x="901" d="M-4 145q0 44 29.5 71.5t66.5 27.5q32 0 52 -20t20 -48q0 -49 -47 -57q-20 -5 -29 -8q-10 -3 -10 -17q0 -38 51 -61q50 -23 111 -23q88 0 159 41q85 48 144 148q66 117 110 278q-12 8 -26 8q-8 0 -16.5 -2t-14 -3.5t-15 -6.5t-12.5 -7t-14 -9t-12 -8l-148 -101 q-29 -18 -57 -18q-26 0 -59 14l-62 29q-51 22 -51 47q0 8 5.5 13t12.5 5q13 0 25 -16q21 -21 45 -21q25 0 65 27l132 88q46 31 79 31q22 0 95 -25l37 -12q22 91 22 172q0 82 -33 115q-32 32 -94 32q-94 0 -162 -43t-131 -122q-24 -29 -37 -29q-8 0 -15 6.5t-7 17.5 q0 16 31 50q51 55 98.5 90.5t111.5 58.5q65 23 134 23q124 0 194 -52q86 -66 86 -208q0 -115 -51 -240q-66 -160 -188 -268q-87 -75 -186.5 -109.5t-188.5 -34.5q-97 0 -160 35q-90 49 -90 141z" />
<glyph unicode="&#x44e;" horiz-adv-x="1296" d="M23 6q0 3 12 27q3 7 7.5 18t6.5 17l262 630q25 57 25 86q0 20 -8 31q-9 14 -31 14q-66 0 -139 -98q-47 -63 -54 -76q-10 -20 -20 -20q-16 0 -16 14q0 15 16 37q44 66 82 107q48 51 98 73q32 14 45 17q24 6 49 6q62 0 97 -31q34 -31 34 -92q0 -39 -14 -74l-84 -200h162 q67 140 188 249q47 42 109 78q102 58 188 58q113 0 187 -91q71 -88 71 -219q0 -112 -62.5 -238t-158.5 -216q-50 -47 -106 -80q-110 -66 -209 -66q-73 0 -129 33q-42 23 -74 70q-57 80 -57 196q0 96 35 180h-162l-178 -428q-1 -3 -3 -10t-3.5 -8.5t-5.5 -3.5t-11 -2 q-35 0 -45 3t-35 3q-26 0 -28 -3t-29 -3q-12 0 -12 12zM637 158q0 -74 31 -114t92 -40q148 0 258 221q53 103 92 234.5t39 224.5q0 77 -31 116.5t-86 39.5q-24 0 -50.5 -8.5t-63.5 -31t-78.5 -73.5t-79.5 -125q-51 -100 -87 -227t-36 -217z" />
<glyph unicode="&#x44f;" horiz-adv-x="999" d="M-70 143q0 22 9 43q9 17 20 17q12 0 12 -19q0 -5 -1 -14t-1 -14t-1 -14.5t-1 -14.5q0 -32 13 -59q20 -41 57 -41q57 0 102 106q58 124 101 174q56 63 125 92q68 31 167 39v4q-127 0 -188 45q-63 46 -63 138q0 135 116 202q78 45 211 45q51 0 162 -8q102 -8 154 -8 q20 0 34.5 1.5t20.5 3.5l10.5 3.5t7.5 1.5q11 0 11 -12q0 -3 -3 -9t-13 -26.5t-21 -50.5l-252 -643q-10 -20 -10 -47q0 -29 11.5 -42t37.5 -13q46 0 100 38q52 37 72 66q11 16 20 16q13 0 13 -14q0 -18 -36 -51.5t-61 -48.5q-77 -52 -151 -52q-72 0 -113 35q-41 34 -41 101 q0 33 14 73l91 236h-56q-58 0 -100 -29q-69 -43 -160 -198q-3 -5 -13.5 -24t-14.5 -25.5t-14 -22.5t-17 -24.5t-17 -21t-20.5 -22t-22.5 -18.5q-75 -55 -161 -55q-69 0 -103 41q-37 42 -37 120zM440 594q0 -68 39 -100q39 -33 152 -33h53l150 366q-90 11 -136 11 q-101 0 -161 -41q-40 -29 -68.5 -83.5t-28.5 -119.5z" />
<glyph unicode="&#x451;" horiz-adv-x="819" d="M29 256q0 40 10.5 84.5t36 101t77.5 121.5t126 129q217 189 399 189q106 0 149 -62q23 -33 23 -78q0 -68 -47 -123q-49 -59 -148 -96t-225 -37q-74 0 -145 11q-40 -83 -58 -146t-18 -143q0 -121 70 -164q39 -23 92 -23q75 0 145 46q55 32 98 86q1 2 4.5 5t4.5 5 q13 18 26 18q4 0 6 -2q4 -4 4 -10q0 -20 -31 -54t-65 -61q-45 -32 -78 -47q-67 -33 -147 -33q-99 0 -168 39q-141 77 -141 244zM301 522q221 -19 342 123q62 72 62 131q0 64 -64 64q-68 0 -129 -49q-54 -41 -111 -116t-100 -153zM395 1135q0 47 34.5 79.5t84.5 32.5 q38 0 59 -27t21 -65q0 -49 -34 -77.5t-79 -28.5q-40 0 -63 24t-23 62zM741 1137q0 31 15 55q30 59 98 59q42 0 64 -27t22 -63q0 -46 -32 -77t-79 -31q-30 0 -51 12q-37 21 -37 72z" />
<glyph unicode="&#x452;" horiz-adv-x="991" d="M-31 -414q0 40 25 66t61 26q31 0 54.5 -20t23.5 -49q0 -21 -14 -39q-17 -23 -17 -33q0 -14 16 -27.5t38 -13.5q29 0 68 27t73 71q42 55 117 218l356 813q11 26 24.5 54.5t20 42t11.5 29t5 27.5q0 64 -65 64q-80 0 -193 -105q-81 -74 -132 -139.5t-95 -165.5l-178 -397 q-2 -4 -5 -12t-4 -10l-3.5 -7t-4.5 -5.5t-5.5 -2.5t-8 -2h-10.5q-13 0 -32.5 2t-22.5 2q-5 0 -20 -1.5t-32 -2.5q-16 0 -22.5 -2t-11.5 -2q-9 0 -9 8t27 68l465 1058h-57h-11q-11 0 -33.5 -1t-35.5 -1q-41 0 -41 21q0 6 3.5 11t11 7.5t15.5 4t20 2t20.5 0.5t22 -0.5 t19.5 -0.5h86l86 199q11 25 11 39q0 6 -2.5 8.5t-13.5 4t-35 1.5h-25q-24 0 -36.5 7t-12.5 14q0 10 16 10q12 0 25.5 -2t54.5 -2h86q61 0 90 6q20 4 31 4q22 0 22 -18q0 -4 -2.5 -10t-12 -24.5t-19.5 -41.5l-86 -195h155q6 0 20 0.5t26 0.5h28t28.5 -1.5t24 -3.5t17.5 -7 t6 -11q0 -23 -76 -23q-17 0 -49 1t-49 1h-17h-133l-182 -403l-45 -92q80 92 155 155q117 101 242 101q88 0 129 -42.5t41 -96.5q0 -58 -59 -193l-193 -438q-51 -116 -130 -247t-156 -220q-166 -189 -326 -189q-72 0 -113 39t-41 86z" />
<glyph unicode="&#x453;" horiz-adv-x="757" d="M10 139q0 78 40 135.5t91 92.5q64 43 267 122q105 41 145 89q41 48 41 120q0 12 -1 23.5t-8.5 31.5t-20 34.5t-38.5 26t-61 11.5q-71 0 -127 -34q-66 -41 -127 -132q-19 -24 -35 -24q-18 0 -18 18t24 50t47 55q60 60 125 92q70 33 158 33q124 0 190 -49q64 -47 64 -136 q0 -43 -18 -74t-54 -61q-12 -9 -23.5 -17t-28 -17t-25.5 -14t-32 -15t-30 -13t-36.5 -15.5t-35.5 -14.5q-147 -63 -204 -115q-84 -76 -84 -182q0 -61 30 -94q37 -46 115 -46q51 0 94.5 14.5t72.5 38t44.5 40.5t26.5 34q2 3 10.5 16.5t13.5 20t13.5 13t17.5 6.5q16 0 16 -17 q0 -26 -39 -73.5t-75 -73.5q-70 -52 -139 -68t-150 -16q-102 0 -154 33q-82 50 -82 151zM504 1040q0 2 14 19l262 327h166q23 0 23 -10q0 -9 -17 -20q-2 -1 -5 -4t-5 -4q-2 -2 -7 -6.5t-7 -6.5l-355 -262q-5 -5 -30.5 -22t-30.5 -17q-8 0 -8 6z" />
<glyph unicode="&#x454;" horiz-adv-x="737" d="M33 254q0 66 22.5 134t60.5 126t73 100.5t73 79.5q193 187 393 187q76 0 123 -39q51 -42 51 -107q0 -46 -25 -72t-59 -26q-29 0 -51 21t-22 49q0 19 12.5 34t42.5 15q15 0 23 -4q14 -7 16 -7q6 0 12 7t6 16q0 12 -11 27t-25 24q-41 25 -91 25q-53 0 -101.5 -22t-88 -62 t-63 -70.5t-50.5 -71.5q-45 -70 -100 -182l76 49q32 21 65 21q23 0 51 -12l99 -43q33 -13 47 -13q19 0 37 11l39 26q4 3 9.5 7t8 6.5t6 4t6.5 1.5q6 0 10.5 -4.5t4.5 -10.5q0 -3 -2 -6.5t-6 -7t-6.5 -5.5t-9 -6t-7.5 -5l-109 -72q-23 -17 -55 -17q-31 0 -74 19l-71 33 q-31 14 -51 14q-27 0 -43 -12l-46 -29q-28 -78 -28 -184q0 -87 26 -125q40 -62 131 -62q62 0 117 27q75 40 129 111q24 24 33 24q10 0 10 -12q0 -24 -47.5 -70t-89.5 -71q-84 -50 -192 -50q-128 0 -208.5 77t-80.5 204z" />
<glyph unicode="&#x455;" horiz-adv-x="708" d="M-63 209q0 59 34.5 95t83.5 36q46 0 70.5 -28t24.5 -62q0 -27 -17.5 -44.5t-42.5 -17.5q-26 0 -44.5 14t-18.5 34q0 8 4 20q6 9 6 20q0 21 -17 21q-14 0 -27.5 -17.5t-19.5 -50.5q-2 -6 -2 -20q0 -53 34 -102t87 -74q54 -23 103 -23q59 0 105.5 26t70.5 70q20 39 20 84 q0 32 -14 89q-3 10 -29 92q-32 95 -35 116q-6 54 -6 86q0 69 29 138q17 41 51 80q40 43 95 67.5t104 24.5q68 0 123 -39q69 -47 69 -119q0 -49 -41 -74q-17 -10 -35 -10q-37 0 -55 35q-6 12 -6 24q0 17 12 33.5t29 16.5q2 0 23 -7q12 -6 16 -6q14 0 14 15q0 6 -4 18 q-14 33 -55.5 57.5t-83.5 24.5q-58 0 -107 -38.5t-49 -106.5q0 -44 31 -123q5 -13 14.5 -36t14.5 -36q35 -83 36 -88q17 -58 21 -84q2 -12 2 -35q0 -138 -86 -231q-96 -103 -242 -103q-65 0 -123 21q-44 15 -77 41q-90 67 -90 176z" />
<glyph unicode="&#x456;" horiz-adv-x="491" d="M33 111q0 32 11 64t40 95l233 521q2 6 5 10.5t4.5 6.5t1.5 5q0 17 -41 21l-47 4q-8 0 -13.5 4.5t-5.5 9.5q0 6 6 12t17 6q4 0 11.5 -1.5t16.5 -2.5q29 -4 99 -4q39 0 59 2q5 1 16.5 3t16.5 3q11 3 25.5 9t19.5 6q7 0 11.5 -5t4.5 -10t-4.5 -14.5t-19.5 -41t-33 -71.5 l-236 -538q-47 -108 -47 -131q0 -24 15.5 -42t42.5 -18q37 0 83 25.5t83 69.5q20 24 28 24q4 0 6 -2q7 -3 7 -10q0 -11 -19 -33.5t-39 -40.5q-88 -74 -194 -74q-69 0 -116.5 36t-47.5 102zM492 1257q0 36 27.5 59t66.5 23q38 0 59 -25t21 -63q0 -50 -35 -73q-19 -13 -45 -13 q-60 0 -84 49q-10 20 -10 43z" />
<glyph unicode="&#x457;" horiz-adv-x="512" d="M33 111q0 32 11 64t40 95l233 521q2 6 5 10.5t4.5 6.5t1.5 5q0 17 -41 21l-47 4q-8 0 -13.5 4.5t-5.5 9.5q0 6 6 12t17 6q4 0 11.5 -1.5t16.5 -2.5q29 -4 99 -4q39 0 59 2q5 1 16.5 3t16.5 3q11 3 25.5 9t19.5 6q7 0 11.5 -5t4.5 -10t-4.5 -14.5t-19.5 -41t-33 -71.5 l-236 -538q-47 -108 -47 -131q0 -24 15.5 -42t42.5 -18q37 0 83 25.5t83 69.5q20 24 28 24q4 0 6 -2q7 -3 7 -10q0 -11 -19 -33.5t-39 -40.5q-88 -74 -194 -74q-69 0 -116.5 36t-47.5 102zM336 1257q0 31 23 54.5t69 23.5q76 0 76 -84q0 -10 -1.5 -19t-7.5 -26.5t-23.5 -28 t-43.5 -10.5q-42 0 -67 27.5t-25 62.5zM600 1257q0 31 23 54.5t69 23.5q76 0 76 -84q0 -52 -33 -71q-19 -13 -43 -13q-58 0 -82 47q-10 20 -10 43z" />
<glyph unicode="&#x458;" horiz-adv-x="479" d="M-530 -420q0 38 25 62t56 24q41 0 62 -35q8 -16 8 -28q0 -13 -6 -25q-14 -38 -14 -41q0 -13 15 -24t40 -11q32 0 69.5 16.5t59.5 41.5q16 16 57 90q66 123 144 313l336 836q1 1 2 4t2 4q0 1 1 3t1 3q0 9 -19 14q-12 2 -41 5.5t-43 7.5q-12 4 -12 14q0 14 25 14 q9 0 24 -2.5t31 -3.5q5 0 38 -1t48 -1q31 0 45 2q9 0 25 4q13 3 29 9t22 6t12 -4t6 -11q0 -14 -22 -65l-273 -664q-41 -100 -106 -225t-127 -211q-57 -75 -101 -117q-62 -59 -123 -84.5t-137 -25.5q-87 0 -123 32.5t-36 73.5zM502 1229q0 32 15.5 59.5t41.5 40.5 q21 12 47 12q31 0 56.5 -20t25.5 -57q0 -48 -31.5 -78.5t-74.5 -30.5q-52 0 -72 39q-8 13 -8 35z" />
<glyph unicode="&#x459;" horiz-adv-x="1294" d="M-117 92q0 41 24.5 67.5t61.5 26.5q33 0 51.5 -20t18.5 -45q0 -35 -33 -51q-26 -10 -26 -27q0 -10 9.5 -18.5t30.5 -8.5q69 0 164 82q120 103 326 412q98 147 154 254q10 18 10 29q0 12 -9 18t-15.5 7t-22.5 3q-27 2 -64.5 2t-54.5 2q-8 0 -19.5 5.5t-11.5 15.5 q0 16 29 16q20 0 52.5 -2.5t66.5 -3.5q31 -2 63 -2h113h47q26 1 46 5.5t34 4.5q28 0 28 -18q0 -6 -10 -29q-4 -8 -16 -35l-129 -313q101 33 188 33q118 0 182 -56q68 -58 68 -159q0 -122 -111 -207q-141 -109 -348 -109q-89 0 -147 27q-56 25 -85.5 71.5t-29.5 94.5 q0 13 3.5 29t7 25t11.5 29t9 23l227 545h-31q-134 -230 -241 -387q-212 -309 -338 -395q-83 -58 -158 -58q-48 0 -82 27q-43 31 -43 90zM662 111q0 -45 24 -72q32 -35 96 -35q57 0 114.5 25.5t98.5 74.5q78 92 78 215q0 64 -35 97q-39 39 -120 39q-61 0 -134 -25l-104 -244 q-18 -41 -18 -75z" />
<glyph unicode="&#x45a;" horiz-adv-x="1327" d="M-18 4q0 3 1.5 7t5 10t5.5 12q3 6 5.5 12.5l5 13t3.5 9.5l295 710q8 18 8 27q0 18 -32 18q-57 5 -62 6q-20 4 -20 19q0 12 20 12q4 0 23 -3t49 -3q105 0 153 8q15 3 25 6.5t14.5 6t7.5 2.5q4 0 8.5 -4t4.5 -11q0 -4 -1.5 -8t-3 -7.5t-5 -10.5t-5.5 -13l-137 -331h332 l133 321q2 4 5.5 14.5t5 14t5 9t8 7.5t11.5 2q3 0 8 -1t8 -1q8 -2 27 -2h35q27 0 43.5 5t17.5 5q10 0 10 -10q0 -2 -2.5 -6.5t-3.5 -7.5l-153 -373q101 33 188 33q121 0 182 -53q68 -58 68 -162q0 -119 -111 -207q-143 -109 -342 -109q-95 0 -153 27q-113 49 -113 152 q0 42 21 94l84 202h-332l-174 -419q-6 -14 -7.5 -18t-5 -9t-7 -5.5t-9.5 -0.5q-15 0 -43 4q-10 2 -33 2q-15 0 -43 -4q-2 0 -6.5 -1t-7.5 -1q-14 0 -14 10zM700 111q0 -43 25 -72q31 -35 96 -35q57 0 114.5 25.5t98.5 74.5q78 92 78 215q0 64 -35 97q-39 39 -121 39 q-60 0 -133 -25l-104 -244q-19 -44 -19 -75z" />
<glyph unicode="&#x45b;" horiz-adv-x="1026" d="M-31 0q0 7 8 25l7 14l477 1087h-58h-10q-11 0 -33.5 -1t-35.5 -1q-26 0 -35 9q-6 6 -6 12t3.5 11t11 7.5t15.5 4t20 2t20.5 0.5t22 -0.5t19.5 -0.5h86l86 199q11 25 11 39q0 5 -3 8q-6 6 -49 6h-24q-24 0 -36.5 7t-12.5 14q0 10 16 10q12 0 25.5 -2t54.5 -2h86q61 0 90 6 q20 4 31 4q22 0 22 -18q0 -4 -3 -10t-12.5 -24.5t-19.5 -41.5l-86 -195h156h29h19.5h23.5t22.5 -0.5t22 -1.5t17 -3.5t12.5 -6.5t4 -10q0 -23 -76 -23q-17 0 -50 1t-49 1h-16h-133l-225 -497q49 62 119 127t131 96q66 35 143 35q83 0 127.5 -37.5t44.5 -91.5q0 -50 -47 -168 l-187 -428q-4 -10 -11 -25.5t-10 -22.5t-6.5 -17t-5 -17t-1.5 -14q0 -31 30 -31q34 0 88 28q30 18 76 54q6 5 24.5 20.5t28.5 22.5q8 4 11 4q7 0 10 -6q2 -2 2 -6q0 -10 -23 -33q-66 -59 -129 -94q-80 -43 -149 -43q-65 0 -97 33.5t-32 82.5q0 9 1.5 19t3 18t5.5 20l6 18 t7.5 20t7.5 18.5t9.5 20t8.5 18.5l180 403q3 7 10.5 22.5t10.5 22.5q24 55 24 74q0 28 -10 43q-19 27 -59 27q-23 0 -56 -11q-60 -21 -147 -104q-86 -79 -141 -160q-38 -56 -113 -221l-133 -299q-6 -15 -16 -35q-5 -10 -9.5 -13t-15.5 -3q-20 0 -37 2t-29 2q-9 0 -24.5 -1 t-18.5 -1q-4 -1 -16.5 -3.5t-19.5 -2.5t-9 2t-2 6z" />
<glyph unicode="&#x45c;" horiz-adv-x="1052" d="M33 16l284 682q25 57 25 86q0 20 -8 31q-9 14 -31 14q-66 0 -139 -98q-44 -59 -53 -76q-10 -20 -21 -20q-16 0 -16 14q0 15 16 37q44 66 82 107q48 51 98 73q50 23 103 23q59 0 92 -31q35 -31 35 -92q0 -44 -15 -74l-84 -207h62q75 0 133 45q40 30 131 162 q85 124 109 148q60 63 143 63q59 0 88 -33t29 -77q0 -38 -22.5 -64.5t-61.5 -26.5q-32 0 -48 18.5t-16 41.5q0 19 13 41q6 9 6 20q0 31 -33 31q-22 0 -44 -15t-35 -30.5t-30 -40.5q-7 -10 -22.5 -31.5t-22.5 -31.5q-9 -13 -28.5 -40.5t-28.5 -41.5q-56 -76 -82 -101 q-47 -44 -102 -57v-2q79 0 137 -39q61 -43 61 -129q0 -23 -14 -105t-14 -112q0 -51 39 -51q29 0 62 23.5t56 51.5q50 63 76 144q9 28 25 28q5 0 10.5 -5t5.5 -13q0 -24 -35.5 -91t-70.5 -102q-36 -36 -85.5 -58.5t-97.5 -22.5q-66 0 -108.5 39t-42.5 112q0 24 14 115 q12 69 12 102q0 50 -30 74q-31 25 -103 25h-51l-164 -392q-4 -9 -7.5 -16t-5.5 -11.5t-6 -8t-5 -5.5t-5.5 -3t-5.5 -1.5t-6 -1t-6 -0.5l-92 -10q-18 -2 -25.5 -5t-13.5 -3q-22 0 -10 24zM651 1040q0 1 15 19l262 327h166q22 0 22 -10q0 -9 -16 -20q-2 -1 -5 -4t-5 -4 q-2 -2 -7.5 -6.5t-7.5 -6.5l-354 -262q-4 -4 -30.5 -21.5t-31.5 -17.5q-8 0 -8 6z" />
<glyph unicode="&#x45e;" horiz-adv-x="991" d="M-168 -457q0 35 25.5 57.5t62.5 22.5q19 0 28.5 -8.5t11 -17t1.5 -25.5q0 -37 29 -37q37 0 100 51.5t115 114.5q77 91 110 156q35 72 35 131q0 7 -1 20.5t-1 20.5v8l-4 639q0 33 -1.5 52.5t-6.5 43t-18 34.5t-33 11q-39 0 -80 -51q-40 -47 -64 -107q0 -1 -4.5 -13 t-7 -16.5t-7 -12.5t-10 -11.5t-12.5 -3.5q-3 0 -6 1t-6.5 6t-3.5 12q0 22 41 98q10 20 20 35q86 137 224 137q83 0 110 -62q21 -53 19 -157l-6 -439q0 -79 4 -133l32 50l359 585q54 91 82 119q31 31 69 31q41 0 58.5 -21t17.5 -47q0 -31 -19.5 -52.5t-54.5 -21.5 q-27 0 -36 23q-8 25 -21 25q-11 0 -59 -72l-273 -443q-181 -294 -311 -467t-238 -260q-86 -73 -180 -73q-38 0 -64 17t-26 50zM528 1145q0 22 9 43q5 16 20 31q30 30 78 30q41 0 62.5 -23.5t21.5 -60.5q0 -40 -20 -56.5t-46 -16.5q-8 0 -20 4q-16 8 -23 8q-14 0 -14 -17 t29 -32q16 -8 43 -8q115 0 192 77q27 27 41 52q32 54 43 114q7 43 27 43q16 0 16 -20q0 -29 -19.5 -84t-39.5 -84q-43 -65 -116 -99t-146 -34q-62 0 -99 37q-39 39 -39 96z" />
<glyph unicode="&#x45f;" horiz-adv-x="997" d="M29 100q0 22 16 71t29 79l243 545q12 28 -16 28q-23 0 -65 6q-25 5 -25 21q0 12 16 12q3 0 31 -4q32 -4 59 -4q63 0 115 8q32 5 43 10t17 5q12 0 12 -11q0 -5 -19 -53l-243 -569q-52 -130 -52 -162q0 -31 20 -47.5t54 -16.5q43 0 91.5 30.5t117.5 101.5 q85 88 137.5 172.5t100.5 199.5l131 312q5 12 8 17.5t5 6t7 0.5l20 -2t15.5 -1.5t9.5 -0.5h31q25 0 49 4q5 1 13 3.5t10 2.5q12 0 6 -18l-244 -567q-5 -13 -15.5 -36t-15.5 -36q-11 -23 -22 -51q-17 -49 -17 -80q0 -28 13 -41q12 -12 37 -12q53 0 112 47q42 34 70 69 q11 17 20 17q13 0 13 -13q0 -12 -17 -34t-32 -35q-36 -32 -72 -54q-72 -43 -141 -43t-112.5 34.5t-43.5 78.5q0 22 16 70q2 5 6.5 15.5t10 24t10.5 31.5q-37 -47 -90.5 -102.5t-95.5 -87.5q-78 -61 -187 -61q-58 0 -98.5 12.5t-58.5 32.5t-25.5 38t-7.5 37zM102 -575 q0 4 3 7.5t5.5 6t8.5 6.5t8 6l45 33q37 28 49 51q12 21 17 86l4 82q5 83 14 111q20 62 84 112l90 72q65 51 72 51q14 0 14 -12q0 -9 -35 -39l-57 -51q-29 -24 -39 -68q-2 -9 -8 -100l-8 -113q-4 -55 -35 -94q-12 -14 -74 -61l-102 -76q-34 -23 -41 -23q-6 0 -10.5 4t-4.5 9z " />
<glyph unicode="&#x490;" horiz-adv-x="1007" d="M-113 12q0 21 35 21q6 0 17.5 -1t17.5 -1q16 -2 49 -2q66 0 82 10q20 12 49 90l465 1210q8 24 8 29q0 9 -6.5 13.5t-10 4.5h-15.5q-21 0 -56 -1t-53 -1q-37 0 -37 23q0 18 37 18q6 0 92.5 -3t165.5 -3h309q120 0 191 43q83 51 147 156q48 74 56 90q23 48 28 55 q10 19 31 19q10 0 10 -10q0 -9 -26 -62q-29 -56 -97 -207q-51 -119 -55 -129q-15 -41 -35 -41q-6 0 -17 5.5t-43 14t-85 13.5q-88 10 -197 10h-131l-500 -1290q-10 -20 -10 -37q0 -20 31 -20q55 0 80 2q54 4 82 4q26 0 26 -19q0 -20 -37 -20q-20 0 -53 1.5t-63 2.5 q-47 1 -108 -0.5t-97 -1.5h-201h-6q-7 0 -22 -1t-23 -1q-25 0 -25 16z" />
<glyph unicode="&#x491;" horiz-adv-x="811" d="M25 4q0 4 10 21q3 6 6 12.5t4 9.5l303 731q8 18 8 27q0 10 -12.5 17.5t-34.5 8.5l-59 3q-17 0 -17 12q0 22 50 22q16 0 42 -2t99 -2h203q121 0 209 58q41 26 82.5 72t64.5 87q13 25 23 25t10 -12q0 -7 -21 -54l-30 -69q-5 -13 -16.5 -38t-16.5 -38q-9 -21 -15 -34t-8 -17 t-4 -9t-6.5 -15.5l-13.5 -31.5q-5 -14 -17 -14q-4 0 -12 6t-21.5 15t-27.5 14q-33 12 -82 12h-193l-327 -796q-1 -2 -2 -5.5t-2 -5.5q0 -1 -1 -3t-1 -3q-6 -14 -23 -14q-3 0 -31 4q-10 0 -22.5 1t-16.5 1q-14 0 -35 -3t-30 -3q-16 0 -16 10z" />
<glyph unicode="&#x2000;" horiz-adv-x="929" />
<glyph unicode="&#x2001;" horiz-adv-x="1858" />
<glyph unicode="&#x2002;" horiz-adv-x="929" />
<glyph unicode="&#x2003;" horiz-adv-x="1858" />
<glyph unicode="&#x2004;" horiz-adv-x="619" />
<glyph unicode="&#x2005;" horiz-adv-x="464" />
<glyph unicode="&#x2006;" horiz-adv-x="309" />
<glyph unicode="&#x2007;" horiz-adv-x="309" />
<glyph unicode="&#x2008;" horiz-adv-x="232" />
<glyph unicode="&#x2009;" horiz-adv-x="371" />
<glyph unicode="&#x200a;" horiz-adv-x="103" />
<glyph unicode="&#x2010;" horiz-adv-x="538" d="M82 432l16 113h418l-20 -113h-414z" />
<glyph unicode="&#x2011;" horiz-adv-x="538" d="M82 432l16 113h418l-20 -113h-414z" />
<glyph unicode="&#x2012;" horiz-adv-x="538" d="M82 432l16 113h418l-20 -113h-414z" />
<glyph unicode="&#x2013;" horiz-adv-x="993" d="M82 438l14 99h875l-17 -99h-872z" />
<glyph unicode="&#x2014;" horiz-adv-x="1267" d="M29 438l16 99h1247l-16 -99h-1247z" />
<glyph unicode="&#x2018;" horiz-adv-x="391" d="M346 1159q0 39 13.5 76.5t39 70.5t40.5 49.5t40 39.5q44 40 82 57q27 12 33 12q10 0 10 -6q0 -4 -4 -12q-8 -11 -31 -25l-39 -26q-27 -20 -47 -43t-41 -60q-30 -50 -30 -100q0 -47 26 -47q7 0 11.5 3.5t5.5 4.5t6 10q3 11 10 17q8 8 14 12q15 12 39 12q26 0 49 -23.5 t23 -60.5q0 -50 -36 -79t-85 -29q-51 0 -86 35q-43 43 -43 112z" />
<glyph unicode="&#x2019;" horiz-adv-x="417" d="M408 1004q0 15 34 36q56 36 86 70q22 25 41 59q31 52 31 101q0 47 -27 47q-4 0 -7 -1t-5 -3l-3.5 -3.5t-3.5 -5.5l-3 -6q-10 -19 -25 -28q-16 -13 -39 -13q-26 0 -48.5 23.5t-22.5 60.5q0 50 36 79.5t85 29.5q51 0 86 -35q43 -43 43 -112q0 -33 -13 -70q-17 -50 -46 -87 t-75 -79q-45 -41 -81 -57q-29 -13 -33 -13q-10 0 -10 7z" />
<glyph unicode="&#x201c;" horiz-adv-x="706" d="M348 1165q0 39 13.5 76.5t39 70.5t40.5 49.5t40 39.5q44 40 82 57q27 12 33 12q10 0 10 -6q0 -15 -35 -37q-58 -37 -86 -69q-20 -23 -41 -60q-30 -50 -30 -100q0 -47 26 -47q7 0 11.5 3.5t5.5 4.5t6 10q11 21 24 29q15 12 39 12q19 0 37 -12.5t27 -32.5q8 -16 8 -39 q0 -50 -36 -79t-85 -29q-51 0 -86 35q-43 43 -43 112zM664 1165q0 39 13.5 76.5t39 70.5t40.5 49.5t40 39.5q44 40 82 57q27 12 32 12q11 0 11 -6q0 -4 -4 -12q-8 -11 -31 -25l-39 -26q-27 -20 -47 -43t-41 -60q-31 -52 -31 -100q0 -47 27 -47q4 0 7 0.5t5.5 3t3 3.5t3 5.5 t3.5 5.5q4 11 10 17t15 12q15 12 39 12q26 0 48.5 -23.5t22.5 -60.5q0 -50 -35.5 -79t-84.5 -29q-51 0 -86 35q-43 43 -43 112z" />
<glyph unicode="&#x201d;" horiz-adv-x="720" d="M408 1004q0 15 34 36q56 36 86 70q22 25 41 59q31 52 31 101q0 47 -27 47q-4 0 -7 -1t-5 -3l-3.5 -3.5t-3.5 -5.5l-3 -6q-10 -19 -25 -28q-16 -13 -39 -13q-26 0 -48.5 23.5t-22.5 60.5q0 50 36 79.5t85 29.5q51 0 86 -35q43 -43 43 -112q0 -33 -13 -70q-17 -50 -46 -87 t-75 -79q-45 -41 -81 -57q-29 -13 -33 -13q-10 0 -10 7zM711 1004q0 15 34 36q56 36 86 70q22 25 41 59q31 52 31 101q0 31 -12 43q-8 4 -14 4q-3 0 -6 -1l-4.5 -1.5t-4 -3t-3 -4t-2.5 -5t-3 -4.5q-10 -19 -25 -28q-16 -13 -38 -13q-26 0 -49 23.5t-23 60.5q0 50 36 79.5 t85 29.5q51 0 86 -35q43 -43 43 -112q0 -39 -13.5 -76.5t-39 -70.5t-40.5 -49.5t-40 -39.5q-44 -40 -82 -57q-29 -13 -33 -13q-10 0 -10 7z" />
<glyph unicode="&#x201e;" horiz-adv-x="733" d="M-35 -246q0 15 35 37q56 36 86 70q22 25 41 59q31 52 31 100t-27 48q-4 0 -7 -1t-5 -3l-3.5 -3.5t-3.5 -5.5l-3 -6q-10 -21 -25 -29q-15 -12 -39 -12q-26 0 -49 23.5t-23 60.5q0 50 36 79.5t85 29.5q51 0 86 -35q43 -43 43 -113q0 -35 -12 -69q-17 -50 -46 -87t-75 -79 t-82 -58q-27 -12 -33 -12q-10 0 -10 6zM268 -246q0 15 35 37q56 36 86 70q22 25 41 59q31 52 31 100q0 31 -12 43q-10 5 -15 5q-4 0 -7 -1t-5 -3l-3.5 -3.5t-3.5 -5.5l-3 -6q-10 -21 -25 -29q-15 -12 -39 -12q-26 0 -49 23.5t-23 60.5q0 50 36 79.5t85 29.5q51 0 86 -35 q43 -43 43 -113q0 -51 -28 -104t-49.5 -75.5t-55.5 -55.5q-46 -42 -82 -58q-27 -12 -32 -12q-11 0 -11 6z" />
<glyph unicode="&#x2022;" horiz-adv-x="1413" d="M561 707q0 104 75 179t183 75q103 0 176.5 -74.5t73.5 -179.5q0 -104 -75 -179t-179 -75t-179 75t-75 179z" />
<glyph unicode="&#x2026;" horiz-adv-x="1370" d="M4 80q0 54 33 87.5t86 33.5q45 0 70.5 -28t25.5 -73q0 -51 -31.5 -82.5t-85.5 -31.5q-46 0 -72 25t-26 69zM461 80q0 54 33 87.5t86 33.5q45 0 70.5 -28t25.5 -73q0 -51 -31.5 -82.5t-85.5 -31.5q-46 0 -72 25t-26 69zM918 80q0 54 32.5 87.5t85.5 33.5q45 0 71 -28 t26 -73q0 -51 -31.5 -82.5t-85.5 -31.5q-46 0 -72 25t-26 69z" />
<glyph unicode="&#x202f;" horiz-adv-x="371" />
<glyph unicode="&#x205f;" horiz-adv-x="464" />
<glyph unicode="&#x20ac;" horiz-adv-x="1118" d="M135 666q0 20 9.5 24t60.5 4h78q11 39 41 113h-99q-21 0 -25.5 2.5t-4.5 11.5v13q0 5 1.5 8.5t3.5 5.5t6 4t6.5 2.5t7.5 1t7 0.5h7h6h108q62 135 152 256t192 203q159 127 309 127q48 0 85.5 -15t82.5 -57q27 -27 39 -41q29 -31 45 -31q14 0 21.5 12t14 24t16.5 12 t10 -15q0 -20 -25 -86q-12 -29 -25 -61.5t-22 -55.5q-16 -42 -26.5 -71t-13.5 -37.5t-3 -9.5q-1 -2 -2.5 -8t-2.5 -9t-3 -7.5t-4.5 -6.5t-5.5 -2q-6 0 -10.5 6.5t-4.5 15.5q0 4 4.5 12.5t6.5 16.5q10 50 10 96q0 141 -57 210t-134 69q-83 0 -163 -66q-83 -69 -170 -221 q-70 -122 -127 -260h516h7q14 0 19 -0.5t9 -4t4 -11.5v-19q0 -5 -1.5 -8.5t-6 -4.5t-7.5 -1.5t-9.5 0t-8.5 0.5h-543l-41 -113h461q7 0 17 0.5t14 0.5t10.5 -1t9 -2.5t5.5 -4.5t4 -8.5t1 -12.5q0 -15 -10 -18t-51 -3h-477q-64 -170 -64 -334q0 -142 43 -205q47 -71 154 -71 q102 0 209 78q115 84 172 196q1 2 6.5 12t8.5 15t8.5 10.5t11.5 5.5q10 0 10 -16q0 -24 -29 -73t-55 -79q-57 -70 -129 -118q-139 -93 -283 -93q-138 0 -221 109q-80 106 -80 283q0 126 45 280h-116q-15 0 -15 21z" />
<glyph unicode="&#x2122;" horiz-adv-x="1619" d="M266 715q0 18 62 18h3q11 0 17.5 1.5t17 12t19.5 31.5l258 602h-37q-82 0 -127 -29t-80 -91q-2 -3 -6.5 -11t-7.5 -12.5t-8 -10.5t-10 -9t-11 -3t-11 6t-5 13q0 8 59 117q7 13 18 36.5t13 26.5h594l-16 -41l-39 -117q-2 -5 -4 -13.5t-4 -12.5t-5 -9.5t-8 -7.5t-12 -2 q-23 0 -23 19q0 3 1 6t2.5 6.5t3.5 10t4 14.5q8 32 8 53q0 32 -18.5 46.5t-77.5 14.5q-7 0 -25 -1t-35 -1l-260 -602q-10 -20 -10 -26q0 -5 2 -8.5t7 -5t8.5 -2t12.5 -1t13 -0.5t10.5 -0.5t10 -1t7.5 -1.5t5.5 -3.5t1.5 -5.5q0 -19 -27 -19q-5 0 -15.5 1.5t-15.5 1.5 q-29 2 -84 2q-77 0 -116 -2q-6 0 -17.5 -1.5t-17.5 -1.5q-25 0 -25 13zM813 717q0 16 23 16h43q36 0 47 8l4 4q1 1 2 5t2 6l235 581q11 25 11 31q0 17 -41 14l-39 -2q-23 0 -23 17q0 16 33 16q31 0 41 -1t16 -1h117h10q3 0 8.5 1t8.5 1q20 0 24 -9.5t2 -33.5l-24 -446 l356 487h191q4 0 14 0.5t15.5 0.5t12.5 -1t10 -4.5t3 -9.5q0 -17 -33 -17q-7 0 -21.5 1t-21.5 1q-12 0 -17.5 -2t-13.5 -12.5t-18 -34.5l-231 -559q-9 -18 -9 -22q0 -7 2 -9q5 -10 43 -10h21q18 0 18 -12q0 -16 -24 -16l-273 -3q-20 0 -20 15q0 5 5 10.5t17 5.5q6 0 17.5 -1 t17.5 -1q5 0 9 0.5t7 1t6 2t5 2t4 3.5t3 4t3 5.5t2.5 5t2.5 6.5t3 7l228 532l-33 -47l-375 -512q-1 -2 -5 -6.5t-6 -7t-5.5 -6t-6.5 -5.5t-7.5 -3.5t-8.5 -1.5q-10 0 -16.5 6.5t-5.5 19.5l30 523q3 33 9 67l-25 -70l-191 -477q-1 -3 -3 -10t-3.5 -12.5t-1.5 -7.5 q0 -19 33 -19q4 0 13.5 1t13.5 1q24 0 24 -14q0 -17 -30 -17q-17 0 -51 1.5t-52 1.5t-51 -1.5t-51 -1.5q-29 0 -29 15z" />
<glyph unicode="&#xe000;" horiz-adv-x="880" d="M0 0v881h881v-881h-881z" />
</font>
</defs>
</svg>
